<?xml version="1.0" encoding="UTF-8"?><svg id="a" xmlns="http://www.w3.org/2000/svg" viewBox="0 0 76.79 53.82"><defs><style>.b{fill:#fff;}</style></defs><rect x="0" y="4" width="38.39" height="3.34"/><rect class="b" x="38.4" y="4" width="38.39" height="3.34"/><rect y="14" width="38.39" height="13.28"/><rect class="b" x="38.4" y="14" width="38.39" height="13.28"/><rect class="b" y="7.33" width="38.39" height="6.64"/><rect x="38.39" y="7.33" width="38.39" height="6.64"/><rect class="b" y="27.27" width="38.39" height="26.55"/><rect x="38.39" y="27.27" width="38.39" height="26.55"/><rect x="0" y="4" width="38.39" height="3.34"/><rect class="b" x="38.4" y="4" width="38.39" height="3.34"/><rect y="14" width="38.39" height="13.28"/><rect class="b" x="38.4" y="14" width="38.39" height="13.28"/><rect class="b" y="7.33" width="38.39" height="6.64"/><rect x="38.39" y="7.33" width="38.39" height="6.64"/><rect class="b" y="27.27" width="38.39" height="26.55"/><rect x="38.39" y="27.27" width="38.39" height="26.55"/><rect y="2" width="76.79" height="2"/><rect class="b" x="0" width="76.79" height="2"/></svg>