<svg version="1.1" id="a" xmlns="http://www.w3.org/2000/svg" x="0" y="0" viewBox="0 0 151.6 148.2" style="enable-background:new 0 0 151.6 148.2" xml:space="preserve"><style>.st2{fill:none;stroke:#000;stroke-width:0;stroke-linecap:round;stroke-linejoin:round}</style><path style="fill:#557efe" d="M0 0v79h101v69h51V0z"/><g style="opacity:8.000000e-02"><path d="M98 146c1-1 1-4 3-4-1-5-6 6-3 4zM66 80c1 0 2 1 1-1-1 0-2-1-1 1zM98 89l3 1v-3l-3 2zM101 93v-2c-1 0-2 2 0 2zM34 83l1-4c-2-1-4 4-1 4zM70 80l3-1-3 1zM99 111c-1 2 1 2 2 2v-2h-2zM99 101c-2-1-4-1-3 1h5v2-3h-2zM101 98v-2 2zM101 85v-1c-3-1-2 1 0 1zM87 81c-4 3 2 1 2-2-2 0-1 0-2 2zM84 81c-1-2 3 0 2-2-3-1-8 5-2 2zM23 82v1c1-1 4 1 4-1-1-4 3 0 2-3-6-1-1 3-6 3zM59 82c1 0 1-2 2-1l-1-2c-1-1-2 2-1 3zM15 79H8c0 2 1 2 2 1 2-1 3 3 4 1h2l-1-2zM23 79h-1 1zM19 83c-4 2 4 4 1-4-3-1 1 4-1 4zM57 79c-5-1-1 3 0 5l1 1c1-3-3-4-1-6zM97 79l-2 3c1 3 3-1 2-3zM52 79c-1 0-3-1-1 1 1 0 2 1 1-1zM94 80v-1h-4c0 2 3 1 4 1zM54 88c-2 4-8 0-2 4 4-6 7 1 8-6h-1c-1 4-4 0-5 2zM76 102l-1-7-2 2 2 3c-2 2-1 3 1 3l1 2c5-2 0-1-1-3zM63 122c-2 0-1 0-1 1 2 1 4-2 5-3l3-1c-2-2-5 1-6 1-1 1 1 1-1 2zM45 128c-2 1 0 1 1 1 3 0 2-6 5-6 1 0 2 0 1-1-4-1-4 7-7 6zM87 98c-2 2-4 8 0 6-2-4 1-1 2-7-1-2-1 0-2 1zM4 109c-2 0-3 2-4 4v2h1c1-2 2-6 5-4 3 0 0-3-2-2zM15 79h-3 3zM69 146l-4 2h-1 4c1 0 2-1 1-2zM22 130c1 3 3-1 3-2h-2c-4-1-4 8-1 2zM91 133c-1 1 1 3 2 3s1-3 2-2c1-1 1-3-1-3 0 2-1 4-3 2zM73 121c5-1-1-1 1-5-2 0-3 6-1 5zM80 110c-1-2-2 0-2 2 1 3 4-1 6 0 0-2-1-3-3-1-1 0-3 0-1-1zM83 148h1-1zM62 146c2 1 1-1 0-1l-3 1-3 2h2l4-2zM45 147c1-1-1-4-1-5-3 0 1 3-1 5v1h2v-1zM47 143l5-1v-2c-1-1-2 1-3 1h-3c-1 1 0 2 1 2zM1 147H0v1h1c1-1 2-2 3-1 0-1 4-1 3-2H5c-1 1-4 0-4 2zM80 120l-2 2 1 1 2-2c1-2 3 1 3 1 2 0-1-2-1-3-1-1-1-1-3 1zM74 142c1 1 2 0 3-1h2l-2-2c-1-1-1 3-2 2-1 0-2 0-1 1zM34 143l2-2h-2c-1 1-5 3-4 5l4-3zM29 131c3 2 0 1 1 4 0 0 0 4 2 3v-1c0-2 1-9-3-6zM51 84l1 2c1-1 4-1 1-2-2 1-1-2-3-2-3 3 0 2 1 2zM59 94c0-1 6-5 5-6-3 0-5 3-5 6zM90 142c0-2 2 0 2-2-1-1-3-1-3 1l-2 1c1 2 2 2 3 0zM46 91l2 4c2-2-3-3-1-7-1 1-3 2-1 3zM27 94l2-3 4 1c1-1-1-2-1-3l-3 1c-2 0-3 2-2 4zM88 84h3c1 1 1 2 2 0l-2-2c0 1-5 1-3 2zM3 82c-1 4 3 3 5 2v-2l-4 1c0-3-3-5-1-1zM0 88v2h2c3-1-1-3-2-2zM15 133c-1 1-3 2-2 3 2 3 8 0 1-1 2 0 3-2 1-2zM17 142l1 1 2-2c1 1 2-1 2-2 1-2-2-1-2-1l1 1-4 3zM24 148c1-1-1-3-2-3l-4-2c-3 4 5 2 6 5zM14 84c0 1-4 3 0 3l2-3c0-3-10-1-2 0zM62 110c-1 1 0 1 1 2 1-2 0-3 3-2 1 0 5-3 0-2-2 0-3 0-4 2zM18 120l5-4c-1-2-8 3-5 4zM61 94c1 3 1-2 2 0 1 1 1 4 3 3 0-1-2-2-1-4 0-2-4-2-4 1zM70 92h7c0-4-3-1-5-2-1 1-5 2-2 2zM87 95c2 1 5-5 3-5-1 2-2 5-5 5h2zM52 126l-1 3 1 4c1-1-2-5 1-6 1-1 0-1-1-1zM7 119c0 1 3 1 2 2 1 2 1-1 1-2s-2 0-2-2l-1 2zM0 103v1c1 1 2-1 3-1l2-1c0-4-4-1-5 1zM93 145c0-2-4 0-5-1-2 1-6 3-1 2 2 0 4 1 6-1zM60 97l2 5c1 2 4-1 4-2-4 2-5-6-6-3zM15 125c-1 1-1-3-3-2v2l2 2c3 0 2-6 1-2zM26 112c-4 3 4 0-2 5-1 4 3-1 4-2 0-1 0-3-2-3zM23 144h1v-2h1c4-4 0-2-3 0l1 2zM49 100c-1-1-2-2-2 0l1 1 3 1c3 1 0-2-2-2zM50 104c-1-1-2 1-1 1l1 1c1 0 3 1 3-1 2-1-2-1-3-1zM85 91c-1 2-6 4-4 5 1-1 8-4 4-5zM59 112l-2 3v2c2 0 2-4 3-3 2-1 0-3-1-2zM70 101c2 0 0 1 1 2 2 0 0-4 1-6-1 0-3 2-2 4zM14 148h1-1zM35 121c-2-1-2 1 0 2 1-1 0 2 3 2v-2c-2 0 0-3-3-2zM17 148h5l-1-1-4 1zM57 102h4l-2-1-2 1zM52 113s1 2 2 1c1 0 4-2 2-3-2 2-4 0-4 2zM55 97c5-2 1-2-2-2l2 2zM58 104c-1 0-4 1-1 2h2c4 2-1-2-1-2z"/><path d="m56 94 2-3c-2-1-3 1-3 2 0 2 0 2 1 1zM4 106h2l1-3c-1 0-3 1-3 3zM75 87l2 1c1-5-8-3-2-1zM54 101l3-2c0-1 0-2-1-1-1 2-6-1-2 3zM77 79v5l1-2-1-3zM82 87c1 2 4-2-1-2-4 3-2 3 1 2zM60 119l2-3-1-1c0 2-2 2-1 4zM74 81s-6 3-4 4c1 0 6-3 4-4zM57 109c0 1 0 2 1 1h2c2-1-3-4-3-1zM32 108c1 2 2-1 2-2-1-3-2 1-2 2zM30 104l-1 3c1 3 4-4 1-3zM45 104c1 1 0 4 3 4 1-2-1-1-1-3s-3-3-2-1zM96 125c0-3-3-2-3 0s4 4 3 1v-1zM77 138l2 1 1-1-2-2c-1 0-4 2-1 2zM93 106c-1 1-5 2-2 3 1-1 7-3 2-3zM20 126l-1-2v2s-2 0-2 3l3-3zM32 120l2-4h-1c1 1-4 4-1 4zM94 119l-2 2 3 1c2-1 0-2-1-3zM29 116h1c1-1 2-5-1-5-1 1 2 3 0 5zM79 101c0 2 3 1 4 3 2-2-2-2-3-3h-1zM83 91l1-2-5 1 4 1zM41 108c1 2 2 0 4-1-2-3-1 2-4 1zM67 92c0-2 0-3 2-3 2-1 1-1-1-1-2-1-4 6-1 4zM13 92c-2 2-2 3-4 3l2 1c2 0 3-4 2-4zM9 102l1-1c0-1 2-3 1-4l-3 3 1 2zM73 111c1 0 5-1 1-2-1 1-2 1-1 2zM95 142c-2-2-2 2 0 3l2-3c-1 0-2 2-2 0zM63 104c0 2 1 3 2 3l2-2-1-1c-1 2-2 0-3 0zM14 114l1 2v2l1-3s-1-2-2-1zM40 85l1-2c-1-2-4 5-1 2zM41 103c0 1 1 4 2 2v-3c3-2-2-1-2 1zM9 148h1l1-2-1-2-1 4zM13 101c1 1 3-2 2-3 0-4-1 2-2 3zM35 90c0 1-2 3 0 2l1-1c2-1-1-2-1-1zM5 142c-4 2 3 0 4 2 1-1-1-2-2-3l-2 1zM15 142c-1 0-5 1-3 2 1 0 4 0 3-2zM40 99c0-2-3-2-4-2-3 1 3 4 4 2zM6 120c-2-2-2-1-3 1 1 2 2 0 3-1zM20 86l-1 1h5v-2l-4 1zM55 123c-1 0-2 0-1 1l3 1c3 2 1-4-2-2zM36 138c3-2-2-3-3-3l3 3zM33 96l2-1-1-1c-2 0-2 1-1 2zM62 138v-3l1-2c-3 0-3 2-3 4s1 2 2 1zM1 129H0v1l1-1zM6 139c-2 0-4 1-3 2 1-1 5-1 3-2zM0 138l2-3-2 1v2zM45 134c-2 0-3 1-2 2 0 1 0 4 1 3 0-3 2-4 1-5zM11 108c2 0 0-1-1-1-2-1-2 2 1 1zM65 113c-2 0-1 1 0 3v-2c2 0 2-2 0-1zM40 89c-1 1-4 2-1 3 0 0 3-3 1-3zM13 111c0 1-2 4 0 4 1-1 2-5 0-4zM42 133c1-1 4-2 2-3l-4 2c1 0 1 2 2 1zM15 128c0 1 2 8 3 5-1-2-1-5-3-5zM19 121s-2 1 0 1l2 1-2-2zM10 104c0 2 3-1 3-2-1-3-2 2-3 2zM42 112l2 2c1-1 0-6-2-2zM21 112c1 3 2 1 1 0 5 0-1-4-1 0zM91 120l2-2c0-3-2 0-3 1-3 1 0 1 1 1zM39 121c1-1 2-1 1-2h-4c-1 1 2 2 3 2zM39 117c1 0 2-4 0-4l-1 3 1 1zM22 121c-1 2 5 1 4 0l-3-1c-1-1-1 0-1 1zM53 117c3 0-2-3-3-3l3 3zM80 128l-2 2v2c2 0 3-3 2-4zM84 125c0-2-4-3-3-1 0 2 2 1 3 1zM29 95v2c3 2 2-4 2-5l-2 3zM83 135l1 3c0 2 1 0 1-1s-1-4-2-2zM79 144l3 1c0-1-1-2 1-3 2-2-6 0-4 2zM16 89c-2 4 1 2 2 0h-2zM62 131c1 0 2 0 2 2 0 1 1 1 1-1s-4-4-3-1zM88 129l-2-1c-2 1-2-1-4-1 0 2 3 3 4 2h2zM0 82v-1 1zM65 138c1-1 1-3 3-3v-1c-2 0-6 4-3 4zM88 115c-1-2-2 1-2 1 2 4 2 0 2-1zM77 114c0 2 0 6 2 2 1-1-1-1-2-2zM73 131l1-1c2-1 1-3 1-4-2 0-1 3-2 5zM0 83v3l1-2c2-1 0-1-1-1zM71 129l-1 3c1 3 2-3 1-3zM50 134c-2 1 2 4 3 5 1-3-3-3-3-5zM67 122v1c0 2 1 4 2 1l-2-2zM57 139c-1 1-4 1-3 2 0 3 5-1 3-2zM47 132l-1 3c1-1 0 1 1 1 0-1 2-4 0-4zM50 145l-3 1c1 1 5 0 3-1zM8 93c2 0 3-1 3-3-1-1-2 2-3 2v1zM7 87c-3 1 2 1-1 3 2 1 3-3 1-3zM57 128c-1 3 2 2 2 0-1-1-2-3-2-1v1zM69 138l2-2c-1-1-6 2-2 2zM78 146c0-1 0-3-1-1l-1 1c-2 2 3 1 2 0zM71 148h2l1-2c-1-3-2 1-3 2zM73 125c1-1 2-3 0-3h-1c-1 0-1 3 1 3zM59 141c-1 1 2 4 1 1v-2c-1 0-2 0-1 1zM46 125l1-3c-1 0-2-2-2 0 0 1-1 4 1 3zM27 104l2-1c2 0 1-2 0-2-1 1-2 1-2 3zM95 136c0 3 3 1 3-1-2-2-1 1-3 1zM21 98l3-2c-2-3-7 4-3 2zM19 93c0-2-1-2-1 0-1 2 0 2 2 1l-1-1zM26 124h-2c-1-1-3 3-1 2l1 1 3-3c0-1-1-2-1 0zM35 87h4l-3-2h-1v2zM25 90l1-1-3-1c-3 1 0 2 2 2zM96 129c1 4 2 2 2-1-1-1-1 0-2 1zM41 89c2 2 4-2 5-3-2-2-4 3-5 3zM92 96c1 0 5-2 2-2-1 0-4 2-2 2zM31 87c3-2-1-1 1-4 0-2-2 0-2 0 1 1-1 4 1 4zM28 88c-1-2 0-7-2-3l1 3c0 2 1 0 1 0zM94 88c2 0 2-3 4-4-1-1-3 0-3 1l-1 3zM64 86l3-2-2 1c-1 0-2 0-1 1zM6 135c0 1-3 1 0 2l2-2c-1-1-2-2-2 0zM7 127c2 0 2-3 2-4-1-2-2 3-2 4zM11 128l-2 1v1l2-1c2 1 2-1 0-1zM2 95h2c1-2 1 2 2 0 1-3-5-3-4 0zM6 130l-4 3c2 1 5-1 5-3l-1-1v1zM99 96l-1-5c-3 0 1 9 1 5zM45 80c-1 0-5 2-2 3 1 0 3-2 2-3zM46 82c1 1-1 4 2 4v-3c0-1-1-4-2-1zM12 147h2l2-2c-1-1-4 1-4 2zM9 132c-1 1 0 3 1 3l1-2c1 1 1 0 2-1H9zM94 110c0 2 2 2 3 3 2-1-2-4-3-3zM74 105c-2 1 1 3 2 3 6 0 0-2-2-3zM83 98s0 2 1 0h1c4-1-2-4-2 0zM36 113c1 1 2-1 3-2 0-1 2 1 2-1l-1-1c-1 1-4 2-4 4zM46 115l2 2 1-1-1-1h-2zM92 110l-1-1-1 4 1 2 1-5zM82 106c-3 0-2 3 1 2l2-1c-1-2-2 0-3-1zM95 116c-2 1 2 2 2 1 0-3 1 0 2-1-1-3-2-1-4 0zM29 148l-1-2c1-2-1-4-1-2l2 4zM34 127c-1 1 2 2 1-1-1-4-6 3-1 1zM41 92c-1 2-3 5 0 3 1 3 3-3 0-3zM24 104v-3c-4-4-2 1 0 3zM20 103c1-1-1-3-2-4-2 3 0 3 2 4zM27 134c-1 0-2 1 0 2 1 0 3-2 1-2h-1zM27 137c-3 1-1 3 1 2s1-2-1-2z"/><path class="st2" d="M94 114v-1M92 128v2M7 108v1M5 113v-1M36 115h-2M73 88h1M68 103v-1M88 112h-2M74 114v-1M90 104v2M92 137v2M52 120h-1M5 81h2M55 132h-2"/><path d="M99 148h1l1-1c-1-1-2 0-2 1zM99 133c1 1 1-2 1-2l-1 2zM99 138l2-1c0-2-2-1-2 1zM0 93v3l1-1-1-2zM99 82l2-2c-2-1-3 0-2 2zM15 95l1 1c1 0 0-2-1-1zM8 86h3c0-2-2-1-3 0zM14 104l1 1 1-2-2 1zM1 99c1 0 3-1 1-2 0 0-3 1-1 2zM17 108c1-1 3-3 1-3-1 1-2 2-1 3zM26 95l1 2c1-1 0-2-1-2zM4 86H2c1 1 2 2 2 0zM21 105h-1 1zM35 133c0-2-2-5-2-3l2 3zM36 130v2-2zM35 145c0-2-1 0-1 0h1zM32 141c-1-3-2 0-2 1 1 1 1 0 2-1zM53 144h2c3-1-1-2-2 0zM2 117l1-2c-1-1-1 1-1 2zM58 135l2-2c-1-2-5 1-2 2zM39 142l2-1c0-3-4 1-2 1zM54 136l1-1c-1-1-3 0-1 1zM52 146l2 2c1-1-1-3-2-2zM57 137l-2 1c0 1 4 0 2-1zM38 134h2c0-1-2-2-2 0zM39 144h1c3 0-1-3-1 0zM40 128s-1-2-2-1l2 2v-1zM38 147l2 1v-2l-2 1zM0 119v1h1c2-1 1-1-1-1zM58 122l1-1-1 1zM83 114c-1 1-2 1-1 2l1-2zM32 101c1 0 3-1 2-2-1 0-5 2-2 2zM55 121l1-1c-1-1-3 1-1 1zM51 108l-1 2 1 1v-3zM42 122l2-2c0-2-3 1-2 2zM48 120v1c2 0 2-1 0-1zM59 131l1-2-1 2zM9 138c-1-2-2 0-1 1l1-1zM2 123l-1-2c0 1 0 4 1 2zM9 140H8h1zM0 140v1h1c1-1 0-1-1-1zM0 144h1-1zM1 127l2-2c-1-1-2 1-2 2zM6 148H5h2s-2-2-1 0zM47 138c0 2 1 0 2 0h-2zM87 122c1 2 3-3 0 0zM55 128l-2 1c1 3 2 0 2-1zM87 122zM65 127c0 2 1 1 1 0-1-2-1-1-1 0zM85 141l-2 1 2-1zM63 142l1 1c2-2-3-3-1-1zM71 113h2c-1 0-1-2-2 0zM84 132l1 1c1 1-1-3-1-1zM87 126c-1-2-2-1-3 0h3zM77 126c0 1 1 2 2 1l-2-1zM89 134c-2 1-3 1-2 3 2-1 3-2 2-3zM86 107c-1 1 0 3 1 1 2 0-1-1-1-1zM88 131h2c0-2-2 0-2 0zM90 126l-2 1 1 1c1-1 2-1 1-2zM88 109c-2 1 0 1 0 2 2-1 1-1 0-2zM80 134l2-1c-2-1-4 1-2 1zM48 148h-1 1zM61 125c-1 1 1 3 1 1 1-1-1-2-1-1zM70 115l-2 1h1c2 1 2-1 1-1zM41 127v1c3-2 0-3 0-1zM67 131c0 2 2 2 2 1s-1-2-2-1zM98 119c-3 1 0 2 1 2 1-1 1-2-1-2zM48 131h2c0-2-2-2-2 0zM72 138l1 1c1-1-1-3-1-1zM70 126l1 1c2 0 0-2-1-1zM71 143l-3-2c-2 1 3 4 3 2zM79 148h1c0-2-1-1-1 0zM64 140h1-1zM74 133v2c3 1 2-4 0-2zM63 147c-1-1-3 1-2 1l2-1zM65 146l2-1-1-1c0 1-2 1-1 2zM2 130h1l1-1-2 1zM78 95c0 2 1-1 1-1 0-2-2 0-1 1zM22 109l1-2c-2 0-3 1-1 2zM30 123c-1 1 1 2 1 2 1 1 2 0 2-1-1-1-2-3-3-1zM28 120s2-1 1-2c-1 1-2 1-1 2zM13 106c-1 1 1 2 1 2 1-1 1-2-1-2zM1 107h1l-2-1v1h1zM6 97l1 1c2-1 0-2-1-1zM26 109l1 1-1-1zM68 111s1 2 2 0h-2zM70 107h1l-1-2v2zM54 110l1-1c-1-2-3 0-1 1zM32 111c1 2 2 0 2-1l-2 1zM42 116l-1 2c1 1 4-1 1-2zM34 102l1 1c3 0 1-3-1-1zM35 109l1-2c-1-3-2 2-1 2zM47 97h1c0-2-4-1-1 0zM50 96l1 1 2-3c-1-2-2 1-3 2zM96 97l-1 2c1 0 3-2 1-2zM38 80l2 1-1-2-1 1zM91 148h1-1zM37 95c1 2 1 0 2 0h-2zM44 91c0 2 0 4 1 3l-1-3zM68 97s3 0 2-2c-1 0-5 1-2 2zM41 100c0 2 2-1 2-2-1-1-1 1-2 2zM98 140h-2 2zM96 147c0-2-1-1-1 0 1 2 1 1 1 0zM77 98h1-1zM93 102c-1 1-1 2 1 2l-1-2zM51 87v2-2zM91 100s2-1 1-2c-1 0-3 2-1 2zM90 88h1-1zM4 126h2c0-3-1-1-2 0zM19 115l1-2h-1s-2 2 0 2zM23 92c-1 2 0 2 1 0h-1zM95 89c-2 1-3 1 0 2 0 0 2-2 0-2zM28 127c1 2 1 1 1 0 0-2-2-1-1 0zM26 107l1-2c-1 0-5 2-1 2zM98 124c0-1 0-2-1-1 0 2 2 2 1 1zM26 131v2c1-1 2-3 0-2zM72 95l1-1c-1-1-2 0-1 1zM26 98v2-2zM12 117c2 0-2-3-3-1-1 1 2 1 3 1zM16 121l-2-1c-2-1 2 3 2 1zM11 111l-1-1c-1 1 0 4 1 1zM90 101v1-1zM40 106l-2 1c1 1 1 0 2-1zM48 111l-1-2c-1 1 0 4 1 2zM19 109l-2 2 3-1-1-1zM6 117l2-2c0-2-5 1-2 2zM12 121h1-1zM36 82l1 1c1-1 0-2-1-1zM87 148h1-1zM98 105c-2 0 0 2 0 3v-3zM62 84l1-1c-2 0-2 1-1 1zM91 124v-2c-1 1-2 1 0 2zM66 82c-1 0-1-2-2-1l1 2 1-1zM29 98v2-2zM23 134l-3 1c1 1 2 1 3-1zM21 91l-1 1c1 2 2 0 1-1zM33 148l-2-1 1 1h1zM89 88c-1 0-3 1-1 1l1-1zM14 139c-1 0-3 2-1 2l2-1s1 0 0 0l-1-1zM6 91l-1-1c0 1-3 1-1 2l2-1z"/></g></svg>