<?xml version="1.0" encoding="utf-8"?>
<!-- Generator: Adobe Illustrator 17.1.0, SVG Export Plug-In . SVG Version: 6.00 Build 0)  -->
<!DOCTYPE svg PUBLIC "-//W3C//DTD SVG 1.1//EN" "http://www.w3.org/Graphics/SVG/1.1/DTD/svg11.dtd">
<svg version="1.1" id="Layer_1" xmlns="http://www.w3.org/2000/svg" xmlns:xlink="http://www.w3.org/1999/xlink" x="0px" y="0px"
	 viewBox="220 0 100 100" enable-background="new 220 0 100 100" xml:space="preserve">
<g>
	<path fill="#FFFFFF" d="M280.7,98.3v-39l-9.6,9.6c-0.3,0.4-0.7,0.5-1.1,0.5c-0.4,0-0.8-0.1-1.1-0.4l-9.6-9.6v39c0,0.1,0,0.3,0,0.4
		c3.5,0.8,7.1,1.2,10.7,1.2c3.7,0,7.2-0.4,10.7-1.2C280.7,98.6,280.7,98.4,280.7,98.3L280.7,98.3z"/>
	<path fill="#FFFFFF" d="M270,0c-27.7,0-50,22.3-50,50c0,22.9,15.4,42.1,36.4,48.1V55.8l0,0c0-0.4,0.1-0.8,0.4-1.1
		c0.5-0.5,1.5-0.5,2.1,0L270,65.8l11.1-11.1c0.3-0.3,0.7-0.4,1.1-0.4l0,0c0.8,0,1.5,0.7,1.5,1.5V98c21-5.9,36.4-25.3,36.4-48.1
		C320,22.3,297.5,0,270,0L270,0z M282.7,48.4c-0.1,0.1-0.4,0.1-0.5,0.1c-0.5,0-1.2-0.4-1.3-0.9l-6.3-15.9h-9l-6.3,15.9
		c-0.3,0.8-1.2,1.2-2,0.8c-0.8-0.3-1.2-1.2-0.8-2l12.2-30.7c0.3-0.5,0.8-0.9,1.3-0.9c0.5,0,1.2,0.4,1.3,0.9l12.2,30.7
		C283.9,47.2,283.5,48,282.7,48.4L282.7,48.4z"/>
</g>
</svg>
