<?xml version="1.0" encoding="utf-8"?>
<!-- Generator: Adobe Illustrator 17.1.0, SVG Export Plug-In . SVG Version: 6.00 Build 0)  -->
<!DOCTYPE svg PUBLIC "-//W3C//DTD SVG 1.1//EN" "http://www.w3.org/Graphics/SVG/1.1/DTD/svg11.dtd">
<svg version="1.1" id="mcamis_logo" xmlns="http://www.w3.org/2000/svg" xmlns:xlink="http://www.w3.org/1999/xlink" x="0px" y="0px" viewBox="0 0 15.2 55.4" enable-background="new 0 0 15.2 55.4" xml:space="preserve">
    <polygon fill="rgba(0,0,0,0)" points="0.6,22.9 0.6,55.4 14.3,55.4 14.3,23.9 7.4,29.7 " />
    <path fill="#f8f5ef" d="M8.4,0.5C8.3,0.2,8,0,7.6,0C7.3,0,7,0.2,6.9,0.5L0.1,17.7c-0.2,0.4,0,0.9,0.5,1.1c0.4,0.2,0.9,0,1.1-0.5
                l3.5-8.9h5l3.5,8.9c0.1,0.3,0.4,0.5,0.8,0.5c0.1,0,0.2,0,0.3-0.1c0.4-0.2,0.6-0.7,0.5-1.1L8.4,0.5z" />
    <path fill="#f8f5ef" d="M14.4,22.1C14.4,22.1,14.4,22.1,14.4,22.1c-0.2,0-0.4,0.1-0.6,0.2l-6.2,6.2l-6.2-6.2c-0.3-0.3-0.9-0.3-1.2,0
                C0.1,22.5,0,22.7,0,22.9c0,0,0,0,0,0v32.4h1.7V24.9L7,30.3c0.2,0.2,0.4,0.2,0.6,0.2c0.2,0,0.4-0.1,0.6-0.2l5.4-5.4v30.5h1.7V22.9
                C15.2,22.4,14.9,22.1,14.4,22.1z" />
</svg>
