<svg xmlns="http://www.w3.org/2000/svg" viewBox="0 0 220.5 279.2"><g style="opacity:.11"><path d="M152 279c-2-2-2-2-1-4v-3c-1-3 0-5 3-6l2 1-1 1c-2 1-2 2-1 4v5c1 1 2 2 4 1s2 0 2 1h-8Z" style="fill:#020202"/><path d="m192 0-2 2v2c2 1 2 2 0 4v5c-1 1-2 0-2-1l-1-3V0h5Z" style="fill:#010101"/><path d="m209 279-2-1c-1-1-2-2-1-3 0-2 0-2-2-3l-1-2 2-4c1 0 2 1 1 2s0 2 2 3v1l1 1c-2 2 3 4 1 6h-1ZM0 158l2-2 2 1c1 1 0 1-1 1v2c2 2 2 2 0 4-1 1-2 2-1 3 1 3 1 4-2 5v-14ZM0 132c2-1 2 0 2 1-1 4 0 4 3 4 2 0 2 0 2 2v5H5v-3c0-2 0-2-2-2l-3-1v-6ZM0 81c2 2 2 2 4 0s4-2 7-2l1 1-1 1h-1l-4 3c-2 3-3 3-6 1v-4ZM47 0c0 2-1 2-2 1h-2c-1 0 0 0 0 0v8l-2 1-2-2 1-4V0h7ZM125 279l-1-4c-2-1-3-3-3-5l1-2h2v1c-1 2 0 4 2 5l2 4 1 1h-4Z" style="fill:#020202"/><path d="m141 0 1 3c2 1 2 2 1 4l-2 3c0 1 0 2-1 1l-1-1 1-3c1-1 1-3-1-3l-1-4h3ZM0 149l4-1h3l3 1 1 4-1 1-2-1v-1c-1-2-2-2-3-1H0v-2Z" style="fill:#030303"/><path d="M221 262c-3 2-4 1-5 0-1-2-3-2-4-1h-2v-2c1-1 5-2 6 0h5v3ZM221 65c-3 1-4 1-5-1-1-1-3-2-4-1h-2c-1-1 0-2 1-2h5c2 2 2 2 5 0v4Z" style="fill:#020202"/><path d="m67 279-2-2-4-1-1-2 2-2 2 1c-1 2 0 2 1 2 3 0 4 2 5 4h-3ZM221 146c-3 1-4 0-6-2 0-1-1-2-3-2l-1-1h5l1 1c0 2 2 2 4 2v2Z" style="fill:#030303"/><path d="M116 0c0 2 2 3 4 3l3 2 1 2h-2l-5-2c-3-1-4-3-2-5h1ZM221 171l-3 2-1 1-1-1c0-2 0-3 2-4l1-1c-1-3-1-5 1-6v9Z" style="fill:#020202"/><path d="M0 226c2-1 2-1 2 1 0 1 0 2 2 3l2 4-2 1-1-1-3-3v-5ZM0 28c2-1 2 0 2 1 0 2 0 3 2 3 1 1 2 4 1 5H3c0-2-2-3-3-4v-5ZM0 121c2 0 3 0 4 2h4v2c-3 2-4 2-6 0l-2-1v-3Z" style="fill:#030303"/><path d="M17 279c1-1 0-3-1-4h-2v-2h2l3 2c2 1 2 2 2 4h-4Z" style="fill:#020202"/><path d="M0 205h4c3 1 4 2 3 5v1l-1-1c-1-2-3-3-5-3l-1-1v-1ZM0 7h1l5 1c2 1 2 3 1 4H6c-1-1-3-3-5-3L0 8V7ZM0 75l1-1 2-1 1 1c-1 1 0 2 1 2v1l-2 2-2-1-1-1v-2ZM0 273l2-2h1l1 1c-1 1 0 1 1 1v2c0 2-2 2-4 1l-1-1v-2Z" style="fill:#040404"/><path d="m42 279-2-4c-1-1 0-3 1-4l2 1v3c2 1 1 3 0 4h-1Z" style="fill:#030303"/><path d="M0 220c3 0 6 2 7 5v1H5l-2-2c-1-1-2-2-3-1v-3Z" style="fill:#040404"/><path d="M221 20h-5v-1c2-2 2-3 2-5l3-1v7ZM221 217l-3 1h-2v-2h1l1-3 3-3v7Z" style="fill:#020202"/><path d="M0 22c3 0 6 3 7 5v1H5l-2-2c-1-1-2-2-3-1v-3ZM54 279c-1-2-1-4 1-6h2v1l-1 1 1 2 1 2h-4ZM47 279c-1-2 0-4 2-6h2v2l-2 4h-2ZM221 124c-2 1-3 0-4-1s-2-1-1-3l1-1 1 1c1 2 1 1 2 1v3h1ZM87 279c0-2 1-3 3-3s3 1 3 3h-6Z" style="fill:#030303"/><path d="m156 0 3 1 1 2h-2l-6-3h4Z" style="fill:#050505"/><path d="m0 249 2 1 1 5-1 1-1-1-1-2v-4Z" style="fill:#040404"/><path d="m0 51 2 2 1 4-1 1-1-1-1-2v-4Z" style="fill:#060606"/><path d="M4 279c2-2 4-2 6-2h2c1 1-1 2-1 2H4ZM20 0c-1 1-2 2-1 4l-1 1-2-1V0h4Z" style="fill:#020202"/><path d="m167 0 1 5-1 1-2-2V0h2Z" style="fill:#040404"/><path d="m221 85-5-4 1-1h1l3 2v3Z" style="fill:#060606"/><path d="m148 0 2 3v1h-1c-2-1-3-2-3-4h2Z" style="fill:#050505"/><path d="m81 279 3-4h1l1 2-1 2h-4Z" style="fill:#070707"/><path d="M172 279h-1l-1-2 2-1 3 3h-3ZM0 211h2v4c0 2 0 3-2 2v-6Z" style="fill:#040404"/><path d="M0 13h2v4c0 2 0 3-2 3v-7Z" style="fill:#060606"/><path d="M221 196h-4l-1-1 1-1 4-1v3ZM221 139c-3-2-3-6-2-7h2v7Z" style="fill:#040404"/><path d="M62 0v4h-2l-1-4h3Z" style="fill:#050505"/><path d="M183 279c0-1 0-2 2-3h1v3h-3ZM12 0l-1 3-1 1-1-1V0h3Z" style="fill:#060606"/><path d="M221 223h-3l-1-1 1-1 2-1v3h1Z" style="fill:#0a0a0a"/><path d="M221 34c-3-2-3-5 0-6v6Z" style="fill:#050505"/><path d="M144 279c0-1-2-1-1-2 2-1 2 0 3 1l1 1h-3Z" style="fill:#060606"/><path d="M221 231c-3-1-3-4 0-6v6Z" style="fill:#040404"/><path d="M221 25h-3l-1-1 1-1 3-1v3Z" style="fill:#070707"/><path d="m0 193 3 2-1 2H1l-1-1v-3Z" style="fill:#060606"/><path d="m0 91 2-1v3l-2 1v-3ZM197 0l1 2h-3c-1-1 0-1 1-2h1Z" style="fill:#070707"/><path d="m0 62 2-1v3l-2 1v-3Z" style="fill:#040404"/><path d="m0 260 2-1v3l-2 1v-3Z" style="fill:#050505"/><path d="M221 151h-3l-1-1 1-1h3v2Z" style="fill:#070707"/><path d="M25 0v2c-2 1-2-1-3-2h3Z" style="fill:#111"/><path d="M221 58c-2-2-1-4-2-6l2-1v7Z" style="fill:#0c0c0c"/><path d="M221 255c-2-1-1-3-2-5l2-1v6Z" style="fill:#0b0b0b"/><path d="m216 279 1-2 2 2h-3Z" style="fill:#080808"/><path d="M176 0c-2 2-4 2-5 0h5Z" style="fill:#050505"/><path d="m221 94-2-1c0-1 0-2 2-3v4Z" style="fill:#0b0b0b"/><path d="M36 0c0 1-1 2-2 1l-2-1h4Z" style="fill:#0a0a0a"/><path d="M213 0c-1 1-1 2-2 1l-1-1h3Z" style="fill:#080808"/><path d="M221 161c-1-1-2-3 0-4v4Z" style="fill:#070707"/><path d="M221 276c-2-2-2-2 0-3v3Z" style="fill:#0d0d0d"/><path d="m107 279 1-1c1-1 1 0 2 1h-3Z" style="fill:#1a1a1a"/><path d="M221 78c-2-1-2-2 0-4v4Z" style="fill:#090909"/><path d="M0 144c2 1 2 1 0 2v-2Z" style="fill:#1a1a1a"/><path d="M35 279h3-3Z"/><path d="M30 279h2-2Z" style="fill:#121212"/><path d="M22 279h3-3Z" style="fill:#0d0d0d"/><path d="M0 159c1 2 2 3 0 4v-4Z" style="fill:silver"/><path d="M135 0h-4 4Z" style="fill:#191919"/><path d="M74 0h-3 3Z" style="fill:#131313"/><path d="M82 0h-3 3Z" style="fill:#1e1e1e"/><path d="M103 0h-3 3Z" style="fill:#1b1b1b"/><path d="M221 207c-2-1-1-2 0-3v3Z" style="fill:#131313"/><path d="M163 0h-2 2Z" style="fill:#2a2a2a"/><path d="M221 9c-2-1-1-2 0-2v2Z" style="fill:#0d0d0d"/><path d="M111 279h2-2ZM87 0h-1 1Z" style="fill:#161616"/><path d="M89 279h2-2Z" style="fill:#cacaca"/><path d="M221 116v-2 2Z" style="fill:#212121"/><path d="M189 279h2-2Z" style="fill:#0a0a0a"/><path d="m25 91-4 5-1-2c2-2 0-3-1-5l-2-2c-2-2-2-3 0-5 1-2 0-3-1-4l-2-1v-2h2l4 3v3c-1 2-1 4 1 6l3 3 1 1ZM175 21l-2 2-1-2v-1h-2c-2 1-3 0-3-1l-1-3c-1-1-1-2-3-2l-2-2c0-1 0-3-2-4V7l1-1 3 3c0 2 1 2 2 2l2 2 1 2c1 1 1 2 2 1l3 1 2 4ZM174 218l-1 2-1-1c-1-2-1-2-3-1l-2-1-2-4-2-1-2-2c0-2 0-3-2-4v-1l1-1 3 3c0 2 1 2 2 2l2 2 1 2 1 1h3c2 1 2 3 2 4Z" style="fill:#010101"/><path d="M45 240v-1l1-1 1 1c1 2 1 4-1 6l-2 2c-1 2-2 2-3 1h-6c-1 1-5 0-5-1l1-2h4c2-2 3-1 5 0 1 0 2 1 2-1l1-1c2 0 2-1 2-3ZM48 44c0 2-1 3-3 3l-1 2c0 2-2 2-4 1l-1-1c-1 0-3-1-3 1l-2 1-4-2v-1l1-1h11l2-2 1-2v-2l1-1 1 1 1 3ZM196 179c0 2-1 3-3 2-2 0-2 0-3 2l-3 1-4-1c-2 1-3 0-4-1l-1-2h5l3 1 2-1c0-2 2-2 4-2h1l-1-1-1-3 1-1h1l3 6ZM197 14c2 0 4 2 4 3l-1 2-1-1-1-1h-1v1l-1 4-1 1c-1 2-1 3 1 3l2 1v2h-3c-3-1-4-2-3-5l1-3c1-1 2-2 0-3v-2l4-2Z" style="fill:#020202"/><path d="M187 208v-6c-1-2-1-4 1-5 2 0 1-1 1-2-1 0-2-1-1-2 2-1 2 0 3 1 2 2 2 4-1 6v2c1 1 2 2 1 3s-2 2-1 4v2l-2-1-1-2Z" style="fill:#010101"/><path d="M197 212c2 0 4 1 4 3l-1 2-1-1-1-1h-1v1l-1 4-1 1c-1 2-1 3 1 3l2 1v1h-3c-3 0-4-2-3-4l2-4v-2c-2-2-1-3 1-4h2ZM156 213l-2-2c-3-1-3-4-1-5l2-1v4l2 1c2 1 2 1 1 3l1 2 2 2 3 2 1 2h-1l-4-1-3-3c-1-1-2-2-1-4Z" style="fill:#020202"/><path d="m156 15-2-1c-2-1-3-4-1-6h2v3l2 1c2 1 2 2 2 3-1 1-1 2 1 2l1 2 3 3 1 1-1 1-4-2-3-3c-1-1-2-2-1-4Z" style="fill:#010101"/><path d="m152 75-1-1c-1-3 1-5 3-6l2 1-1 2c-2 1-2 1-1 3v5l3 2 1-1 2 1-1 1c-1 2-3 2-5 1l-1-1c-2-2-3-3-2-5l1-2ZM55 179c0-3 1-5 3-6h2v2l-2 3c0 2 0 3 3 4l2 2 3 1 1 1-2 1-3-1c-1-2-2-2-3-2-2-1-4-3-4-5ZM79 71v-1l-1-2-1 1h-2v-2l-1-2-2-5 1-2h2v1l1 3 4 4c2 2 2 4 1 6h-2v-1ZM93 102l-1 3h-1l-1-1c1-2 0-3-1-4l-2-1-4-2c-3-1-4-4-3-6l1-1 1 2c0 2 1 3 4 3l1 1 5 3 1 3Z" style="fill:#020202"/><path d="m75 265-3-6 1-3h2v3l5 5c2 1 2 3 1 6h-2v-3c0-1-1-2-2-1l-1 1-1-2Z" style="fill:#010101"/><path d="m170 183 2-4 2 1-1 2c-1 1 0 1 1 2l3 7 3 4v1h-2l-2-2-4-8-1-1-1-2ZM34 220l3 1h1c3 0 3 1 4 3 0 2 1 2 2 1l1-1h2v1l-2 3-4-1-4-2c-1-2-3-3-5-3v-2h2Z" style="fill:#020202"/><path d="m34 22 6 2 2 3h2l1-1h1l1 1c0 2-1 3-2 3-2 1-3 0-4-1l-4-2-1-1-2-1c-1 0-2 0-2-2l2-1Z" style="fill:#010101"/><path d="M203 221c2 0 5 1 7 3l2 1v-4l2 1c1 1 2 2 1 3 0 2-1 2-3 2s-4 1-5-2l-4-1c-1-1-3 0-3-2l3-1Z" style="fill:#020202"/><path d="M202 24c3 0 6 0 8 3h2v-3h2c1 1 2 2 1 4l-3 1c-2 1-4 1-5-2l-3-1h-3l-1-1 1-2 1 1Z" style="fill:#030303"/><path d="m122 213 1 1 1 2v3l-1 3 1 5-1 2-1-1-2-7v-5c-1-2 0-3 2-3ZM122 15l1 1c1 2 2 4 0 7v3l1 4-1 1-1-1-2-6v-6c-1-2 0-3 2-3ZM121 73l1-2 2-1v2c-1 2 0 3 1 4 2 1 3 2 3 4l2 1 2 2-1 2h-1l-2-2c-2 0-3-1-3-3l-1-2c-2-1-2-3-3-5ZM94 145c3 1 4 2 4 5h-2c-2 0-4-2-6-4l1-2v-2l-1-2h2l1 1c4 2 4 2 1 4ZM33 274l-2-1 1-1 5-4c2-1 3-2 1-4v-1h2l3 3c1 2 1 3-1 3l-4 2c-1 2-3 3-5 3ZM80 43c-2 0-3-1-3-3l-2-2c-3-2-3-3-1-5l4-3 1-1v2l-3 4 1 1 3 4h1v2l-1 1ZM33 76l-2-1 1-1 5-3v-1c2-1 2-2 1-4v-1h2l3 4c1 1 0 2-1 2l-4 2c-1 2-3 3-5 3Z" style="fill:#020202"/><path d="M170 227c0-4 2-5 5-4 1 0 2 1 3-1l6-1v1l-1 1c-2 0-3 1-4 3h-1l-3-1c-2 0-3 0-3 2 0 1 1 2-1 2l-1-2Z" style="fill:#030303"/><path d="M179 154h2l-1 2c-3 0-3 2-3 5v1l1 2 1 2-2 1-3-3c1-3 1-5-1-7l1-2 5-1ZM39 205v-1c1-2 2-4 1-6-1-1 0-2 2-2 1-1 3 0 4 1v2h-1l-1-1h-1v9h-2l-2-1v-1ZM173 25h2c1 1 2 1 3-1l6-1v2l-2 1-2 1c0 1-1 2-3 1-4-1-4-1-5 3h-2c-1-2 0-3 1-5l2-1Z" style="fill:#020202"/><path d="M80 240c-2 0-3 0-3-2l-2-2c-2-2-3-3-1-5l4-3 1-1v2l-3 4 1 1 3 3 1 1v2h-1Z" style="fill:#010101"/><path d="m127 159 1-1c0-2 0-4-2-6v-5c2-1 3-2 5-1l1 2h-2c-1-1-2 0-2 1v2c3 2 3 4 2 7l-1 1-1 2-1-2ZM125 179c-1 1 0 3 2 4l3 4v1h-1c-2 0-3-1-3-3l-2-1-2-4c1-1 0-2-1-3l-1-2 1-1c1-1 1 0 2 1l2 4ZM21 251c1-2 0-4-1-5l1-2 4-2 1 1-1 1c-2 0-2 1-1 3l1 8-1 2c-1 0-2-1-1-2l-1-3-1-1ZM6 181l-3 1-1-1v-1l2-1h4c1-1 0-2-1-2l-1-4v-2l2-1 1 1 2 6c1 3 0 4-3 4H6Z" style="fill:#020202"/><path d="m198 107-1-1c-1-1 0-1 1-1 1-1 2-2 1-3l1-3v-5l1-1c2 0 3 1 3 3l-2 4v3c0 2-1 4-4 4Z" style="fill:#010101"/><path d="m202 171 1-4c1-2 1-3-1-3l-3-2v-1l1-1 6 3v3l-1 2c-1 1-1 2 1 3v1l-1 1c-2 0-3-1-3-2ZM103 131h-4c-1-1-2-1-2 1l-1 1-1-2v-2l3-1h8l1-1h2v2l-6 2ZM200 152l-2-1c-2-1-2-2-2-4l2-1 1 2 1 1 1 1 2 2c0 2-1 2-3 3l-3 3c0 1-1 2-2 1v-2l5-5ZM24 44l2 1-1 2c-2 0-2 0-1 2l1 8-1 2-1-2-1-2-1-2c1-2 0-4-1-5-1-2 2-4 4-4ZM115 149l1 3 2 1v2h-2c-1-2-4-2-3-5l-2-2c-1-1-1 0-1 1l-2 1v-3c0-1 0-2 2-1h3c1 1 3 2 2 3ZM178 264l-2 2-2-1-1-2c0-1-1-2-2-1-3 0-3 0-4-2l-2-1v-2h3c1 2 2 3 5 2l2 2 2 3h1ZM175 68l-2-2c0-3 0-3-3-2-1 1-2 0-3-1l-2-2v-2h3c1 2 2 3 5 2l2 2 2 3 1 1-3 1ZM205 78c2-2 0-3-1-4l-1-2 1-3 2-1v2c-1 2 0 3 2 4 1 0 2 1 1 3v1l1 2c0 1 0 2-1 1l-3-2-1-1ZM156 163h-1v1l1 3v2l-2-1c-3-5-3-6 1-10l3-2 2 1-1 2c-2 0-2 1-1 3l-2 1ZM21 133l-2-4v-2l4-2 1 1-1 1v5c0 2 1 2 2 3h1l1 1-1 1c-3 1-5-1-5-4ZM118 100c0 2-2 3-4 2v-1c2-2 1-3 1-5l-1-2c-2-1-2-2-1-4l2-1 1 2v2c2 3 2 4 2 7ZM60 241l-3-2-1-1 2-1h2l-1-2v-1c-2-1-2-4 0-5h1l1 2v2c2 1 2 5 1 7l-2 1ZM118 153l1-2 1-4 1-2 4-4h1l1 1-2 2c-2 2-2 3-2 5l-1 4c-1 1-1 2-2 1l-2-1Z" style="fill:#020202"/><path d="m60 43-4-2v-1l2-1c0 1 1 2 2 1l-1-3c-2-2-2-4-1-5l2-1v2l1 2c1 1 2 5 1 7l-2 1Z" style="fill:#030303"/><path d="m197 183 4 2v1l1 4 2 3c1 0 2 1 1 2h-2c-2-1-3-2-3-4 0-3-1-5-4-5v-2l1-1ZM61 138c0-2 2-3 3-3h3l5 5c1 1 2 1 1 2h-2l-5-4-1-1-1 2v1h-1l-2-2Z" style="fill:#020202"/><path d="m10 160-1 5-1 1-1-1v-6c0-1 1-2 3-2 1-1 2 0 2 1l2 2 1 1v2c-2 1-2 0-2-1l-3-2Z" style="fill:#030303"/><path d="M149 146c-2 1-3 0-4-1l-1-2v-3l2-1v2c0 1 1 2 3 2l3 1 2 4v1h-2l-1-2-2-1ZM23 268c0-2 1-3 4-3 2 1 3 0 4-1s1-2 2-1v2c-2 2-3 3-6 3h-1l1 1c1 0 3 0 2 2h-2c-3 0-4-1-4-3ZM27 70h-1l1 1c1 1 3 0 2 2l-2 1c-3-1-5-3-3-5 0-2 1-2 2-2 2 1 4 0 5-1 0-1 1-2 2-1v3l-6 2ZM58 65v1c-2 2-1 3 0 3l2 2-1 2-1-1-4-2v-6l-1-4h2l3 5ZM139 237l5-6c1 0 5 1 6 3l-1 1h-1c-5-2-6-1-6 4v1c0 1 0 2-2 1l-1-1v-3Z" style="fill:#020202"/><path d="m92 93-6-2v-3h2c1 3 4 3 6 2h5l1 1-1 1-7 1Z" style="fill:#030303"/><path d="M182 260v-9l4-3h2v1c-3 2-3 5-3 7l-1 5h-2v-1ZM138 253l1-2 4-5-1-1v-2h2c2 2 2 3 0 5l-3 4 1 2v1l-2 1-2-3ZM60 269l-1 2-1-1-4-3v-6l-1-2 1-2 2 1 1 3c1 1 2 2 0 4-1 1 0 1 1 2l2 2ZM138 55l1-2 3-4v-4l2 1c2 1 2 3 0 4l-3 5 1 1v2h-2l-2-3ZM144 33l5 2 1 2h-4c-2-1-3 0-4 1v4l-1 2-2-2c-1-3 1-6 4-8l1-1ZM188 51l-2 3-1 2c1 3 0 5-1 7l-2 1V53l4-3h1l1 1ZM20 182c-2 2 0 3 2 4v2l2 2c1 0 2 0 1 1l-1 1-3-1-2-2c1-1 0-2-1-3-2-1-2-4-1-5l2-1 1 2ZM135 103c0-2 1-4 3-5h1l1 1-2 3c-1 1-1 2 1 3l2 1 1 3-2 1-1-1-2-2-2-4ZM218 38c0 2-1 3-3 3l-3 1-1 2v2c-1 1-1 0-2-1-2-3 0-5 4-6 2 0 3 0 3-2l2-1v2ZM210 162c0-1 0-2-2-3l-4-2-1-1 2-1c3 0 7 3 7 6l2 4 1 1-2 1c-2-1-3-3-3-5ZM218 236c0 2 0 3-3 3l-2 1c-1 0-2 1-1 2l-1 2c-1 1-2 0-2-1s-2-2-1-3c2-2 3-3 5-3s3 0 3-2l2-1v2ZM188 120c-3 1-1 2 0 4v1h-1l-3-1c-2-1-3-2-1-3l1-1v-1l-2-2v-1h1l4 2 1 2ZM163 57c-3 0-5-2-6-4l-2-3 2-1 2 1 1 3h6v2l-3 2Z" style="fill:#020202"/><path d="M130 262v6c-2 0-2-1-2-2l-1-1c0-2 0-4-2-4l-1-2v-3h2l3 4 1 2Z" style="fill:#030303"/><path d="m45 56-2 1c-2-2-3-1-3 1h-3l-3-3v-2h1c2 2 3 1 5 0 2 0 5 1 5 3ZM126 107l-3-1h-3l-2 1h-1v-2l5-2c1-1 2 0 3 1h2l3 1-2 1-2 1ZM199 121l-3-1c-1-1-1-3 1-4v-2l2-4 2 2v2l-2 3c-1 1-1 1 1 2l1 1-2 1Z" style="fill:#020202"/><path d="m207 144-1 4c-1 1-3 0-4-1v-1l1-1h2l-1-2-2-1-3-2v-2h2l3 2c2 1 3 2 3 4Z" style="fill:#030303"/><path d="m197 191-1 1h-1c-1-2-2-2-3-2h-3c-2 1-4 0-5-1l-1-1 2-1h3l1-1c2 0 8 3 8 5Z" style="fill:#020202"/><path d="m152 65-4-2-2-2v-4h2v3l4 2c1 1 1 0 2-1l2-1v3l-4 2Z" style="fill:#030303"/><path d="m45 254-2 1-1-1c-1-1-2-1-2 1 0 0 0 2-2 2l-2-2-2-2v-2h5c2-1 5 0 6 2v1Z" style="fill:#020202"/><path d="M130 65v5l-2-1-1-2c0-2 0-3-2-4l-2-4 1-1h2l3 4 1 3Z" style="fill:#030303"/><path d="M162 254c-2 0-4-1-5-3l-2-3 1-1 3 1 2 3h2l2-1 1 2c1 1 0 1-1 2h-3ZM10 15l2 1-1 1-2 1 1 2v2l1 2-1 1H8l-2-7 4-3ZM152 263c-2 0-6-3-7-5l1-3 2-1v4l4 2 2-1 2-1v2l-4 3ZM141 127c2 0 3 2 2 3v7l-2 2h-2v-2l1-4v-4c-1-1 0-2 1-2ZM181 9c1 0 2 1 1 2v6c-1 1-2 1-1 2v1l-1 1c-3-1-3-4-2-6l1-1c-1-2 0-5 2-5ZM191 72v1c-1 1 0 1 1 1 1 1 2 1 2 3-1 1-2 0-3-1l-4-1v-3l1-3v-1l1-1 2 5ZM191 270c-1 2 1 2 2 3l1 1-2 1-5-2v-3c1-1 2-1 1-2l-1-2 1-1h2l1 5ZM153 175l5 1h3v2c0 1-2 2-4 1l-2-2-2 1-1 2c-2-1-2-2-2-3l3-2ZM180 218l-3-2 1-2 1-2c-1-2 0-4 2-5h1v6l-1 2v3h-1Z" style="fill:#020202"/><path d="M101 209c-1 1 0 1 1 1l2 2v3l-2 2h-2v-2c2-2 1-3-1-3l-2-2 3-3 1 2Z" style="fill:#030303"/><path d="M112 16c2 0 3 1 3 2-1 2 0 2 1 3 3 1 3 2 2 4l-2 1-1-2v-1l-3-1-1-2v-2l1-2Z" style="fill:#020202"/><path d="m194 38-1 2c-1 1-2 2 0 3l-1 2c-2 0-4-2-3-4l1-1c1-1 2-2 1-4v-2l1-1 1 1 1 4Z" style="fill:#030303"/><path d="M101 11c-1 1 0 1 1 1 1 1 3 1 3 3s-2 3-3 4h-1l-1-1 1-1 1-2-2-1-3-1c0-2 1-3 2-3h1l1 1ZM112 214c2 0 3 1 3 2-1 1 0 2 1 2l2 1c1 1 1 4-1 4h-1l-1-1c1-1 0-2-1-2h-2l-1-3v-1c-1-2 0-2 1-2ZM10 212l2 2-1 1-2 1v1l1 3 1 1-1 2H8l-1-2v-4c-1-2 1-4 3-5ZM198 266l-3-3v-1l1-1c3 1 5 5 5 7 0 1-1 2-2 1l-3 1h-1v-2c0-1 1-2 3-2Z" style="fill:#020202"/><path d="m39 100-2-1c-1-1 0-2 1-2l1-1c-1-3 2-4 2-6h2v2l-2 5v2l-2 1Z" style="fill:#030303"/><path d="m194 235-1 3c-1 1-2 2 0 3l-2 2c-2 0-3-2-2-4l1-2c1-1 2-2 1-3v-3l1-1 1 1 1 4Z" style="fill:#020202"/><path d="M29 97c-1 2-1 3-3 3l-3 2c-2 2-2 2-4 0l-2-2v-1h1c1 1 3 2 4 1l4-3 2-1 1 1ZM76 153c0 1-1 2-2 1-2 0-3-1-3-2l-4-6 1-2 2 2 2 2c1 2 1 4 3 4l1 1Z" style="fill:#030303"/><path d="m30 26-1 3-1-3c0-2-2-3-3-3l-4-2v-2h2l5 3c2 1 2 2 2 4ZM30 225l-1 1c-1 1-1 0-1-1 0-3-2-4-5-5l-2-2v-1h2l5 3 2 2v3Z" style="fill:#020202"/><path d="m104 160 1-4 1-2 1 2v4l-2 2c-1 0-2 1-3-1l-3-2v-1l1-1c2 0 3 1 4 3Z" style="fill:#040404"/><path d="m198 69-3-3v-2h1c3 0 6 4 5 6l-1 1-5 1v-2l3-1ZM190 81l1 1 1 1c1 1 2 2 3 1l3-1 2 1-1 1-4 2h-2l-4-3v-2l1-1ZM88 160l-1 2c-1 1-2 1-2 3h-1l-2-1c-1-1 0-2 1-3 2-1 2-1 1-3-1 0-3 0-2-2h3c1 1 3 2 3 4Z" style="fill:#020202"/><path d="m189 148-3-2v-2h2c2 1 7-1 8-2s1-2 2-1v2l-2 1-6 3-1 1ZM139 208l1-3c1-2 1-3-1-4-1-1-2-2-1-3l2-1 1 2 2 2v4l-2 3-1 1-1-1ZM123 130l-2 1-2-2-4-5c-1 0-2-1-2-3v-1h2c0 2 2 3 3 3l2 3 2 3 1 1Z" style="fill:#030303"/><path d="M17 268c0-1-1-2 1-2l1 1 7 7 1 1v1h-2l-4-3-3-3-1-2ZM117 246v2l-2 1-1-2c1-2 0-2-2-3-1 0-2-1-1-2l2-3h1l1 1c-1 1-1 2 1 3l1 3Z" style="fill:#020202"/><path d="M137 25c1-2-1-3-2-5v-2l2-1c1 0 2 1 1 2l1 2c2 1 2 2 1 3l-1 1v2c-2 0-2 0-2-2-1 0 0 0 0 0Z" style="fill:#030303"/><path d="m17 69 1-1 1 1 7 7 1 2h-2l-7-5-1-4ZM210 99v-1l1-1 2 1c0 1 0 2 1 1h1c2 1 4 5 4 7l-1 1-1-1-1-1c-1-2-1-3-4-3-1 1-2-1-2-3ZM175 137l2-2v-4l2 1 1 1c1 2 1 3-1 4-2 0-2 1 0 2v2h-2l-2-4Z" style="fill:#020202"/><path d="M136 223c2-2 0-4-1-5 0-1-1-2 1-3h2v1l1 3c2 1 2 1 1 3l-1 1v2l-2-1-1-1Z" style="fill:#030303"/><path d="m179 176-1 1-3-2c-1-2-3-2-4 0l-1 1-1-2c3-5 3-5 7-2l2 3 1 1Z" style="fill:#020202"/><path d="m117 140-1 1 1 1 1-1h2v2h-1c-1 1-1 2-3 2l-2-3-2-3v-2h2l1 1 2 2Z" style="fill:#030303"/><path d="m45 186-2-1-3-3c-1-1-2-2 0-4l1-1h2v2c-1 1 0 1 1 2l2 3 1 1-2 1Z" style="fill:#020202"/><path d="m32 37-1 1h-2l-4-5-2-3v-2h1c2 0 3 1 3 2l4 6 1 1Z" style="fill:#030303"/><path d="M114 49c1-2 0-2-2-3-1 0-2-1-1-2l1-3h2l1 2v2c2 1 3 3 1 5l-1 1-1-2Z" style="fill:#020202"/><path d="m159 41-2 4h-2v-7l-1-4h2l3 7ZM175 148l-2-1c-2-1-2-3-1-5l2-1 1 2c-1 2-1 2 1 3s3 2 1 4l-1 1-2 1v-2l1-2ZM135 251l-1 2-1-1-2-5-1-1h-2l1-2 2-1 2 2 2 6Z" style="fill:#030303"/><path d="M84 117c0 2 0 3-2 3-1 1-2 1-1 2l-2 2h-2v-3c0-2 0-3 2-3s3 0 3-2l1-1 1 2Z" style="fill:#020202"/><path d="m24 226 3 2 4 6 1 1c-1 1-2 2-3 1-1-3-4-4-4-7l-2-2v-1h1Z" style="fill:#030303"/><path d="m13 90-1 2-2 1-1 1c1 1 1 2-1 2l-2-2c-1-1 0-2 1-2v-1c2 0 3-1 3-3l1-2 1 1 1 3ZM73 173h-1l-2-1 1-1c1 0 2-1 1-2l2-2h4l1 2-1 1c-1-1-2 0-2 1 0 2-2 2-3 2Z" style="fill:#020202"/><path d="M215 12c-1 1-1 2-2 1h-5l-6-1v-1c1-1 3-2 5-1h3l5 2Z" style="fill:#030303"/><path d="m167 199 1 3v2h-1c-1-1-2-1-2-3v-2c0-2-1-2-2-1h-2v-2c1-1 2-2 4-1l2 2v2Z" style="fill:#020202"/><path d="M133 39c-4 0-7-5-5-8 0-1 1-2 2-1v2c0 2 1 4 4 4 0 0 2 0 1 1 0 2-1 2-2 2Z" style="fill:#030303"/><path d="m159 239-2 4h-2v-1c2-2 1-5-1-7v-3l1-1 1 1 3 6v1Z" style="fill:#040404"/><path d="m205 207 7 1 2 1 1 2h-8c-1-2-2-1-3-1h-2v-1l3-2ZM191 110c-1 0-2 0-1-1v-2l-2-3v-2l1-1c2 0 3 2 3 3-1 1 0 2 1 2l1 2-3 2Z" style="fill:#030303"/><path d="m70 81-1 1h-2c0-2-1-2-2-2l-4-2v-3l2-1 1 2c-1 1 0 1 1 1 3 1 5 2 5 4Z" style="fill:#020202"/><path d="M31 191v1c-1 2 0 3 2 3l2 2 1 2h-2l-5-3c-2-1-2-2-1-3l3-2ZM127 231l1-3h2v1c0 3 1 5 4 5l1 1v1c-3 1-8-2-8-5Z" style="fill:#030303"/><path d="M78 249c0 2-1 3-4 2l-2-1h-3v-2h1c2 0 3 0 5-2l2-1v4ZM46 94l1-5c0-2 1-2 2-1 1 0 2 1 1 2v3c-1 1-2 1-1 3l-1 1-2-1v-2ZM78 51c0 2-1 3-4 2h-2l-3-1v-2h1c2 1 4 0 5-2l1-1 1 1 1 3Z" style="fill:#020202"/><path d="m145 226-1-4 1-1h1c2 2 3 3 2 5-1 1 0 2 1 2l2 1v2c-3 0-6-2-6-5Z" style="fill:#030303"/><path d="M163 102v-1l1-1 1 1c0 2 1 2 2 2l2 2 2 2 1 2h-2l-2-1-4-3-1-3Z" style="fill:#040404"/><path d="m206 114-1-1c0-1-2-2 0-3 1-1 1 0 2 1l2 2c1 1 1 3-1 4l-4 1h-2l1-2 2-1 1-1Z" style="fill:#030303"/><path d="m171 11 1-5 2-2 2 1-1 1v6l-1 1-1 1-2-3Z" style="fill:#020202"/><path d="m145 28-1-3 1-2h1c2 2 3 3 2 5-1 1 0 2 1 2l2 1v1l-1 1c-2 0-5-2-5-5ZM20 236l-1-6-1-1v-1l1-1c2 1 3 2 3 4v7h-2v-2Z" style="fill:#030303"/><path d="m135 53-1 2-1-1-2-5h-1l-2-1 1-2h3c2 2 2 5 3 7ZM171 209l1-5c-1-1 1-2 2-2l2 1-1 1v6c0 1-2 2-3 1l-1-2Z" style="fill:#020202"/><path d="m152 45-1 2h-2v-4l-3-1h-1l-1-1c-1-1 0-1 1-2 3-1 7 2 7 6Z" style="fill:#030303"/><path d="m22 33 1 4-1 3-1 1-1-1c1-3-1-5-1-7 1-1 0-1-1-2v-1h1c2 0 3 1 3 3Z" style="fill:#020202"/><path d="m68 133-2-1h-4c-1 1-1 2-2 1v-2c1-2 5-3 7-1h2l1 1-1 1-1 1ZM95 52l-3-1-1-1c-2 1-3 0-4-1l-1-2h1c3 0 5-1 7 2l2 1 1 1-2 1ZM23 263l-6-2-1-2v-4h2l1 2c0 2 1 4 4 4l2 1-2 1ZM180 87s-2 0-2-2l2-1c3-1 3-1 3-3s1-2 2-3h1v4c0 2-3 5-6 5Z" style="fill:#030303"/><path d="m179 100-1 2-2-1c0-2-2-2-3-1s-4 0-4-2v-1h1l3-1h1l5 4Z" style="fill:#020202"/><path d="M16 61v-4h1l2 2c0 3 1 4 4 4h1l1 1-1 1c-2 1-7-1-7-2l-1-2Z" style="fill:#030303"/><path d="M100 165c0 2 0 2 1 1l2 1-1 2c-2 1-3 2-4 1h-1v-6l1-2 2 2v1Z" style="fill:#020202"/><path d="M68 201h1v2c-1 1-1 1 1 2l2 2-2 3-2-1-1-2-2-4 3-2ZM149 85l1-1h1l1 3-4 3c-2 1-3 0-5-1v-1l2-1h3l1-2ZM197 251l1 2c1 1 1 2-1 2l-3-1v-2c1-2 0-2-1-3s-3-1-2-2c1-2 2-1 3 0 2 1 3 2 3 4ZM152 243l-2 2-2-1 1-1v-2c-1-1-1-2-3-2l-1 1-1-1v-1l3-1c3 1 5 3 5 6Z" style="fill:#030303"/><path d="M13 150c-2-2 0-4-1-7v-2l2 1 1 4v6h-2v-2ZM51 232l-1-1c-1-2 0-3 1-4l2 1v3c1 2 1 3-1 5h-3v-3l2-1ZM68 3l1 1v1c-2 1-1 2 1 2 2 1 2 3 0 5l-2-1-1-2c-2-1-2-2-2-4l3-2Z" style="fill:#020202"/><path d="m62 21-6-3v-2h2c2 2 5 2 8 2l1 1-1 1-4 1ZM14 35l1 2 1 3-1 1-1-1-2-3v-4l2-1 2 2-2 1ZM95 250l-8-4-1-1 2-1 4 1c2 0 3 2 5 3 1 1-1 2-2 2ZM116 231l2 1c0 2 1 2 2 1l1-1v2l-1 3-2 1-1-1-2-4 1-2ZM82 85v-1c-2-2-1-4 1-5 1-1 1-2 2-1 2 0 1 2 0 3l-1 3c1 1 0 3-1 3h-1v-2Z" style="fill:#030303"/><path d="M49 36c2-1 1-3 1-4-1-1 0-2 1-2h2v1l1 3c0 2-1 4-3 4s-2-1-2-2Z" style="fill:#020202"/><path d="M196 57c-1 0-3-1-2-2 1-2 0-3-1-4l-1-1-1-1 2-1c2 1 4 3 4 5v2l1 1-2 1ZM168 174l-2 4h-2v-2c1-2 1-2-2-3l-2-1 1-2h2l2 2c2 0 2 1 2 2ZM14 233c1 2 3 3 2 5l-1 1-1-1-2-3c-1-1-1-4 1-5h1l2 2-2 1Z" style="fill:#030303"/><path d="M54 98c0 3-2 4-5 4l-3 2h-2c0-2 1-4 3-4h1c2 0 3-1 3-2l1-1 2 1ZM46 268l2-3v-2l-1-1v-2l2 1 2 2v3l-3 2-1 2-1-2ZM48 62l1 1 3 3-1 2-3 3h-1v-3c1-1 2-2 0-3v-2l1-1Z" style="fill:#020202"/><path d="M95 188c0 2-1 3-3 4h-4v-2h1c2-1 3-2 3-4v-1h2l1 3Z" style="fill:#040404"/><path d="M117 34c1 2 1 2 3 1h2l-1 1-2 4-1 1-1-1-2-5 1-2 1 1ZM11 256h-1l-6-7v-2h2l6 7-1 2ZM184 268l-1 3-1 4-1 1c-1 0-3-1-2-2 1-2 0-5 3-7l2-1v2Z" style="fill:#030303"/><path d="M62 219c-3 0-4-2-6-3v-2h2c2 2 5 2 8 2l1 1-1 1-4 1ZM41 238h-2l1-2 1-3 4-3 2 1-2 1-1 2c0 3-1 4-3 4ZM183 69c1 0 2 0 1 1l-2 7c0 1 0 2-2 1-1 0-2-1-1-2l1-4c-1-1 2-3 3-3Z" style="fill:#020202"/><path d="m169 55 1-2 2 1h1c3 1 4 2 5 4v2h-2c-1-2-3-3-5-3l-2-2Z" style="fill:#040404"/><path d="M93 27v1c1 3-1 5-3 7h-1v-2c1-2 2-3 1-6v-1l2-1 1 2Z" style="fill:#030303"/><path d="M106 107c-2 1-4 0-5-2v-1l2-1c2 2 4 2 7 2l1 1-1 1h-4Z" style="fill:#050505"/><path d="M93 225v1c1 2-1 4-2 6l-2 1v-2c1-2 2-4 1-6v-1l2-2 1 3ZM19 157v1l-1 1h-1c-1-2 0-5 1-6l3 1 2 3c1 1 0 1-1 1l-3-1ZM207 137c1-1 0-3 2-3l1 2c0 1 0 2-2 3h-2c-1 0-2-1-2-3l1-3 2-1v5ZM41 41l-2-1 1-1c1-1 2-2 1-3 0-2 3-4 4-4l2 2-1 1c-2 0-2 1-2 2 0 2-1 4-3 4Z" style="fill:#030303"/><path d="m32 3 2 1-1 1-4 2-5 1-1-1V6l9-3Z" style="fill:#040404"/><path d="M218 182c-1 2 0 3 1 4l-1 1h-1l-2-3-1-3-2-2 1-1h1l3 2 1 2ZM12 57l-1 1h-1l-6-7v-2c1-1 2 0 2 1l5 5 1 2Z" style="fill:#030303"/><path d="M10 195v-3l2 1 1 1c1 1 1 3-1 4l-1 2-1 1-2-1 1-3 1-2ZM170 252l1-1 5 2 2 3v2h-2l-1-1c0-2-1-3-3-2-1 0-3-1-3-3h1ZM21 196l-1 2c-1 1-2 2-1 3v2h-2l-1-1c0-2-1-4 1-5l1-1v-2c2-1 2 1 3 2Z" style="fill:#020202"/><path d="m17 210-1 2-2-1-2-2c-2 0-3-1-3-3l1-2 1 1 3 2 3 3ZM56 112v-1l2-1 1 1c-1 2 0 3 1 4l3 2v2h-2l-3-2-2-5Z" style="fill:#030303"/><path d="m116 177-1-4 3-4 2 1-1 1-1 4v4h-1l-1-2Z" style="fill:#040404"/><path d="M7 98h2c1 1 1 0 2-1h2v2c-2 2-2 2-5 1l-3 1-2-1 2-2h2Z" style="fill:#030303"/><path d="M181 90c-2 2 0 3 1 4l1 3-1 1h-1l-4-4v-2c1-1 1-3 3-3l1 1Z" style="fill:#020202"/><path d="m40 86-2 3-1 1-1-2c1-2 1-3-1-4-1-1 0-3 1-3h2l1 4 1 1ZM115 198l1 1 3 2 4 1 1 2c0 1-1 2-2 1l-5-2c-2-1-3-2-3-4l1-1ZM88 123l1 2v2h-2l-2-2c-1-2-1-3 1-4h4l1 2-2 1-1-1Z" style="fill:#030303"/><path d="m139 148 1-3 1 2 2 2c1 1 2 2 1 3v2l-1 1-1-1c0-2-2-4-3-5v-1ZM217 156l-1 2-2-2-3-3c-1 0-2-1-2-3l2-1 1 1 2 2c2 1 3 2 3 4ZM101 62v-1l2-1 1 1c-1 2 0 2 1 3l3 3v1l-1 1c-2-1-6-5-6-7Z" style="fill:#040404"/><path d="M104 259c-1 2 0 3 2 4l2 1v2h-2l-5-5 1-3h1l1 1ZM17 13l-1 1-2-1-2-2c-2 0-3-1-3-3l1-2 1 1c1 2 2 2 3 2 2 1 3 2 3 4ZM129 137l1 1 4 4 2 2v1h-2l-5-4-1-2 1-2Z" style="fill:#030303"/><path d="m25 206-2-1c-1-1 1-1 2-1l3-2 4-1 2 1c1 1-1 1-1 1l-4 2-4 1ZM88 141l-1 3c1 1 0 1-1 1s-3-2-2-3 1-2-1-3c-1 0-2-1-1-2h2l4 4ZM194 140l-1 1h-1c-1-2-3-2-6-2l-1-1-1-1 2-1 5 1 3 3Z" style="fill:#040404"/><path d="m187 87 1 1 2 2c1 2 0 2-1 3l-2 2-1 1-1-1 1-1v-6l1-1Z" style="fill:#030303"/><path d="m95 173 3 2 2 5-1 2-1-1-2-3-2-2-2-1 2-2h1Z" style="fill:#040404"/><path d="m30 111 1 1v2l-2-1-2-1-2-2 1-2h5l1 2-2 1ZM197 131l-1 2-1 2v1h-1c-2-1-2-2-2-3l1-2 1-1v-3l2 1 1 3ZM173 199l-3-2-1-5v-1h2l2 4c0 1 0 2 1 1l2 2-3 1Z" style="fill:#030303"/><path d="m150 195-5 1-2-1v-2h11l-1 2h-3Z" style="fill:#050505"/><path d="M151 103c0-3 1-5 4-6h1v2c-2 1-3 3-2 5l-1 1-2 1v-3ZM71 88l-2 3-3 3h-2v-1l1-1 2-4 3-2 1 2ZM15 129c0 2-1 3-2 2H8l-2-2v-1h2l2 1 2-1c0-1 0-2 1-1l2 2Z" style="fill:#030303"/><path d="m206 129-1 1c-2 0-3 0-3 2l-2 3h-1v-4c0-2 1-3 5-3l2 1Z" style="fill:#040404"/><path d="m99 153 2 1-1 1-7 3h-2v-2c3-1 5-3 8-3ZM46 80l4-5h1v1l-1 2c-1 2-2 3 0 4l-1 2-2-1-1-3ZM181 112l-1 2-1-2-1-2c-2 0-2-2-3-3v-1c0-1 1-2 2-1l1 1 2 3 1 3Z" style="fill:#030303"/><path d="M152 215c0 1 0 2-1 1-2-1-2 0-3 1h-4c-1 0-2 0-1-1l1-1 4-1 3-1 1 2Z" style="fill:#040404"/><path d="M54 217v2l-2-1-1-3c-2-1-1-3-1-5l1-1 1 1 2 7Z" style="fill:#020202"/><path d="m191 155 1 2h-1c-2 2-2 3 1 5v1h-3l-2-3c0-2 1-4 3-5h1Z" style="fill:#030303"/><path d="m31 142 2 1c0 2 1 4 3 5l1 2h-2c-3-1-5-4-5-7l1-1Z" style="fill:#040404"/><path d="m209 94-2-1-2-4v-2h2l2 4h1s2 1 1 2l-2 1ZM86 149l2 1 3 2 1 2h-2l-3-1c0-1 0-2-1-1l-2 1-1-2 1-1 2-1ZM16 44l1 1-1 1-2 2v2l-1 2c-1 1-1 0-2-1-1-4 1-6 4-7h1ZM53 244c0 2-2 5-3 5-1 1-2 0-2-1l1-1c1-2 2-3 1-5l2-2 1 2v2ZM166 187c-2 0-2 0-2-2 1-1 0-1-1-1l-1-2 2-2 1 1c0 2 1 2 2 3l1 1c1 2 0 2-2 2Z" style="fill:#030303"/><path d="M50 15v-3l1-1 1 1 3 7-1 2-2-1-1-2-1-3Z" style="fill:#040404"/><path d="M62 260c2 0 2 1 2 2 0 2 1 2 2 1h2v1l-3 2c-1 1-2 0-3-1l-1-3 1-2ZM11 247c0-2 2-5 4-6l2 1c1 1 0 1-1 2l-2 1v3l-1 2-2-1v-2ZM145 17c1 1 2 0 2-1 2-1 4-1 5 1v1h-2c-1-1-1 0-2 1l-4 1c-1-1-2-1-1-2l2-1ZM73 219l-1-2c-2 0-2-1-2-3v-1h2c0 2 2 2 3 3v4l-2 1v-2ZM105 43l4-5v1l1 2c-2 1-3 3-1 4v2h-2l-2-4ZM217 127c0 2-2 4-4 5l-3-1v-3h2c2 2 2 0 2-1l2-1 1 1ZM105 241c0-2 2-3 3-5l2 1-1 2c-1 1-2 2 0 4v2c-1 1-2 0-2-1-1 0-2-1-2-3ZM98 66h1c1 0 2 1 1 2l-1 1c-2 0-3 0-3 2v1h-2l-1-2c0-1 3-4 5-4Z" style="fill:#030303"/><path d="m73 21-1-1-3-4 1-1h2c0 2 2 2 3 3v4l-1 1-1-2Z" style="fill:#040404"/><path d="M163 116c-1 2 0 2 1 3l1 1v2h-2v-1c-3-2-4-4-3-6l1-1 2 1v1Z" style="fill:#030303"/><path d="M187 110h1l5 4c1 1 2 2 1 3l-3-1-2-1-4-4c-1-1 1-1 2-1Z" style="fill:#040404"/><path d="m69 195 2-5h2v3c-1 1-2 2 0 4v1h-1c-2 0-3-1-3-3Z" style="fill:#030303"/><path d="M31 166v1l-2 2v-2c0-1 0-2-2-2l-3-2 1-1h1l3 1c2 0 2 1 2 3Z" style="fill:#040404"/><path d="M197 163c1 0 3 3 2 4s-2 2-1 3 0 1-1 1c-2 0-3-2-2-4l1-2c-1-1 0-2 1-2Z" style="fill:#030303"/><path d="M99 266c-2 0-2 1-3 2 0 1 1 2-1 2l-2-1 2-4c2-1 3-2 5-1v2h-1Z" style="fill:#020202"/><path d="M146 75c-3 0-6-3-7-5l1-2 2 1c1 2 2 4 4 4l1 1-1 1Z" style="fill:#030303"/><path d="m69 123 7 4v1l-1 1-4-2c-1-1-2-2-3-1h-1v-2l2-1Z" style="fill:#040404"/><path d="M39 171c-1 0-5-3-5-5l1-1 2 1 3 2 2 1-2 2h-1ZM85 212c-3 0-4-2-3-4v-1l2 1h6c1 1-1 1-1 2l-4 2ZM105 274l-5-4 1-1h1c2 1 3 2 5 1l2 1-1 2-3 1Z" style="fill:#030303"/><path d="M216 51v2c-1 1-2 2-1 3l-1 1c-2 0-3-2-2-3 1-2 2-3 1-5l1-1 1 1 1 2Z" style="fill:#040404"/><path d="M53 46c1 2-1 4-3 5h-1l-1-1 1-2 2-4v-2c2 0 2 1 2 2v2ZM216 249v2c-1 1-2 1-1 3l-1 1c-2 0-3-2-2-4 1-1 2-2 1-4l2-1 1 3Z" style="fill:#030303"/><path d="M84 14c-1 0-3-2-2-4h2c1 2 1 1 2 0l3-1 1 1-1 1c-1 1-3 3-5 3Z" style="fill:#020202"/><path d="M110 89c0 2-5 6-6 7l-2-1 1-1c1-1 3-3 3-5l3-1 1 1Z" style="fill:#040404"/><path d="M62 91c-1-1-2-1-1-2v-3l-1-3 1-1 2 1 1 3c2 1 1 2 0 3l-2 2Z" style="fill:#020202"/><path d="M163 31h-5c-1 1-3-1-3-2l2-1h2c2-1 4 0 5 1l1 1-2 1ZM163 228l-4 1c-1 1-3-1-4-2v-1h4c2-1 4-1 5 1l1 1h-2Z" style="fill:#030303"/><path d="M195 207c0-2 1-3 2-3l2-2 1-1 1 1c1 1 0 3-1 3-1 1-2 1-2 3l-1 1-2-1v-1Z" style="fill:#050505"/><path d="M45 110c-2 0-4-2-5-4l1-1h1l1 2 3 1 2-1 1 1-1 1-3 1Z" style="fill:#040404"/><path d="M98 255h-5l-2-1 1-2 2-1 5 2 1 1-2 1Z" style="fill:#020202"/><path d="M98 57h-4l-2-1v-1c1-1 1-2 2-1l5 1 1 1-2 1ZM145 273c-2 0-5-3-6-5l1-2c1-1 2 0 2 1l4 4 1 1-2 1ZM106 75c-2 0-4 0-6-2v-2h2l1 1h5l1 2-2 1h-1ZM65 66l2-1 1 1v1h-1c-3 2-4 2-5-1v-3h2l1 3ZM97 112c0-1-2-1-1-2v-1l-1-4 1-1 1 1 2 3c1 1 2 1 1 2l-3 2Z" style="fill:#030303"/><path d="m120 137-2-1 1-1c1-1 2-2 4-1l2-1 2-1v2l-4 2-3 1Z" style="fill:#050505"/><path d="m108 120-3 5-2 1v-2l3-6h1l1 2Z" style="fill:#020202"/><path d="m26 171-1 2-1-2-3-4c-1 0-2-1-1-2h2c3 1 4 3 4 6Z" style="fill:#030303"/><path d="m195 9 2-3 2-2 1-1 1 1c1 1 0 3-2 4l-1 1-1 2c-2 0-2-1-2-2Z" style="fill:#040404"/><path d="m30 175 1 1-1 1c-2 0-2 1-1 2v1c1 0 2 1 1 2s-2 0-3-1-2-2-1-4 2-2 4-2ZM57 196l-1 2-2-1h-2l-3-2v-2c1-1 2 0 2 1h3c1 0 3 0 3 2ZM77 114v2l-1 2c0 1-1 2-2 1s-2-3-1-4 2-1 1-2l1-2 1 1 1 2ZM124 248c3 0 5 1 6 4l-1 2-1-1c-1-2-3-3-5-3l-2-1 2-1h1ZM77 146l-2-1 1-1c2-1 1-2 1-4v-2c2-1 2 1 2 2l1 1c1 3-1 5-3 5ZM98 42l-1 2-2-1c0-2-2-3-4-3l-1-1 1-1 5 1 2 3Z" style="fill:#030303"/><path d="M141 117v-2l1-1 2 2c-1 1 0 3 1 4v1c1 1 0 2-1 2l-1-1-1-2-1-3Z" style="fill:#050505"/><path d="m46 142-1 1-4 2-2 1h-1v-2l3-3h5v1Z" style="fill:#040404"/><path d="M154 22v2l1-1h3c1 2-1 2-1 2-2 1-3 2-4 1l-2-3 1-1c0-1 0-2 1-1l1 1ZM13 102l1 1 5 4 1 1v1l-1 1-6-5-1-1 1-2Z" style="fill:#030303"/><path d="M178 114c0 1-2 4-4 4l-1-1v-1c2-1 2-2 1-4-1 0-2-1-1-2l3 1 2 3ZM154 220v1h3l1 1-4 2c-2 0-2-1-3-2l1-3 1-1 1 2Z" style="fill:#040404"/><path d="m93 236 3 1 2 2v2h-3c0-2-2-3-3-3l-2-1 2-1h1Z" style="fill:#030303"/><path d="m170 158 1 2c2 1 1 3-1 4l-1-1-1-3v-3l2-1v2Z" style="fill:#040404"/><path d="m72 241-1 1h-6c-1-1 0-1 1-2l1-1c0-1 1-2 2-1 2 0 3 2 3 3Z" style="fill:#030303"/><path d="m11 138-2-1-1-1 2-1h4l2-1 2 2h-1l-6 2Z" style="fill:#050505"/><path d="m90 166 1-3h1c1 0 2 1 1 2s0 2 1 3v1c1 1 0 2-1 2l-1-1-2-2v-2ZM34 120l1-6 2-1 1 1v4l-2 3-1 1-1-2ZM124 50c3 0 4 1 5 4v2l-2-1-4-2-2-2 2-1h1Z" style="fill:#030303"/><path d="m164 163 5 3v1h-2l-3-1h-2l-1 1-1-2 4-2Z" style="fill:#040404"/><path d="m79 209-1 1v5c-2 0-3-1-3-2l-1-2 3-3 1-1 1 2ZM69 40c2 0 3 2 3 4h-7l1-2c1-2 2-2 3-2Z" style="fill:#030303"/><path d="m67 102-2-1-1-1 1-1 2-1 2-2 2 1-1 1-2 3-1 1ZM30 132c-2 0-3 0-4-2l-1-1h7l2 1-1 2h-3Z" style="fill:#050505"/><path d="m138 92 6 3v2h-1l-6-3-1-1 2-1Z" style="fill:#030303"/><path d="m162 43 2 1c-1 1 0 2 2 2 1 0 2 1 1 2l-1 1c-2 1-6-3-5-5l1-1Z" style="fill:#040404"/><path d="m204 230 2 1 2 5-1 1-2-1v-2l-1-1-2-1 2-2ZM35 158c3 0 4 1 6 3v1h-1l-2-1-5-1-1-1 1-1h2Z" style="fill:#030303"/><path d="M13 187c0 1-1 2-3 2-1 1-2-1-2-2v-4l2 1c0 1 0 2 2 1l1 2Z" style="fill:#050505"/><path d="M35 34c-1 0-2 0-3-2 0-1-1-3 1-4h2v2c-1 1-1 1 1 2l1 1-2 1ZM156 147l1-1v-4h1c2 1 3 3 1 5v1l-1 2-1-1-1-2Z" style="fill:#030303"/><path d="m117 212-2-1 1-1c2 0 2-1 1-2v-2l2 1c1 0 2 2 1 3l-3 2Z" style="fill:#040404"/><path d="M161 243v-2l2-1 1 2c-1 1 0 2 2 2 1 0 2 1 1 2 0 2-1 1-2 1-3-1-4-2-4-4ZM175 40l-2 2-4 1-2-1 1-1 6-3 1 2Z" style="fill:#030303"/><path d="m79 11-1 1v5c-2 0-2-1-3-2l-1-2 3-3 1-1 1 2Z" style="fill:#020202"/><path d="m204 32 2 2 2 4v1l-3-1v-1l-1-2-2-1 2-2Z" style="fill:#030303"/><path d="m12 119 2-2 1-2 1 2-2 4h-3l-1-2h2Z" style="fill:#040404"/><path d="m10 62 2 1 2 5-1 1h-1l-1-2c0-2-1-3-2-3v-2h1Z" style="fill:#030303"/><path d="M35 232c-2 0-4-3-3-5l2-1h1v1c-1 2-1 2 1 2l1 2-2 1Z" style="fill:#040404"/><path d="M183 172c-2 1-3-1-3-2v-4l1-1 1 1c-1 2 0 4 2 4l1 1-2 1Z" style="fill:#030303"/><path d="M81 169h3l4 2v2h-1l-5-1-2-1v-1l1-1Z" style="fill:#040404"/><path d="m121 12-2 2h-4v-1l1-1c2 0 2-1 1-2V8h2l2 4ZM60 145l2-1 2 1-1 1-2 1c-3 0-4-1-3-3 0-1 0-2 2-2v3Z" style="fill:#050505"/><path d="M111 135v4l-2 1-2-3v-3l1-2 1 1 2 2ZM42 163c3 0 5 2 6 4v1h-1l-3-2-2-1-2-1 2-1Z" style="fill:#040404"/><path d="m70 115-1 2-1-1h-2l-3-2v-2h2l2 1c2 0 3 1 3 2Z" style="fill:#020202"/><path d="m40 77 1-3h2v7h-1l-2-4Z" style="fill:#030303"/><path d="m168 241-1-1 1-2h2l3-1 2-1v3h-2l-5 2ZM63 194l-4-3 1-1 3 1h2l2 1-1 1-3 1ZM110 176l1-1 1-1 1 1v1l2 4-1 1h-1c-2-1-2-3-3-5Z" style="fill:#040404"/><path d="M103 6c3 0 6 3 5 5l-2 1-1-2-2-2c-1 0-2 0-1-1l1-1Z" style="fill:#050505"/><path d="M10 260c1-1 2 0 2 1l2 4-1 2-1-1-1-2-2-2v-2h1Z" style="fill:#030303"/><path d="M103 203c3 1 6 4 5 6l-2 1-1-2-2-2c-1 0-2 0-1-1l1-2Z" style="fill:#050505"/><path d="m110 189-2 1-1-1-3-6v-1h1l2 2 3 4v1Z" style="fill:#030303"/><path d="M103 175h-2l1-2 1-1 4 4-1 2-1-1-2-2Z" style="fill:#050505"/><path d="m158 107-1 3 1 2v2h-2l-1-2v-5l2-1 1 1Z" style="fill:#030303"/><path d="m77 151 1-2 3-2h1v1l-1 2-1 2v1h-1l-2-2Z" style="fill:#040404"/><path d="M168 141h-2l-5-2-1-2h2l5 2 1 2ZM132 199l-3-3 1-2 2 1h4v2l-4 1Z" style="fill:#050505"/><path d="M56 82c-2 0-3-2-3-4l3-3h1v1l-1 2 1 2 1 1-2 1Z" style="fill:#030303"/><path d="M115 276c-2 0-3 0-3-2v-1h7c1 1 0 1-1 2l-3 1Z" style="fill:#040404"/><path d="M209 186c-2 0-4-1-4-3v-1h2c1 1 2 2 3 1l2 1-1 2h-2Z" style="fill:#050505"/><path d="M90 78c2 0 4 2 3 3v1h-2c-1-1-1-2-2 0h-1l-1-1 3-3ZM93 9l-2-1-1-1 1-2h2l2 1h1l1 1-1 1-3 1Z" style="fill:#030303"/><path d="M93 206h-2c-2-1-2-2-1-3h2l3 1c1-1 2 0 2 1l-2 1h-2Z" style="fill:#040404"/><path d="M214 65c1 2 2 3 4 3l1 1 1 2h-2l-3-1c-3-1-3-2-1-5ZM199 127l-6-3v-1l1-1 7 3v1l-2 1Z" style="fill:#050505"/><path d="m67 156 4 2v2l-2-1h-3l-1 1-1-2 3-2ZM34 85l-3 3h-1v-8l2 1 2 4Z" style="fill:#040404"/><path d="m52 104 3 3v2l-2 1v-1c0-2-1-3-2-3s-2 0-1-1l2-1Z" style="fill:#050505"/><path d="M79 103h-2v-1l3-2 4 2 1 2h-2l-4-1ZM15 174c0-2 1-3 3-3l3 2-1 2-1-1c-1-1-2-1-2 1l-1 1-1-2Z" style="fill:#040404"/><path d="m156 133 2 1c1 1 0 1-1 1l-1 2v2h-2c0-1-2-2-1-3l3-3Z" style="fill:#050505"/><path d="M115 78c-2 1-3 0-3-1v-2h2c1 2 2 1 3 0h2c1 1 0 1-1 2 0 1-2 2-3 1Z" style="fill:#040404"/><path d="M111 82c0-1 1-2 2-1 2 1 2 3 3 5l-2 1h-1l-2-5Z" style="fill:#050505"/><path d="m98 192 1 1 3 3 1 2h-3c-1-1-3-2-3-4l1-2ZM84 52c0 2-2 4-3 3l-1-1v-1c2 0 1-1 0-1v-2h2l2 2ZM41 132c0-1 1-2 3-2v2c-1 1 0 1 1 2l1 2h-3l-2-4ZM137 261c-2 0-5-3-5-5h2l1 1 2 1h2l-1 2-1 1Z" style="fill:#040404"/><path d="m164 147 1-2c1-1 1 1 1 1h4l-1 2v1c-1 1-1 2-3 1l-2-3ZM137 63c-2 0-5-3-5-4l1-1 2 1 2 1c1 0 2-1 2 1l-2 2Z" style="fill:#030303"/><path d="m164 156-4-2c0-2 1-2 2-3l1-1 1 2v2l2 1-2 1Z" style="fill:#040404"/><path d="m81 253-1-1 1-1v-1l-1-1v-1l2-1c1 1 3 3 2 4 0 1-1 2-3 2ZM149 183l-1 6h-1l-1-2 1-5 1-1 1 1v1Z" style="fill:#050505"/><path d="m61 108-3-2v-1l1-1h4l2 1-1 2-3 1ZM83 191c1 0 5 5 4 6l-1 1-4-5 1-2Z" style="fill:#040404"/><path d="m104 33-2-1 1-2 4-1 3 2-1 1-5 1Z" style="fill:#030303"/><path d="M66 163c0 1-1 2-2 1l-3-1-2-1v-2h2l3 1 2 2ZM214 263l4 3 2 2-3 1-2-1c-3-1-3-2-1-5Z" style="fill:#040404"/><path d="M161 100c0 2 0 3-2 3h-1v-6h2l1 3Z" style="fill:#050505"/><path d="m160 88-1 1c-1 1-2 2-1 4l-1 1-2-2v-2l3-2 1-1 1 1Z" style="fill:#030303"/><path d="m138 73 1 1c-1 2 0 3 1 4l1 2h-2c-2 0-3-3-3-5l2-2ZM103 102l-5-2h-1l1-2 7 2v1h-2Z" style="fill:#060606"/><path d="m105 137-1 2h-2v-3c-1 0-2-1-1-2v-1c2 0 4 2 4 4Z" style="fill:#050505"/><path d="m5 42 3 1 1 2H1l1-2 3-1Z" style="fill:#030303"/><path d="m136 274 1-2 1-1 1 2v2l2 1v2h-2l-3-4Z" style="fill:#050505"/><path d="M107 230h-4l-1-1 1-1 4-1 3 1-1 2h-2ZM155 189h-3v-3c1-1 5-1 5 1 1 1 0 2-1 2h-1Z" style="fill:#040404"/><path d="m200 74 1 1v1l-1 3-1 2-2-2 1-4 2-1ZM5 240l3 1 1 2H3l-2-1 1-2h3Z" style="fill:#030303"/><path d="m124 166 4 1v2h-6l-2-1 2-2h2Z" style="fill:#060606"/><path d="m147 151 2 1 3 3v2h-2l-4-5c-1-1 0-1 1-1ZM50 123c2 0 4 2 5 3v1l-1 1-6-2v-2l2-1ZM56 247c0-2 1-3 2-3h1v6h-2l-1-3Z" style="fill:#040404"/><path d="m200 272 1 1v1c-2 1-1 2-1 3l-1 2-2-1 1-5 2-1Z" style="fill:#020202"/><path d="M146 66v1l-2 2-1-2-1-2c-1 0-2-1-1-2h1c3 0 4 1 4 3Z" style="fill:#050505"/><path d="m69 72 5 4-2 1c-1-1-3-3-5-3v-1l2-1Z" style="fill:#040404"/><path d="M26 154h-2l-1-1 1-1 2-1c1-1 1-2 2-1l1 2c1 1 0 2-1 2h-2Z" style="fill:#030303"/><path d="M146 264v1l-2 1-1-1c1-1 0-2-1-2-1-1-2-1-1-2h2c2 0 3 1 3 3Z" style="fill:#040404"/><path d="m126 243-1 2-1-1-3-2h-1v-1c1-1 3-2 4-1l2 3Z" style="fill:#050505"/><path d="M212 36c-1 0-3-1-3-3v-1h5l1 1c-1 2-1 3-3 3Z" style="fill:#040404"/><path d="M123 42c1 0 3 2 3 4l-1 1-1-1c-1-1-2-2-3-1l-1-1v-1l3-1Z" style="fill:#060606"/><path d="m56 49 1-3h2v6h-2l-1-3ZM67 272c0-3 3-3 4-1l2 1 1 2h-3l-4-2ZM212 234c-2-1-3-1-3-3v-1h5l1 1c-1 1-1 3-3 3ZM170 36c0 2-1 3-2 3-2 0-2-1-1-2v-2l-1-2h2c2 1 2 2 2 3ZM57 209c1-2 1-4 3-5l2 1v1l-3 4-1 1-1-2ZM58 13l-1-1c0-2 1-4 3-5h2v1l-2 4-2 1Z" style="fill:#040404"/><path d="m158 201-5-2-1-2h2l2 1 3 1 1 1-2 1Z" style="fill:#060606"/><path d="m52 133-5-2v-2h2l4 1 1 2-2 1Z" style="fill:#040404"/><path d="m3 187 1-2 1 1c1 2 1 4 3 5l-1 1H6c-2-1-3-3-3-5Z" style="fill:#030303"/><path d="m150 166-1 1-1-1-3-3v-2h2l3 4ZM32 214l-1 2-2-1-2-4 1-2c1-1 1 0 2 1l2 4Z" style="fill:#040404"/><path d="m44 150-3 5-3-2 4-4 2 1Z" style="fill:#050505"/><path d="m136 135-2 1-2-1-1-3v-2h1l1 1 3 4Z" style="fill:#060606"/><path d="m170 234-2 3c-1 0-2-1-1-2v-2l-1-2h2c2 1 2 2 2 3Z" style="fill:#040404"/><path d="m27 13 1-2 1 1 3 4-1 2-2-1-2-4ZM121 95c1-1 0-2 2-2l1 2 1 3-1 2-2-1-1-4Z" style="fill:#050505"/><path d="m84 59 2 1v1l-1 1h-3c-1 1-1 2-2 1v-2l4-2ZM27 85l-3-1c-2 0-2-1-2-3l1-1 2 1c0 2 1 1 2 2l2 1-2 1Z" style="fill:#040404"/><path d="m120 164-1 1-1-1-1-3v-2c1-1 1 0 2 1l1 4Z" style="fill:#060606"/><path d="m168 267 5 4-1 1h-1l-4-3v-1l1-1Z" style="fill:#040404"/><path d="m168 69 5 4-1 1-1 1-4-4v-1l1-1Z" style="fill:#030303"/><path d="M109 258v1l-1 2-1-2-2-3v-2h1c2 0 3 2 3 4ZM122 157h1l3 4-1 3-2-1-2-5 1-1Z" style="fill:#040404"/><path d="m24 115-1 2-1-1-4-3v-1l1-1c2 0 5 3 5 4Z" style="fill:#050505"/><path d="m75 176 4 2v1l-2 1-3-1-1-1 2-2ZM160 129c1-1 2 0 3 1 1 0 2 0 1 1l-1 1-5-1-2-1 2-1h2Z" style="fill:#040404"/><path d="m207 125-2-1 1-1 3-2h2c1 1 0 2-1 2l-3 2Z" style="fill:#060606"/><path d="M69 226c-1 0-3 0-4-2l1-1h5l1 1-3 2Z" style="fill:#040404"/><path d="M162 190c0 3 0 4-3 4v-2l1-2v-1l2-1v2Z" style="fill:#060606"/><path d="m146 180-1 1h-2l-2-5 1-2 2 1 2 5Z" style="fill:#040404"/><path d="m69 28-4-2 1-1h5l1 1-3 2ZM109 60v1l-1 2-2-2-1-3v-1l1-1 3 4Z" style="fill:#030303"/><path d="m136 87 1-2 2-1h2v1l-4 4-1-2ZM203 45l3 1v2h-6l1-2 2-1Z" style="fill:#040404"/><path d="M49 178c-2 0-4-2-4-4v-1h2c0 2 1 2 3 3l1 1-2 1ZM210 193l-3-4h2l3 1 1 1-1 1-2 1Z" style="fill:#050505"/><path d="M168 110c-1 2-2 1-3 1l-4-2-1-1 1-1 3 1 4 2Z" style="fill:#060606"/><path d="m7 107-1 2-2-1-2-3v-2h1c2 0 4 3 4 4ZM83 37c-1 0-2 0-2-2l2-3h1l1 3c1 1 0 2-2 2Z" style="fill:#040404"/><path d="m185 243-2 4-1-1v-4l1-2 1 1 1 2Z" style="fill:#050505"/><path d="m84 257 2 2c1 0 1 0 0 0l-6 2v-1c0-1 2-3 4-3Z" style="fill:#030303"/><path d="m150 248 3 3-1 3h-1l-3-5 2-1Z" style="fill:#040404"/><path d="m183 146-2 4h-2v-1l2-4c-1-1 0-1 1-1l1 2Z" style="fill:#060606"/><path d="m203 243 3 1v2h-6l1-2 2-1Z" style="fill:#050505"/><path d="M54 166v3c0 1-1 2-2 1s-2-2-1-3l1-2 1-1 1 2Z" style="fill:#040404"/><path d="m17 143 2-4h2v2l-1 4-1 1-1-1-1-2Z" style="fill:#030303"/><path d="M25 122c0 1 0 2-1 1l-3-1c-1 0-2-1-1-2 0-2 1-2 2-1l2 2c1 0 2 0 1 1ZM185 45l-2 4-1-1v-4l1-1h1l1 2Z" style="fill:#050505"/><path d="m8 110 2 1 2 2 1 2h-2l-4-2v-2l1-1ZM83 235c-1 0-2 0-2-2l2-3h1c-1 2 0 2 1 3v1l-2 1Z" style="fill:#040404"/><path d="M162 65v2l-1 1h-1v-6l1-1 1 2v2ZM163 263v2l-2 1-1-1v-5l2-1v4h1Z" style="fill:#050505"/><path d="M139 177h-1l-1 2-1-1-1-3v-2c1-1 2 0 2 1l2 3Z" style="fill:#070707"/><path d="M28 124v-2l2-1 1 2 1 2v1l-2 1c-1-1-2-1-2-3Z" style="fill:#040404"/><path d="m201 239-4-1 1-4 1 1 2 2 1 1-1 1Z" style="fill:#050505"/><path d="m141 125-4-3v-2h1l5 3c0 1 0 2-2 2Z" style="fill:#060606"/><path d="M114 162v2l-2-1-1-3c-1-1 0-2 1-2 1-1 1 0 1 1s2 2 1 3Z" style="fill:#050505"/><path d="M210 171c-1 1-2 0-3-1v-2h2l3 1 2 1-2 1h-2ZM153 54v1l-2 2-1-2-1-3-1-1h2l3 3Z" style="fill:#040404"/><path d="M103 190c2 0 5 2 5 4l-1 1h-1l-3-3-1-1 1-1Z" style="fill:#060606"/><path d="m66 172 4 4-1 1h-1c-2-1-3-2-3-4-1-1 0-1 1-1Z" style="fill:#040404"/><path d="m77 200 1 1-1 4-1 1c-2-1-2-2-2-4 0-1 1-2 3-2Z" style="fill:#070707"/><path d="M200 41c-2 0-4-2-3-4l1-1 1 1 2 2 1 2h-2ZM51 139v2l-1 1-1-1-1-4v-1h1c2 1 2 2 2 3Z" style="fill:#040404"/><path d="M131 181h-2l1-2h3l2 3h-2l-2-1ZM127 113v3l-1 1h-1c-1-1-2-1-1-3v-1l1-2 2 2Z" style="fill:#060606"/><path d="m120 184 1 1v4l-1 1c-1 0-2-1-2-3l2-3ZM188 27l2 1c0 2-1 2-2 2l-3 1h-1v-2l4-2Z" style="fill:#050505"/><path d="M74 5c0-2 1-3 2-3l2 1-1 4-1 1h-1l-1-3Z" style="fill:#060606"/><path d="m148 174-1 1h-1c0-2-1-2-2-3v-2h2l2 4ZM152 94l-2 3h-2v-1l1-3 2-1 1 2ZM48 6l1-2h3l1 1-4 3-1-1V6ZM158 126l-5-2v-2h2l3 1 1 2-1 1ZM116 189l-1 1h-2l-1-5 1-2 1 1 2 5Z" style="fill:#050505"/><path d="M127 125h2v2c-2-1-2 3-4 2v-3l2-1Z" style="fill:#0a0a0a"/><path d="m174 119 2 2v1l-1 1-3-1h-2l1-2 3-1Z" style="fill:#060606"/><path d="m114 196-1-1-1-1 1-1 3-1h2c1 1 0 2-1 2-1 1-1 2-3 2Z" style="fill:#050505"/><path d="m99 273 2 1 2 3c0 1 0 2-1 1-2 0-4-3-3-4v-1ZM100 75v1l3 3-1 2c-2-1-4-3-3-5l1-1Z" style="fill:#070707"/><path d="m205 256-2-1v-1l1-1 3-1 2 1v1l-4 2Z" style="fill:#060606"/><path d="m85 180 1 1 2 2 1 2h-2c-2-1-3-1-3-3l1-2Z" style="fill:#040404"/><path d="m52 119 3 1 1 1-1 1-5-1v-1l2-1Z" style="fill:#060606"/><path d="m28 89 5 4-1 1h-1l-4-3v-1l1-1Z" style="fill:#040404"/><path d="m205 58-2-1v-1l1-1h5v1l-4 2Z" style="fill:#050505"/><path d="M101 244c1 0 3 1 3 3l-1 2-1-1-2-1-2-2 3-1Z" style="fill:#060606"/><path d="m147 131 3 5-1 1-1-1-2-3 1-2Z" style="fill:#040404"/><path d="M187 225h2l1 1-1 1-4 2h-1v-2l3-2Z" style="fill:#030303"/><path d="m104 50-1 1-1-1-2-1-2-1 2-1c2-1 4 1 4 3Z" style="fill:#050505"/><path d="M23 210c-1 1 0 2-2 3l-1-2-1-2v-2l2 1 2 2ZM79 191l-1 2c-1 1-2 1-2-1v-3l2-1 1 1v2Z" style="fill:#040404"/><path d="m166 123 2 2v3h-1l-2-4 1-1ZM183 234l-2 4h-1l-1-1 2-4 1-1 1 2Z" style="fill:#050505"/><path d="m51 201 2 1-1 2-1 1-2 1-1-1c-1-2 1-4 3-4Z" style="fill:#030303"/><path d="M119 255c0 1 0 3-2 4-1 1-1 0-2-1l3-4c1-1 1 0 1 1ZM183 36l-2 4h-1l-1-1 2-4 1-1 1 2Z" style="fill:#050505"/><path d="m218 94-1 2-2-1-2-3v-1h1c2 0 4 2 3 3Z" style="fill:#060606"/><path d="M101 116c-1 0-2 1-2-1 0-1 1-2 3-2l2 2-1 1h-2Z" style="fill:#080808"/><path d="m86 26 2 1v2l-2 2-1-2-1-2 2-1Z" style="fill:#040404"/><path d="M70 165v4l-1 1-1-1c-2-1-1-5 1-5 1-1 1 0 1 1Z" style="fill:#080808"/><path d="m189 258 4 4-2 1-3-4 1-1Z" style="fill:#050505"/><path d="m82 131-2-1 3-4 2 1v1l-2 3h-1ZM23 12l-1 2-1 1-1-1-1-3V9l2 1 2 2Z" style="fill:#040404"/><path d="m115 60 3-4c1 0 2 0 1 1 0 1 0 3-2 4h-1l-1-1Z" style="fill:#070707"/><path d="m95 126-2-1 1-1 4-2h1v2l-4 2Z" style="fill:#080808"/><path d="M85 225c0-1 0-2 1-1h2v3l-2 2v-1l-1-3Z" style="fill:#060606"/><path d="m178 51-1 2-1-1-2-3 1-2 2 1 1 3Z" style="fill:#050505"/><path d="M215 2c1 1 2 1 1 2l-2 4h-1V5l2-3Z" style="fill:#070707"/><path d="m178 249-1 1h-1l-2-4 1-1c1-1 1 0 2 1l1 3ZM193 65h-1l-4-3 1-1c1-1 4 2 4 4ZM131 14l2-3 2 2c0 1-1 3-3 3l-1-2Z" style="fill:#040404"/><path d="m55 151 2-2 1 2 1 2v2l-2-1c-1-1-2-1-2-3Z" style="fill:#060606"/><path d="m132 214-1-2c0-2 1-3 2-3l2 2-3 3ZM212 204l2-3h2v1l-2 3-1 1-1-2Z" style="fill:#050505"/><path d="m187 132-2 1-3-4 1-1h1l2 2 1 2Z" style="fill:#060606"/><path d="M143 166c0 1-3 4-5 4v-2l3-3c1-1 2 0 2 1Z" style="fill:#040404"/><path d="M167 94v1l-2-1-2-2v-2h2l2 4ZM33 61l-1 2-1-2-1-3v-1h2l1 4Z" style="fill:#050505"/><path d="m209 213 2 1 1 2h-4l-1-1c-1-1 0-2 1-2h1Z" style="fill:#070707"/><path d="m197 93-2-1 1-2 3-1h2l-1 2-3 2Z" style="fill:#050505"/><path d="M208 178h-1v-1l2-3h2v1c0 1-1 3-3 3Z" style="fill:#060606"/><path d="m164 36-1 2c-1 0-2 1-2-1l-1-3 1-1c1-1 1 0 2 1l1 2Z" style="fill:#090909"/><path d="M134 76v2l-1 1-1-2-1-3 1-2 1 1 1 3Z" style="fill:#050505"/><path d="m45 122-1 1h-1c-2-2-2-3-1-4l1-1 1 1 1 3Z" style="fill:#040404"/><path d="m163 234-1 2-1-2-1-2 1-2 1 1c1 1 2 2 1 3Z" style="fill:#060606"/><path d="m205 107-1-1v-1l2-3h2v1c0 2-2 4-3 4Z" style="fill:#070707"/><path d="m134 274-1 2-1-2-1-2 1-2 1 1 1 3Z" style="fill:#050505"/><path d="m158 76-2-1 2-1 2-2h1l1 2-4 2Z" style="fill:#040404"/><path d="M136 232c-2 0-3-1-3-3l1-1 4 2v1l-2 1Z" style="fill:#050505"/><path d="m13 171-2-2c0-2 0-3 2-3l1 4-1 1Z" style="fill:#060606"/><path d="m195 99-1-1-2-2v-2h2l2 4-1 1ZM136 34c-2 0-3-1-3-3l1-1 4 2v1l-2 1Z" style="fill:#040404"/><path d="m193 256-2 1-3-3 1-2 1 1c1 1 3 1 3 3Z" style="fill:#050505"/><path d="m158 274-2-1 2-1 1-2h2v2c0 1-1 2-3 2Z" style="fill:#030303"/><path d="m172 78 3 2v1l-1 1-3-1-1-2 2-1Z" style="fill:#060606"/><path d="m164 276 1-2h2v5l-2-1-1-2Z" style="fill:#050505"/><path d="m33 259-1 1-1-1-1-3v-1h2l1 4Z" style="fill:#030303"/><path d="m53 155-2 1-3-3 1-2c1 0 4 2 4 4Z" style="fill:#080808"/><path d="M120 84v2l-1 2-1-2v-2l1-2 1 2Z" style="fill:#090909"/><path d="m144 78 4 4-1 1h-1l-3-3 1-2Z" style="fill:#060606"/><path d="m29 241-3-2v-1h1l3 1 1 2h-2Z" style="fill:#050505"/><path d="m209 15 3 2-1 1h-3l-1-1c-1-1 0-2 1-2h1Z" style="fill:#060606"/><path d="m118 68-2 3c-1 1-2 0-2-1s1-3 3-3l1 1Z" style="fill:#080808"/><path d="m38 11-1 1-4-2V9l1-1 4 3Z" style="fill:#040404"/><path d="m189 54 4 4-2 1-3-3 1-2ZM152 128l-2 1-4-3 1-2 5 4ZM208 5l-1 1h-1l-2-3V1h1c2 1 3 2 3 4ZM151 201l-1 1h-1l-3-3v-1h2l3 3ZM164 79l1-3h2v3c0 1 1 2-1 2l-2-1v-1ZM208 202l-1 2-1-1-2-2v-2h1l3 3Z" style="fill:#050505"/><path d="m60 98 1 1v1l-3 1-2-1c-1-1 0-1 1-1l3-1ZM128 16l4 2v2h-2l-3-2v-1l1-1ZM36 192h-1v-2l3-1h2l-1 2-3 1Z" style="fill:#060606"/><path d="m128 214 3 2 1 1-2 1-3-2v-1l1-1Z" style="fill:#070707"/><path d="M40 127v2l-2-1-1-4 1-1 1 1 1 3Z" style="fill:#040404"/><path d="m134 127 3 4h-1c-2 0-3-1-3-3l1-1Z" style="fill:#060606"/><path d="m118 266-2 3h-1l-1-1 2-3h2v1Z" style="fill:#070707"/><path d="M30 43c-2 0-3 0-4-2v-1h1l4 2v1h-1Z" style="fill:#050505"/><path d="m38 209-1 1-4-2 1-2 4 3Z" style="fill:#030303"/><path d="m107 82 1-2 1 1 1 3-1 1-1-1-1-2Z" style="fill:#090909"/><path d="m33 182 1-1h1l2 3-1 2-1-1-2-3Z" style="fill:#040404"/><path d="M62 200v2l-2-1-1-3 1-1h1c1 1 2 2 1 3Z" style="fill:#080808"/><path d="M52 185v2l-1 1-1-1v-2l1-3 1 3Z" style="fill:#0b0b0b"/><path d="m211 267-1 1c-1 1-1 0-1-1l-1-2v-2h2l1 4Z" style="fill:#050505"/><path d="M120 114c-2 0-3-1-3-2l1-2 2 1v1l1 1-1 1Z" style="fill:#040404"/><path d="M201 52s-2 1-2-1 1-1 2-1 3-1 3 1-2 1-3 1Z" style="fill:#0a0a0a"/><path d="m75 160 1-3h1c1 0 2 1 1 2l-2 2c-1 1-1 0-1-1Z" style="fill:#060606"/><path d="M191 129s1 2-1 2-2-2-2-3 0-2 2-2l1 3Z" style="fill:#0b0b0b"/><path d="M116 115v1l-2-1-2-3 1-1h1l2 4Z" style="fill:#060606"/><path d="m211 69-1 1c-1 1-1 0-1-1l-1-2v-1h1c1 0 2 1 2 3Z" style="fill:#050505"/><path d="m96 25-1-1-1-3 2-1 2 2-1 2-1 1Z" style="fill:#060606"/><path d="m128 41-3-1v-2h2l1 1 1 1-1 1Z" style="fill:#070707"/><path d="m128 239-3-1v-2h2l1 1c1 0 2 0 1 1l-1 1Z" style="fill:#060606"/><path d="M214 88c-2 0-2-1-3-2l2-3 2 4-1 1Z" style="fill:#070707"/><path d="m114 128 3 1v2h-2l-2-1-2-1 2-1h1Z" style="fill:#050505"/><path d="m44 214-1-1c0-2 1-2 2-3l2 1v1l-3 2Z" style="fill:#090909"/><path d="M29 185s2-1 2 1l-3 1h-1l-2-1 2-1h2ZM58 187l1 1-1 1-1 1h-2v-2l3-1Z" style="fill:#050505"/><path d="m87 269 2 1-2 2h-1c-1 0-2 1-2-1-1-1 0-2 1-2h2Z" style="fill:#070707"/><path d="m86 71 3 1-2 2h-3c-1-1 0-2 1-3h1Z" style="fill:#080808"/><path d="m98 221-2 2-1-2-1-2c0-1 1-2 2-1l2 3Z" style="fill:#070707"/><path d="M89 263c1 0 2-1 2 1s-1 1-3 1l-2-1c0-2 2-1 3-1Z" style="fill:#080808"/><path d="M139 184v-2l2 1 1 3-2 1-1-3Z" style="fill:#070707"/><path d="m4 266-1-1 4-2 1 1-4 2Z" style="fill:#050505"/><path d="m27 103 1 1v1l-3 1h-2l1-2 3-1Z" style="fill:#0a0a0a"/><path d="m4 68-1-1 3-2 2 1-4 2Z" style="fill:#080808"/><path d="m175 129-1 1h-2l-1-3 1-2 2 1 1 2Z" style="fill:#050505"/><path d="m95 181-1 1-3-3 1-1 3 3Z" style="fill:#080808"/><path d="m76 135-2 1-1-1v-3h1l2 3Z" style="fill:#090909"/><path d="M89 67h-2l-1-1 2-1h2l1 1-1 1h-1Z" style="fill:#0a0a0a"/><path d="m66 256 1-2 2 2v1l-1 2-1-1-1-2Z" style="fill:#090909"/><path d="M47 13c0 2-2 3-3 3l-1-1 3-3 1 1Z" style="fill:#040404"/><path d="m133 4 3 1v1l-1 1-2-1-2-1 2-1ZM108 202l-3-1v-2h1l2 1 1 1-1 1Z" style="fill:#090909"/><path d="m201 250-2-1 2-1h3v1l-3 1ZM108 4l-3-1V1h2l1 1 1 2h-1ZM58 94l-4-2 1-1 4 2-1 1Z" style="fill:#060606"/><path d="m76 184-1 1c0 1-1 2-2 1v-3l1-1 2 2Z" style="fill:#080808"/><path d="m33 98 1 1-2 3-1-1c-1-1 1-4 2-3Z" style="fill:#070707"/><path d="m66 58 1-2c2 0 2 1 2 2v1l-1 2-2-2v-1Z" style="fill:#0c0c0c"/><path d="m133 202 3 1v1l-1 1-3-1-1-1 2-1Z" style="fill:#060606"/><path d="m55 145-1 3c-2 0-2-2-2-3v-1l2-1 1 1v1Z" style="fill:#0c0c0c"/><path d="M82 197v1h-3c-1-1-2-1-1-3h1l3 2ZM123 66l-1 1-2-3 1-1 2 3Z" style="fill:#060606"/><path d="m123 264-1 1-2-3 1-1c1 0 2 1 2 3Z" style="fill:#070707"/><path d="M134 98c0 2-1 3-2 3s-2 0-1-1l2-3 1 1Z" style="fill:#050505"/><path d="m58 123 3 3-1 1c-1 1-3-1-3-3l1-1ZM24 179l-1 1-2-3 1-1 2 3Z" style="fill:#060606"/><path d="M189 218v1c-1 1-1 0-2-1l-1-2 1-1 2 3Z" style="fill:#070707"/><path d="m38 110-3-2 1-2 1 1 2 2c1 1 0 1-1 1Z" style="fill:#060606"/><path d="m144 103-1 2-1-1-1-2v-1l2-1 1 3Z" style="fill:#090909"/><path d="m99 139-1 1-3-2v-2h2l2 3Z" style="fill:#070707"/><path d="m133 115-1 2-3-4 1-1 3 3Z" style="fill:#040404"/><path d="m63 150 4 2-1 1-4-2 1-1Z" style="fill:#050505"/><path d="m48 158-1 2-3-3 1-1 3 2Z" style="fill:#070707"/><path d="m25 141 2 2c0 2-2 1-3 1l-1-1c0-1 0-2 2-2Z" style="fill:#060606"/><path d="m190 20-1 1h-2l-1-2v-2l2 1 2 2Z" style="fill:#070707"/><path d="M134 122v1l-2 1-1-1v-1c0-1-1-2 1-3l2 2v1ZM150 115l3 2h-1l-4-2 2-1Z" style="fill:#0c0c0c"/><path d="m76 105 3 3-1 1-3-2c-1-1 0-1 1-2Z" style="fill:#060606"/><path d="M126 11h-1l-2-1 2-1h2l1 1-2 1Z" style="fill:#0a0a0a"/><path d="m135 151 2 1-2 2-2-1c0-2 1-2 2-2Z" style="fill:#0c0c0c"/><path d="m19 222-1 2-1-1v-3c1-1 2 1 2 2Z" style="fill:#080808"/><path d="m104 149-2-2v-3c2 0 2 2 3 2v2l-1 1Z" style="fill:#090909"/><path d="m51 254 2 1-2 1h-2v-1l1-1h1Z" style="fill:#070707"/><path d="M132 164v1l-1 2c-2-1-2-2-2-3l1-1 2-1v2Z" style="fill:#0b0b0b"/><path d="m81 182 2 1-2 1h-3v-1l3-1Z" style="fill:#090909"/><path d="m183 201-3 3-1-1c0-1 2-4 3-3l1 1Z" style="fill:#0a0a0a"/><path d="M36 214c2 0 3 1 3 3h-1l-3-2v-1h1Z" style="fill:#070707"/><path d="M210 107c0-1 0-2 2-2l1 3-2 2-1-3Z" style="fill:#050505"/><path d="M163 85c2 0 3 1 3 2l-1 1-3-2 1-1Z" style="fill:#0a0a0a"/><path d="m39 19-1 1-3-3 1-1c2 0 3 2 3 3ZM19 24l-1 2-1-1v-3h1l1 2Z" style="fill:#050505"/><path d="m93 88-2-2-1-1h2l2 1 1 1-2 1Z" style="fill:#090909"/><path d="m125 209-2-1c0-2 2-2 3-2l2 2-3 1Z" style="fill:#080808"/><path d="M50 162c0-2 1-3 2-3l2 1-3 3-1-1Z" style="fill:#0c0c0c"/><path d="m135 166 1-2h1v3l-2 1v-2Z" style="fill:#111"/><path d="m89 116-1-1 2-3 2 1-3 3Z" style="fill:#070707"/><path d="m99 202-3-1v-1l2-1 1 1 1 1-1 1Z" style="fill:#0b0b0b"/><path d="m183 3-3 3-1-1 3-3 1 1ZM45 192l-1 1c-1 0-2 0-2-2l2-1c1-1 1 0 1 2ZM106 25l-2 1-2-3 1-1c1 0 3 1 3 3Z" style="fill:#080808"/><path d="M89 135h-2c-1-1 0-2 1-2h3l-2 2Z" style="fill:#0a0a0a"/><path d="M102 220h1c2 0 2 1 3 2l-2 2-2-4Z" style="fill:#080808"/><path d="m86 175 2 1-2 2-2-2c-1-1 1-1 2-1Z" style="fill:#0a0a0a"/><path d="m123 195-4 3v-2l3-2 1 1ZM99 4h-2l-1-2h3l1 1-1 1Z" style="fill:#080808"/><path d="m51 56 2 1-2 1-2 1v-2l2-1Z" style="fill:#060606"/><path d="m89 55-2 3-1-2 1-2c2-1 2 1 2 1Z" style="fill:#0a0a0a"/><path d="m183 191-1 2-3-3 2-1 2 2Z" style="fill:#070707"/><path d="m148 209-1 2-2-3 1-1 2 2Z" style="fill:#080808"/><path d="m60 166 2 1-3 1-2-1 3-1Z" style="fill:#050505"/><path d="m148 11-1 2-2-3 1-1 2 2Z" style="fill:#060606"/><path d="m136 192-2-1c0-1 1-2 3-2l1 1-2 2Z" style="fill:#090909"/><path d="m169 113 2 1-3 2-1-1 2-2Z" style="fill:#0a0a0a"/><path d="m89 253-2 2-1-1 1-3 2 2Z" style="fill:#080808"/><path d="m201 229-2 2h-2v-1l3-2 1 1Z" style="fill:#060606"/><path d="M130 90c0-1-1-2 1-2l1 2-1 2c-2 0-1-1-1-2Z"/><path d="m200 31 1 1-3 2-1-2 3-1Z" style="fill:#070707"/><path d="m83 217-1 2c-2 0-1-2-2-3l1-1c2 0 2 1 2 2Z" style="fill:#0d0d0d"/><path d="m122 124-2-1c0-1 0-2 1-1 1 0 2 0 2 2h-1Z"/><path d="m88 218 2 2-2 1-1-2c-1-1 0-1 1-1Z" style="fill:#0c0c0c"/><path d="m127 87-3 3-1-1c0-2 1-3 2-3l2 1Z" style="fill:#070707"/><path d="m87 21 1-1 2 2-1 2c-2-1-2-2-2-3Z" style="fill:#0d0d0d"/><path d="M127 176c-1 0-2 0-1-1 0-2 1-2 2-2l1 1c0 2-1 2-2 2Z" style="fill:#0b0b0b"/><path d="m138 244-1 1-2-2c0-1 0-2 1-1l2 2Z" style="fill:#090909"/><path d="m83 19-1 2c-2 0-1-2-2-3l2-1 1 2Z" style="fill:#0a0a0a"/><path d="M167 136c0-2 1-2 2-3l1 2-2 2-1-1Z" style="fill:#060606"/><path d="m69 108 1-2c2 1 2 2 2 3v1l-3-2Z" style="fill:#070707"/><path d="m96 77-1 1-3-2 2-1 2 2Z" style="fill:#0a0a0a"/><path d="m95 94 2 1-2 2-2-1c0-2 1-2 2-2ZM102 236l-1 2c-2 0-1-2-2-3l1-1c2 0 2 1 2 2Z"/><path d="m137 112-1 2c-2 0-1-2-2-3l1-1 2 2Z" style="fill:#0c0c0c"/><path d="m56 85 2 2-1 1c-2 0-3-1-3-2l2-1Z" style="fill:#080808"/><path d="m112 10-1-2 2-2 1 1-2 3Z" style="fill:#090909"/><path d="m113 204 1 1-2 3-1-2 2-2Z" style="fill:#0b0b0b"/><path d="m97 257 2 1c0 2-2 2-3 2l-1-1 2-2Z" style="fill:#0a0a0a"/><path d="m78 85-1 2c-2 0-1-2-2-3l1-1c2 0 2 1 2 2Z" style="fill:#0c0c0c"/><path d="m94 272 2 3-1 1-3-3 2-1Z" style="fill:#0b0b0b"/><path d="m96 62-1-1 2-2 2 1c0 1-1 2-3 2Z" style="fill:#090909"/><path d="M83 5s1-1 1 1l-2 1-1-1 2-1ZM3 112l1 1-2 3-2-1 3-3Z" style="fill:#0c0c0c"/><path d="m86 243-1-2 2-2 2 1-3 3Z" style="fill:#070707"/><path d="m127 98 1-2c1 0 2 1 1 2l-1 2-1-2Z" style="fill:#101010"/><path d="m138 46-1 1-2-2 1-1 2 2ZM86 45l-1-1 3-3 1 2-3 2Z" style="fill:#080808"/><path d="m79 277-2-1 1-1 2 1-1 1Z" style="fill:#090909"/><path d="m204 81 2 2c1 1 0 1-1 1l-3-1 2-2Z" style="fill:#0c0c0c"/><path d="m102 38-1 2c-2 0-1-2-2-3l1-1c2 0 2 1 2 2Z" style="fill:#080808"/><path d="m108 96 2 2c1 1 0 2-1 2l-2-2 1-2Z" style="fill:#090909"/><path d="m79 80-2-2 1-1 2 1-1 2Z" style="fill:#0d0d0d"/><path d="m194 151-1 2c-2 0-1-2-2-3l1-1c2 0 2 1 2 2Z" style="fill:#0b0b0b"/><path d="m67 181 3 1-2 1-2-1 1-1Z" style="fill:#070707"/><path d="m97 32-1-1 2-2c1 0 2 0 1 1 0 1 0 2-2 2Z" style="fill:#101010"/><path d="m36 173-2 3-1-2c0-1 0-2 2-2l1 1Z" style="fill:#080808"/><path d="m149 120-1 1-2-2 1-1c2 0 2 1 2 2Z" style="fill:#060606"/><path d="m134 68-1-1 2-2 1 1-2 2Z" style="fill:#0b0b0b"/><path d="M127 192c0 1 0 2-2 2l-1-1 2-2 1 1Z" style="fill:#070707"/><path d="m117 34-1-1-1-1v-2h1l1 2v2Z" style="fill:#0c0c0c"/><path d="m191 169-1-2 2-2 1 1c0 2-1 2-2 3Z" style="fill:#0a0a0a"/><path d="m155 119 1-2c2 0 2 1 2 2l-1 2c-2 0-2-1-2-2Z" style="fill:#070707"/><path d="m30 118-2-1 1-2 3 2-2 1Z" style="fill:#060606"/><path d="m134 159 2-2 1 3-1 1-2-2Z" style="fill:#0d0d0d"/><path d="m187 154-2-2 1-1c2 0 2 1 2 2l-1 1Z" style="fill:#0a0a0a"/><path d="m82 205-1-1 1-2 2 1-2 2Z" style="fill:#0f0f0f"/><path d="m110 52-2 2-1-1c0-1 0-2 2-2l1 1Z" style="fill:#0c0c0c"/><path d="M135 263h1c0 2-1 2-2 3l-1-1c0-2 1-2 2-2Z" style="fill:#0b0b0b"/><path d="m127 272-2-1 1-2 2 2-1 1ZM51 116l-2-1 1-2 2 2-1 1Z" style="fill:#0d0d0d"/><path d="m67 233-2-1 2-1 2 1-2 1ZM129 201l-1 1c-1 0-3 0-3-2l2-1 2 2Z" style="fill:#0b0b0b"/><path d="M99 228c0 1 0 2-2 2l-1-1 2-2 1 1Z" style="fill:#050505"/><path d="m69 35-2 1-2-2 2-1 2 2Z" style="fill:#090909"/><path d="m7 118-2 2-1-1c0-2 1-2 2-2l1 1ZM105 87l-1 1c-1 0-2 0-2-2l1-1 2 2Z" style="fill:#0d0d0d"/><path d="m110 250-2 2-1-1 2-2 1 1Z" style="fill:#0a0a0a"/><path d="m116 227 1 2-1 2-2-3 2-1Z" style="fill:#080808"/><path d="m112 172-1-1 2-2 1 1c0 1 0 2-2 2Z" style="fill:#090909"/><path d="m128 74-1 1c-1-1-2-1-2-3l1-1 2 3Z" style="fill:#0b0b0b"/><path d="m33 137-3 2v-1c0-1 0-2 2-2l1 1ZM128 26l-2-1 2-1 2 1-2 1Z" style="fill:#080808"/><path d="m126 1 3 2-1 1-3-1 1-2Z" style="fill:#060606"/><path d="M126 223c0-1 1-2 2-1l2 1-2 1-2-1Z" style="fill:#090909"/><path d="m10 72-1 1c-1 0-2 0-2-2h1l2 1Z" style="fill:#0b0b0b"/><path d="m35 242-2-1c0-1 1-2 2-1l2 1-2 1Z" style="fill:#080808"/><path d="M196 200c-1 0-2 0-1-1l1-1 2 1-2 1Z" style="fill:#0a0a0a"/><path d="M210 198c0-1 0-2 2-2l1 2-2 1-1-1ZM10 270l-1 1c-1 0-2 0-2-2l1-1 2 2Z" style="fill:#090909"/><path d="m35 44-2-1 2-1 2 1-2 1Z" style="fill:#070707"/><path d="m92 215-1-1 2-2 1 1-2 2Z" style="fill:#0d0d0d"/><path d="m22 147 1-1c2 0 2 1 2 2l-1 1-2-2Z" style="fill:#070707"/><path d="m77 97-1 1-1-1 1-2c1 0 2 1 1 2Z" style="fill:#111"/><path d="m142 160-1-1 2-2 1 1-2 2Z" style="fill:#080808"/><path d="m170 249-1-1c0-1 0-2 2-2l1 1-2 2Z" style="fill:#0a0a0a"/><path d="m60 256 1 1-2 2-1-1 2-2ZM24 200l-1-2 1-1 2 2-2 1Z" style="fill:#0c0c0c"/><path d="m58 220 1 1-2 2-1-1 2-2Z" style="fill:#0f0f0f"/><path d="m59 24-2 2-1-2 2-2 1 2Z" style="fill:#0d0d0d"/><path d="m170 51-1-1 1-2 2 1-2 2Z" style="fill:#070707"/><path d="m42 220-2-2 2-1 1 2-1 1ZM66 119l1 2-1 2-1-2 1-2Z" style="fill:#0d0d0d"/><path d="m3 202-1-1 1-2 2 1-2 2Z" style="fill:#090909"/><path d="m39 132-1 2-2-2 1-1 2 1Z" style="fill:#0d0d0d"/><path d="m110 171-2 1-1-1 1-2 2 2Z" style="fill:#0a0a0a"/><path d="m213 116 2-2 1 2-2 1-1-1Z" style="fill:#080808"/><path d="M5 3 3 4C2 4 1 4 2 3l1-2 2 2Z" style="fill:#090909"/><path d="m18 93-1 1-2-2 1-1 2 2Z" style="fill:#121212"/><path d="m113 68-1 1-1-2 1-1 1 2Z"/><path d="m43 21-1 1-2-2 2-1 1 2Z" style="fill:#0b0b0b"/><path d="m59 61-1-1 2-2 1 1-2 2Z" style="fill:#080808"/><path d="m148 268-2-2h2l1 1-1 1Z" style="fill:#111"/><path d="m99 188-1 1-2-2 1-1 2 1Z" style="fill:#0d0d0d"/><path d="m206 261-1 1-1-1 1-2 1 2Z" style="fill:#080808"/><path d="m53 26 2 1-2 1-2-1 2-2Z" style="fill:#141414"/><path d="m206 63-1 2-1-2 1-2 1 2Z" style="fill:#060606"/><path d="m184 165-1-1 1-2c1 0 2 1 1 2l-1 1Z"/><path d="m62 253-1-1 2-2 1 1-2 2Z" style="fill:#090909"/><path d="m53 226-2-2 2-1 2 2-2 1Z" style="fill:#080808"/><path d="m58 137-2 2-1-1 2-2 1 1Z"/><path d="m63 52 1 1-2 2-1-1 2-2Z" style="fill:#080808"/><path d="m202 61-1 1-2-2 1-1 2 2Z"/><path d="m48 149-1-1 1-1 2 1-2 1Z" style="fill:#080808"/><path d="M13 179c2 0 2 1 2 2l-1 1-1-2v-1Z"/><path d="m201 260-2-2 1-1 2 2-1 1Z" style="fill:#0a0a0a"/><path d="m94 16-2 1-1-1 2-1 1 1Z" style="fill:#080808"/><path d="m147 70-1-1 1-1 2 1-2 1Z" style="fill:#121212"/><path d="m17 191-2 1-1-1 1-2 2 2Z" style="fill:#0b0b0b"/><path d="m80 26-2-2 1-1 2 2-2 1Z" style="fill:#0d0d0d"/><path d="m38 138-1 2-2-2 1-1 2 1Z" style="fill:#0c0c0c"/><path d="m65 49-1 1-2-1 1-1 2 1ZM113 265l-1 2-1-2 1-1 1 1Z" style="fill:#090909"/><path d="m64 248-2-1 1-1 2 1-1 1ZM89 110c-1 0-2 1-2-1l1-1 3 2h-2Z" style="fill:#080808"/><path d="m81 223-1 1-2-2 1-1 2 2Z" style="fill:#111"/><path d="m178 34-2 1-1-1 2-2 1 2Z" style="fill:#080808"/><path d="m3 174 1 2-1 1-1-2 1-1Z" style="fill:#121212"/><path d="m187 171 2 2-2 1-1-2 1-1Z" style="fill:#0b0b0b"/><path d="m177 230 1 1-2 2-1-1 2-2Z" style="fill:#070707"/><path d="m93 196-1 2-1-1 1-2 1 1Z"/><path d="m173 88-2 2-1-1 2-2 1 1Z" style="fill:#0d0d0d"/><path d="m110 16-2 1-1-1 1-1 2 1Z" style="fill:#101010"/><path d="m184 158-2 1-1-1 2-1 1 1Z"/><path d="m110 214-2 1-1-1 1-1 1 1h1Z" style="fill:#141414"/><path d="m17 20-2-1 2-1 1 1-1 1Z" style="fill:#0c0c0c"/><path d="m29 54-1 1-1-2 1-1 1 2Z" style="fill:#0a0a0a"/><path d="m202 179-1 1c-1 1-1 0-1-1l1-1 1 1Z" style="fill:#0b0b0b"/><path d="m44 259-1 1-1-1 1-2 1 2Z" style="fill:#161616"/><path d="m213 271-1 2-1-1 1-2 1 1Z" style="fill:#111"/><path d="m29 251-1 2-1-2 1-1 1 1Z" style="fill:#0c0c0c"/><path d="m61 223 1 1-1 1-1-1 1-1ZM207 218l1 1-2 1-1-1 2-1h-1Z" style="fill:#111"/><path d="m65 211-2 1-1-1c1-1 1-2 2-1l1 1Z" style="fill:#101010"/><path d="m17 215 1 1-1 2-2-2 2-1ZM212 72l1 1-1 2-1-1 1-2Z" style="fill:#0d0d0d"/><path d="m44 61-1 1-1-1 1-1 1 1Z" style="fill:#131313"/><path d="m63 177-1 1-1-1 1-1 1 1Z" style="fill:#070707"/><path d="M97 119c-1 1-1 2-2 1l-1-1 1-1 2 1Z"/><path d="m17 247 1 1-1 1-1-1 1-1Z" style="fill:#080808"/><path d="m49 218-1 1-1-1 1-2 1 2Z" style="fill:#101010"/><path d="m61 28-1-2 1-1 1 1-1 2Z"/><path d="m206 22-1-1 2-1 1 1-2 1Z" style="fill:#050505"/><path d="m98 88-1-2 1-1 1 2-1 1Z" style="fill:#0f0f0f"/><path d="m198 176-1-1 1-1 1 1-1 1Z" style="fill:#0d0d0d"/><path d="m17 49 1 2-1 1-1-2 1-1Z" style="fill:#0a0a0a"/><path d="m49 20-1 1-1-1 1-1 1 1Z" style="fill:#111"/><path d="m75 93-1-1 1-2 1 2-1 1Z" style="fill:#0f0f0f"/><path d="m65 13-1 1-2-1 2-1 1 1Z" style="fill:#0b0b0b"/><path d="m77 163 1 1-1 1-2-1 2-1Z" style="fill:#111"/><path d="m191 121-1-1 1-2 1 1-1 2Z" style="fill:#131313"/><path d="m30 158-1-1 2-1 1 1-2 1Z" style="fill:#111"/><path d="m110 224-1 1-1-1 1-1 1 1Z" style="fill:#0f0f0f"/><path d="m56 174-2 1-1-1 2-1 1 1Z" style="fill:#0d0d0d"/><path d="m188 37-1 1-1-2 1-1 1 2Z" style="fill:#0f0f0f"/><path d="m13 225-1-1 1-2 1 2-1 1Z" style="fill:#0d0d0d"/><path d="m187 235-1-1v-1l2 1-1 1Z" style="fill:#0b0b0b"/></g></svg>