<svg xmlns="http://www.w3.org/2000/svg" viewBox="0 0 220.5 279.2" style="enable-background:new 0 0 220.5 279.2; opacity: .1" xml:space="preserve"><path d="M152 279c-2-2-2-2-1-4 0-4-2-8 3-9 1 1 3 1 1 2s-2 2-1 4c0 3-1 8 4 6 2-1 2 0 2 1h-8zM192 0l-2 4c3 1-1 6 0 9-4 1-3-10-3-13h5zM209 279c-5-1-1-5-5-7-2-1 0-4 1-6 3 1-2 4 3 5l1 2c-2 2 4 6 0 6zM0 158c1-1 2-2 4-1 1 2-2 0-1 3 4 3-3 4-1 7 1 3 1 4-2 5v-14zm0-26c5-1-1 7 5 5 4-1 1 5 2 7H5c1-10-7 0-5-12zm0-51c3 4 6-4 11-2 2 1 1 2-1 2-4 3-11 10-10 0zM47 0c0 3-2 0-4 1-1 0 0 0 0 0v8c-4 3-4-2-3-5-1-6 3-4 7-4zm78 279c0-4-8-10-1-11-2 4 3 6 4 10 3 2-2 1-3 1zM141 0c0 3 4 4 2 7-2 1-2 7-4 3 0-2 4-6 0-6 0-3-2-5 2-4zM0 149c15-5 11 10 8 3-1-4-9 2-8-3zM221 262c-6 4-4-4-11-1-1-3 4-4 6-2 3 0 6-1 5 3zm0-197c-5 2-5-4-11-2-2-3 5-2 6-2 2 2 2 2 5 0v4zM67 279c-2-3-11-3-5-7 3 0 1 3 3 3 4 0 7 5 2 4zm154-133c-5 2-6-3-10-5 1 0 6-1 6 1 0 3 5 0 4 4zM116 0c0 3 5 3 7 5 4 6-16-3-7-5zm105 171-4 3c-2-1-1-4 1-5 2-2-1-6 2-7 0 0-1 10 1 9zM0 226c2-1 2-1 2 1-1 2 7 7 2 8-3-2-5-5-4-9zM0 28c4-2 0 5 4 4 5 10-6 2-4-4zm0 93c3 0 5 3 8 2 0 6-9 3-8-2zM17 279c1-2-1-5-3-4-1-7 14 6 3 4zM0 205c4 0 9 1 7 6-2-4-7-3-7-6zM0 7c3-1 12 3 6 5-1-2-6-2-6-5zm0 68c1-1 3-3 4-1-1 2 2 2 1 3-2 3-6 1-5-2zm0 198c1-1 3-3 4-1-1 2 2 0 1 3 0 3-6 1-5-2zM42 279c-2-2-4-10 1-7-1 2 3 7-1 7zM0 220c6-1 11 11 3 4-2-2-3 0-3-4zM221 20c-1 0-6 1-5-1 5-8 5-8 5 1zm0 197c-2 1-6 3-5-1h1c0-2 3-5 4-6v7zM0 22c6 0 10 11 3 4-2-2-3 0-3-4zm54 257c-3-4 6-9 2-4 2 4 3 4-2 4zm-7 0c-2-2 4-10 4-4-1 1-2 5-4 4zm174-155c-3 2-7-3-4-5 1 1 2 3 3 2 0 1-1 4 1 3zM87 279c0-4 6-4 6 0h-6zM156 0c2 0 4 1 4 3-2 1-7-2-8-3h4zM0 249c3 0 3 4 3 6-3 3-3-4-3-6zM0 51c2 1 4 6 2 7-2-1-2-5-2-7zM4 279c3-3 5-2 8-2 2 3-7 2-8 2zM20 0c-2 1 0 4-2 5-2 0-2-3-2-5h4zM167 0l1 5c-2 3-5-7-1-5zM221 85l-5-4c2-3 6 1 5 4zM148 0l2 3c0 4-7-4-2-3zM81 279c1 0 3-5 4-4 3 4-1 4-4 4zM172 279c-1 1-2-1-2-2 2-2 4 1 5 2h-3zM0 211c3-1 2 2 2 4-1 7-3-2-2-4zM0 13h2c0 2 1 7-2 7v-7zM221 196l-5-1 5-2v3zm0-57c-3-3-4-8 0-7v7zM62 0c0 2 1 5-2 4 0-3-2-5 2-4zM183 279c0-1 1-3 3-3 0 3 0 3-3 3zM12 0c-1 4-4 5-3 0h3zM221 223c-4 1-5-1-1-3 0 1-1 4 1 3zM221 34c-3-2-3-5 0-6v6zM144 279c-3-2 1-3 2-1 3 2-1 1-2 1zM221 231c-3-1-3-4 0-6v6zM221 25c-5 1-4-2 0-3v3zM0 193c2 1 4 2 2 4-2 1-2-3-2-4zM0 91c3-2 2 0 2 2-3 2-2 0-2-2zM197 0l1 2c-3 1-5-1-1-2zM0 62c3-2 2 0 2 2-3 2-2 0-2-2zM0 260c3-2 2 0 2 2-3 2-2 0-2-2zM221 151c-1 0-6 0-3-2 2 0 4 0 3 2zM25 0c1 4-2 2-3 0h3zM221 58c-2-2-3-6 0-7v7zM221 255c-2-1-3-5 0-6v6zM216 279c1-3 2-1 3 0h-3zM176 0c-2 2-4 2-5 0h5zM221 94c-2-1-3-2 0-4v4zM36 0c0 3-3 1-4 0h4zM213 0c-1 2-2 1-3 0h3zM221 161c-1-1-2-3 0-4v4zM221 276c-2-2-2-2 0-3v3zM107 279c1-1 2-2 3 0h-3zM221 78c-2-1-2-2 0-4v4zM0 144c2 1 2 1 0 2v-2zM35 279h3-3zM30 279h2-2zM22 279h3-3z"/><path d="M0 159c1 2 2 3 0 4v-4zM135 0h-4 4zM74 0h-3 3zM82 0h-3 3zM103 0h-3 3zM221 207c-2-1-1-2 0-3v3zM163 0h-2 2zM221 9c-2-1-1-2 0-2v2zM111 279h2-2zM87 0h-1 1zM89 279h2-2zM221 116v-2 2zM189 279h2-2zM25 91c-8 11-1 0-8-4-4-3 4-8-3-10v-2c13 3-1 7 11 16zm150-70c-2 2-3 2-3-1-2 0-5 1-5-1 0-4-4-5-6-7 1-2-4-4-1-6 2 1 3 6 5 5l3 4c3 3 5 0 7 6zm-1 197c-2 5-2-3-5 0l-2-1c-1-3-4-5-6-7 1-3-2-3-2-5 1-2 3 2 4 2 0 3 4 2 5 6 2 2 7 0 6 5zM45 240c0-1 1-3 2-1 3 3-3 11-6 9-3-1-9 2-11-1 0-2 3-2 5-2 2-2 3-1 5 0 1 0 2 1 2-1 2-2 4-1 3-4zm3-196c0 2-1 3-3 3-1 3-3 5-6 2-2-1-3 1-5 2 0 0-5-2-4-3 0-2 11-1 12-1 4-2 3-12 6-3zm148 135c0 2-1 3-3 2-2 0-3 3-6 3-2-1-7 0-8-2-3-4 3-1 4-2 5 3 5-3 10-2-4-5 0-8 3 1zm1-165c3 0 5 3 3 5l-3-2c1 5-6 8 1 10 1 5-10 2-5-6 3-3-4-4 4-7zM187 208c1-3-2-9 1-11 2 0 1-1 1-2-4-1 1-4 2-1 4 3-1 5-1 8 4 3-2 4 0 7 1 4-2 1-3-1zM197 212c3 0 5 3 3 5l-3-2c1 5-6 8 1 10v1c-7 1-7-3-4-8-1-3-2-6 3-6zm-41 1c-4-3-7-6-1-8 0 2 0 5 2 5 4 2-2 4 7 9 4 6-11-2-8-6zM156 15c-4 0-6-7-1-7 0 2 0 4 2 4 2 1 2 2 2 3-1 1-1 2 1 2 0 2 3 4 4 5 3 5-11-3-8-7zM152 75c-3-3 1-9 4-6 0 3-4 2-2 5v5c1 0 3 3 4 1 1 1 3 1 1 2-3 5-11-3-7-7zM55 179c-1-4 5-9 5-4-5 5 2 8 6 10 2 1 0 1-1 2-4-2-9-4-10-8zM79 71c-1-5-1-1-4-2 1-3-5-8-2-11 3-1 2 2 3 4 2 2 8 6 5 10-1 0-2 1-2-1zm14 31c0 2-1 5-3 2 3-7-13-6-10-13 1-2 1 0 2 1 0 5 11 4 11 10zM75 265c-1-2-5-10 0-9-1 6 10 7 6 14-4 2 0-8-5-3l-1-2zM170 183l2-4c2 1 2 1 1 3-1 1 4 7 4 9 0 1 4 4 3 5-5 0-7-10-10-13zM34 220c3 1 7 0 8 4 0 4 3-1 5 0 0 6-7 3-10 1-1-2-9-4-3-5zM34 22c11 2 5 7 12 4 4 8-8 3-10 0-2-1-6-2-2-4zM203 221c3 0 6 3 9 4-1-7 5-2 3 0 0 3-7 3-8 0-3-1-11-2-4-4z"/><path d="M202 24c4-2 11 7 10 0h2c5 4-6 9-7 3l-3-1c-6 1-3-4-2-2zM122 213c3 2 2 6 1 9 0 1 2 9-1 6-1-3-5-14 0-15zm0-198c4 3 1 7 1 11 2 10-2 2-3-2 1-2-2-9 2-9zm-1 58c1-2 4-5 3-1-2 4 6 9 8 11-1 3-2 2-4 0-3 0-3-3-4-5-2-1-2-3-3-5zm-27 72c12 7-6 6-3-1l-1-4c3 0 9 3 4 5zM33 274c-5-1 3-4 4-6 3-1 2-2 1-5 2-1 9 6 4 6-3 1-5 5-9 5zM80 43c-3 0-3-4-5-5-3-2-3-3-1-5 2 0 6-6 5-2 0 1-4 4-2 5 1 1 3 5 4 4l-1 3zM33 76c-6-2 9-4 5-11 2-1 8 6 4 6-3 1-5 5-9 5zM170 227c0-7 5-2 8-5 1 0 7-2 6 0-5 2-4 5-9 3s-1 8-5 2zM179 154c7 0-7 2 0 12-6 3-3-7-6-9 0-2 4-3 6-3zM39 205c2-4-1-9 3-9 2-1 5 1 4 3l-3-1c-1 1 2 11-2 9l-2-2zM173 25c2-1 4 2 5-1 1 0 8-3 6 1l-4 2c-1 4-8-3-8 4-4 1-2-5 1-6zM80 240c-2 0-3 0-3-2-2-2-6-4-3-7 2 0 6-6 5-2 0 1-4 4-2 5 1 1 7 6 3 6zM127 159c3-3-2-8-1-12 3-2 5-2 6 1-10-2 3 7-3 11-1 2-1 2-2 0zm-2 20c-2 3 6 6 5 9-2 0-4 0-4-3-4-1-3-6-5-8v-3c2-2 3 4 4 5zM21 251c2-3-2-5 0-7 1-1 7-3 4 0-4 0 2 11-1 13-2 0 0-5-3-6zM6 181c-7 3-4-3 2-2 1-1-3-4-2-8h3c2 4 5 12-3 10zM198 107c-4-2 3-2 1-5l1-3c-1-4 2-10 4-3-3 3 0 11-6 11zM202 171c4-10 0-4-3-10 1-2 6 2 7 2v3c-2 4-2 3 0 6-1 2-4 0-4-1zm-99-40c-5 1-4-3-7 2-5-7 7-5 10-5l3-1c1 3-5 3-6 4zm97 21c-3-1-6-5-2-6l5 6c0 3-5 4-6 6 0 3-3 1-2-1l5-5zM24 44c2 1 2 1 1 3-3-1 1 8 0 10-1 5-3-2-4-4 1-4-4-8 3-9zm91 105c0 2 1 4 3 4 0 2 0 2-2 2-3-2-3-5-5-7-1-1-1 2-3 2 0-1-1-6 2-4 2 0 6 1 5 3zm63 115c-4 6-4-4-7-2-3 0-3 0-4-2-1 0-2-1-2-3 4-1 4 4 8 2 2 1 3 5 5 5zm-3-196c-3-2-1-6-5-4-2 1-6-3-5-5 4-1 4 4 8 2l5 6-3 1zm30 10c3-3-6-6 1-10 0 3-1 5 2 6 2 0 1 2 1 4 3 5-2 2-4 0zm-49 85-1 1c4 11-8-1 0-6 2-2 7-3 4 1-3 0 1 4-3 4zM21 133l-2-6c1 0 4-3 5-1l-1 6c0 3 3 2 4 4-2 3-6 1-6-3zm97-33c0 2-2 3-4 2 1-2 2-4 1-6s-4-3-2-6c2-1 2-1 3 1 0 4 3 6 2 9zM60 241c-3-2-6-4 0-4-1-2-5-8 0-8 1 3 6 10 0 12zm58-88 3-8c1-1 4-6 6-3-6 2-2 16-9 11zM60 43c-2-1-7-2-2-4 2 4 2 0 1-2-3-3-2-5 1-6-1 4 6 10 0 12zM197 183c6 1 4 6 7 10 5 3-5 2-4-2 1-5-7-4-3-8zM61 138c0-4 4-3 6-3 1 2 10 8 4 7-11-11-4 3-10-4zM10 160c-2 16-6-4 0-3 2-1 3 3 5 4 0 6-3 0-5-1zM149 146c-4 2-5-3-5-6 2-1 2-1 2 1s4 2 6 3c0 2 4 6 0 5l-3-3zM23 268c-1-5 6-1 8-4 1-1 1-2 2-1 0 3-3 5-6 5-2 0 0 0 0 1 1 0 3 0 2 2-3 0-6 0-6-3zm4-198c-3 1 7 2 0 4-5-1-4-7-1-7 4 2 5-3 7-2 2 4-4 4-6 5zm31-5c-2 5 0 3 2 6-1 1-1 3-2 1-5-1-4-4-4-8-3-8 3-2 4 1zm81 172 5-6c1 0 8 2 5 4-6-2-7-1-7 5 0 4-4-1-3-3zM92 93l-6-2c0-2 0-4 2-3 2 6 9 0 12 3l-8 2zM182 260c0-4-1-13 6-12-1 3-4 5-3 8l-1 5c-1 0-2 1-2-1zm-44-7 5-7-1-3c7 0 1 6-1 9 3 4-1 5-3 1zm-78 16c-1 4-4-1-6-2v-6c-1-2-1-5 2-3 5 10-3 5 4 11zm78-214 4-6c1-2-2-6 2-3 4 2-2 6-3 9 3 4-2 4-3 0zm6-22c2 1 6 2 6 4-2 0-7-1-8 1 0 13-8 0 2-5zm44 18c-4 3-2 9-4 12-4 5-1-9-2-10 1-1 5-5 6-2zM20 182c-3 3 3 3 2 6 1 2 5 2 2 4-5-1-4-3-6-6-4-2 1-9 2-4zm115-79c0-2 3-7 5-4-2 3-4 6 1 7 1 2 2 4-1 4-2-1-4-5-5-7zm83-65c0 5-9 2-7 8-1 1-1 0-2-1-4-6 6-4 7-8 2-1 2-1 2 1zm-8 124c2-3-11-5-5-7 7 0 7 8 10 11-3 2-5-1-5-4zm8 74c0 6-6 0-7 8-1 1-2 0-2-1-3-3 2-6 4-6 3 1 5-6 5-1zm-30-116c-4 1 3 5-1 5l-3-1c-4-2 0-2 0-5-6-5 4-2 4 1zm-25-63c-4 0-10-7-6-8 2 0 3 3 3 4 4 0 10 0 3 4zM130 262v6c-4 0-1-7-5-7l-1-5c3-1 5 4 6 6zM45 56c-2 2-5-2-5 2-3 1-7-2-6-5 3 2 10-2 11 3zm81 51c-5-3-10 3-9-2 2 0 6-4 8-1 5 0 6 1 1 3zm73 14c-6-1-2-3-2-7l2-4c1 1 3 3 2 4-6 7 4 4-2 7zM207 144c0 7-7 4-4 1 2 0 2 0 1-2-2-1-6-2-5-5 3 0 8 3 8 6zM197 191c-2 3-3-2-5-1-2 0-6 1-8-1-2-1 0-1 1-2l4-1c2 0 8 3 8 5zM152 65c-11-3-4-13-4-5 5 2 4 3 8 0 1 3-2 4-4 5zM45 254c-2 3-4-3-5 1 0 0 0 2-2 2-1-2-5-3-4-6 3 1 11-2 11 3zM130 65c0 4 0 7-3 2 1-3-3-5-4-8 3-4 6 4 7 6zM162 254c-3 0-8-5-6-7 4 0 4 5 7 4 2-1 2-1 3 1 2 2-3 2-4 2zM10 15c3 1 1 2-1 3l1 4v3c-3 2-3-6-4-7l4-3zm142 248c-12-2-3-15-4-5 3 2 5 2 8 0 1 2-3 4-4 5zm-11-136c4 0 1 7 2 10-1 1-2 3-4 2l1-6c1-2-2-6 1-6zM181 9c3 0 0 6 1 8-2 1-1 1-1 3-3 3-5-5-2-6-1-2 0-5 2-5zm10 63c0 1-1 2 1 2 6 7-2 1-5 1 0-5 1-12 4-3zm0 198c-1 2 2 2 3 4-1 2-5 0-7-1-1-4 3-3 0-7 3-4 4 2 4 4zm-38-95 8 1c0 2-1 4-4 3-2-3-4-2-5 1-4-2-1-4 1-5zm27 43c-4-2-3-3-1-6-1-2 1-5 3-5l-1 8c0 1 1 4-1 3zM101 209c-2 1 7 2 1 8-5 1 2-6-3-5l-2-2c2-1 3-5 4-1zM112 16c5 0 1 4 4 5 4 1 3 4 0 5l-1-3c-4 0-5-4-3-7zM194 38c0 2-4 4-1 5-1 4-5 1-4-2 3-2 2-4 2-7 2-3 3 3 3 4zM101 11c-1 2 4 1 4 4 0 2-3 6-5 3 4-3 0-4-3-5 0-3 3-4 4-2zm11 203c5 0 1 4 6 5 1 2 1 5-2 4-1-1 0-3-2-3-2 1-2-1-3-3 0-2-1-3 1-3zm-102-2c5 4-1 2-1 5 1 2 4 7-1 6-1-3-2-9 2-11zm188 54c-8-8 4-4 3 2 0 2-4 1-5 2-2 0-1-4 2-4zM39 100c-4-1-2-2 0-4-1-3 5-9 4-4l-2 5c0 2 0 3-2 3zM194 235c0 2-4 5-1 6-2 3-6 2-4-2 2-3 3-5 2-8 2-3 3 3 3 4zM29 97c-1 3-4 3-6 5-2 4-5-1-6-3 7 4 8-5 12-2zm47 56c-2 5-11-7-8-9l8 9zM30 26l-1 3c0-5-4-6-8-8-1-5 11 2 9 5zm0 199c-1 1-2 3-2 0 1-5-7-4-7-8 4 0 10 4 9 8zM104 160c2-12 6-1 1 2-2 1-4-2-6-3 0-4 4-2 5 1zM198 69c-9-8 5-5 3 1l-6 2c-1-2 2-2 3-3zm-8 12c3 3 4 4 8 2 5 1-2 3-3 4-2 1-8-4-5-6zM88 160c0 2-3 2-3 5l-3-1c-2-3 5-3 2-6-7-2 4-4 4 2zM189 148c-9-6 5-2 7-6 2-3 2-1 2 1l-9 5zm-50 60c4-8-2-5-1-10 3-2 3 2 5 3 1 2-2 10-4 7zm-16-78c-3 3-6-4-8-6-2 0-3-5 0-4 0 2 2 3 3 3l5 7zM17 268c-1-7 9 7 10 7-1 4-9-5-10-7zm100-22c1 3-2 4-3 1 2-3-5-2-3-5 1-1 2-5 4-2-2 2 2 4 2 6zM137 25c1-2-3-4-2-7 1-1 5-1 3 1 1 3 4 4 1 6 1 3-2 3-2 0-1 0 0 0 0 0zM17 69c1-3 9 8 10 9-4 0-10-5-10-9zm193 30c0-2 2-2 3-1 0 1 0 2 1 1 3 0 7 6 4 8-6-9-7-1-8-8zm-35 38c5-2-1-9 5-4 3 4-5 4-1 6 0 5-3 0-4-2zM136 223c2-2 0-4-1-5-1-2 3-5 3-2s4 3 2 6c-2 2 0 5-4 1zM179 176c-3 3-5-7-9 0-2-4 3-8 6-4l3 4zM117 140v2l3-1v2c-2 0-1 2-4 2-4-4-7-13 1-5zM45 186c-4-1-10-9-2-9 0 2-1 3 1 4 1 2 5 4 1 5zM32 37c-3 4-7-5-9-7 1-7 7 5 9 7zM114 49c2-3-5-2-3-5 1-1 1-4 3-3l1 4c2 1 3 3 1 5-1 2-1 0-2-1zM159 41c-5 11-3-3-5-7 3-2 4 6 5 7zm16 107c-6-1-3-10 0-5-1 2-1 2 1 3 7 2-6 11-1 2zm-40 103c-3 6-3-7-7-5 3-7 6 2 7 5zM84 117c1 4-4 3-3 5-2 3-5 3-4-1-1-5 5-1 5-5 1-2 1 0 2 1zM24 226c3 1 6 7 8 9-3 4-6-4-7-6-1-1-4-3-1-3zM13 90l-3 3c-1 2 1 6-4 1-1-3 5-2 4-6 1-4 2 0 3 2zm60 83c-1 0-4-1-2-2 2 0 1-3 3-4 2 0 7 0 4 3-2-2-2 4-5 3zM215 12c-1 2-5 1-7 1-15-2 2-5 7-1zM167 199c0 1 2 6 0 5-4-2 1-8-6-6-1-5 7-3 6 1zM133 39c-5 1-8-10-3-9 0 3 0 6 4 6 2 0 1 4-1 3zM159 239l-2 4c-1 0-2 1-2-1 3-3-2-6-1-10 2-3 5 6 5 7zM205 207c3 1 9 0 10 4h-8c-1-2-2-1-3-1-4 1 0-2 1-3zm-14-97c-2 0 0-2-1-3l-2-5c4-4 3 4 5 4 2 2 0 3-2 4zM70 81l-3 1c0-3-4-2-6-4-1-3 2-6 3-2-1 2 7 2 6 5zM31 191c-2 5 4 4 5 8-4 0-13-5-5-8zm96 40 1-3c1 0 3 0 2 1 0 4 3 4 5 6-1 4-9-1-8-4zM78 249c0 3-4 3-6 1-2 0-4 1-3-2 3 1 5-1 8-3 0 1-1 5 1 4zM46 94c1-1 0-9 3-6 3 0 1 4 1 5-1 1-2 1-1 3-1 2-4 0-3-2zm32-43c1 4-10 3-9-1 6 3 7-8 9 1zM145 226c0-1-2-6 1-5 5 4-1 7 5 8 1 5-7 0-6-3zM163 102c0-1 1-3 2-1 0 2 1 2 2 2l5 6c-4 0-8-3-9-7z"/><path d="M206 114c-7-9 9-1 2 3-6 2-8 1-2-3zM171 11c0-2 1-6 3-7 1 1 3 1 1 2 0 3 0 12-4 5zM145 28c-1-1-2-5 1-5 5 4-1 7 5 8 0 4-6 1-6-3zM20 236l-1-6v-3c6 1 2 17 1 9zM135 53c-1 5-3-3-4-4l-3-1c3-6 7 2 7 5zm36 156c1-3 0-9 5-6-2 0-1 6-1 7-1 3-4 1-4-1zM152 45c0 2-1 2-3 2 1-3 0-5-4-5-4-5 8-3 7 3zM22 33c1 2 1 6-1 8-2-3 0-8-3-10 0-2 5 0 4 2zM68 133c-4-3-7 1-8 0-1-6 6-4 9-3 2 1 0 2-1 3zm27-81c-3-2-8-1-9-5 3 0 6-1 8 2 2 1 4 2 1 3zM23 263c-2-1-7-2-7-4s-1-5 2-4c1 9 10 5 5 8zM180 87c-1 0-3-2 0-3 5-1 2-4 5-6 3 2 0 9-5 9zM179 100c-2 5-3-3-6 0-1 2-6-3-3-3 3-2 7 1 9 3zM16 61c0-3 0-6 3-2 0 4 2 4 5 4 3 5-9 1-8-2zM100 165c0 3 1 0 3 2 0 2-4 4-5 3-2 1-1-7 0-8 1 1 3 2 2 3zM68 201c3 0-2 3 2 4 3 2 2 3 0 5-3-1-4-5-5-7l3-2zm81-116c2-3 3 1 3 2-2 2-8 6-9 1 2-2 6 0 6-3zm48 166c3 4 1 5-3 3 0-2 1-4-1-5-7-5 5-3 4 2zm-45-8c-1 1-2 2-4 1 3-2-1-7-3-4-4-5 8-2 7 3zM13 150c-2-2 0-6-1-9l2 1 1 10c-2 0-2 0-2-2zm38 82c-5-4 3-7 2-1 4 7-9 6-2 1zM68 3c3 2-3 4 2 4 3 1 1 7-2 4-2-3-5-6 0-8zM62 21l-6-3c0-2 0-2 2-2 2 3 7 1 9 3l-5 2zM14 35c3 5 2 9-2 2-1-9 7-3 2-2zm81 215-9-5c3-3 16 3 9 5zm21-19c3 1 2 5 5 1 0 10-8 5-5-1zM82 85c-4-6 7-10 3-4-1 2 0 6-2 6-1 1-1-1-1-2zM49 36c3-2-1-5 2-6s2 2 3 4c1 4-5 6-5 2zM196 57c-5-1 1-4-5-8 4-3 7 3 6 6 2 1 0 1-1 2zm-28 117c-1 1-2 5-4 4 0-3 3-4-2-5-3-1-2-3 1-3 1 2 5 2 4 4h1zM14 233c5 5 1 8-2 2-3-8 8-4 2-2zM54 98c0 5-5 3-8 6-4 1-1-5 2-4 4 0 3-5 6-2zm-8 170c1-1 3-3 2-5-2-1-1-4 1-2 3 2 2 6-1 7-1 2-1 2-2 0zm2-206 4 4c-1 2-3 5-5 5-1-2 3-4 0-6l1-3zM95 188c0 4-4 4-7 4l1-2c2-1 3-3 3-5 2-1 3 1 3 3zM117 34c1 3 3 1 5 1l-3 5c-2 4-6-10-2-6zM11 256c-1 0-11-10-5-9 1 2 8 7 5 9zm173 12-2 7c-5 4-3-6 0-8 2-1 2-1 2 1zM62 219c-3 0-6-2-6-5 4 1 18 3 6 5zm-21 19c-2 0-2 0-1-2 0-3 4-7 7-5-4 1-2 8-6 7zM183 69c3-1-1 7-1 8 1 3-5 1-3-1 1-2 0-7 4-7zM169 55c1-3 2-1 4-1 4 1 5 3 5 6h-2c-1-3-5-2-7-5zM93 27c1 3 0 8-4 8 0-3 3-4 1-8l2-2 1 2zM106 107c-2 1-5 0-5-3 3-2 5 2 9 1 3 2-3 2-4 2zM93 225c1 3-1 7-4 8 0-3 2-6 1-9 2-3 2-2 3 1zm-74-68c-2 6-3-3-1-4 4 1 8 8 1 4zm188-20c2-8 6 3-1 2-3 0-2-7 1-7v5zM41 41c-1-1-3-1-1-2 2-3 3-10 7-5-4 1-2 6-6 7zM32 3c6 1-10 8-9 3l9-3zM218 182c-1 2 0 3 1 4-2 3-4-3-5-5-1-1-3-2-1-3 2 0 5 2 5 4zM12 57c-2 4-9-7-8-8 1-2 7 7 8 8zM10 195c-1-6 7 1 2 3-1 2-2 4-4 2l2-5zm160 57c2-2 9 3 8 6l-3-1c0-2-1-3-3-2-1 1-5-3-2-3zM21 196c-2 3-3 4-2 7-4 1-4-5-1-7 0-3 2-2 3 0zM17 210c-1 4-3 1-5-1-3 0-4-3-2-5l7 6zm39-98 2-2c2 1 0 4 2 5 1 1 4 2 3 4-4 1-6-4-7-7zM116 177l-1-4c1-1 3-5 5-3-3 1-1 14-4 7zM7 98c4 1 3-1 6-1 1 6-5 2-8 4-4-1 0-3 2-3zM181 90c-3 3 5 5 1 8-1 1-4-4-5-4 0-2 2-7 4-4zM40 86c-6 9-2-1-5-2-1-2 1-3 3-3l2 5zm75 112c2 2 5 4 8 4 5 7-13 0-8-4zm-27-75c5 9-8 1-2-2 7-1 5 5 2 2zM139 148c1-1 1-5 2-1 3 2 4 4 3 7h-2c0-3-3-4-3-6zm78 8c-1 5-4-2-6-3-3 0-2-6 1-3 2 2 5 3 5 6zM101 62c0-1 2-2 3-1-1 3 3 4 4 6 0 5-7-3-7-5zM104 259c-2 3 2 4 4 5 1 6-6-2-7-3 1-1 1-5 3-2zM17 13c-1 2-4-1-5-2-3 0-4-3-2-5 2 4 7 3 7 7zm112 124c1 2 11 9 5 8-2-2-8-5-5-8zM25 206c-2-1-3-2 0-2 2-2 6-4 9-2 0 2-7 3-9 4zm63-65-1 3c2 3-5 0-3-2 1-1 1-2-1-3-3 0-1-3 1-2l4 4zm106-1c-2 3-4-2-8-1-6-5 7-2 8 1zM187 87c5 4 3 5-1 9v-2c0-1-1-7 1-7zM95 173c3 1 6 6 4 9l-5-6-2-1 3-2zM30 111c4 5-3 1-5-1 0-4 11-1 5 1zm167 20-2 5c-2 0-3-2-3-3 1-2 3-4 2-6 2 0 3 3 3 4zm-24 68-3-2c0-2-3-7 1-6 1 1 2 7 3 5 3 2 2 2-1 3zM150 195c-2 0-8 2-7-2h11c0 2-2 2-4 2zM151 103c-1-3 5-9 5-4-3 1-1 4-3 6-3 2-2 0-2-2zM71 88c-1 2-4 7-7 6 0-2 6-11 7-6zm-56 41c0 4-5 1-7 2-1-1-4-3 0-3 5 3 3-5 7 1zM206 129c-5 2-3 2-6 6-3-2 0-10 6-6zM99 153c6 2-6 5-8 5 0-3 5-4 8-5zM46 80c1-1 8-9 4-2-1 2-2 3 0 4-1 4-4 0-4-2zm135 32c-1 2-1 2-2 0s-4-3-4-6c2-4 6 4 6 6zM152 215c0 1 0 2-1 1-2-1-3 2-7 1-4 0 3-3 4-3 2-1 4-1 4 1zM54 217c0 6-6-4-4-7 2-4 3 6 4 7zM191 155c2 3-5 3 1 7-4 5-8-7-1-7zM31 142c3 1 2 5 5 6 3 6-10-3-5-6zM209 94c-2-1-4-5-4-7 2-1 3 3 4 4 3 0 3 3 0 3zM86 149l6 5c-5 1-5-3-6-2-2 1-2 1-3-1l3-2zM16 44c2 1-1 3-2 4-2 12-7-5 2-4zm37 200c0 3-4 8-5 4 2-2 3-4 2-6 2-3 3-1 3 2zm113-57c-4 1 0-3-3-3-1-2 0-3 1-4 1 2 8 7 2 7zM50 15c0-10 4 2 5 4-2 5-4-2-5-4zM62 260c5 1-1 5 6 3-2 6-9 3-6-3zm-51-13c0-6 9-7 5-3-2 0-2 2-2 4-1 3-3 2-3-1zM145 17c1 1 2 0 2-1 3-2 8 2 3 2-1-1-1 0-2 1l-4 1c-3-2-1-2 1-3zM73 219c-1-3-4-2-3-5l2-1c0 2 2 2 3 3v4c-2 1-2 1-2-1zm32-176 4-5 1 3c-2 1-3 3-1 4 0 5-3 0-4-2zm112 84c-2 10-11 1-5 1 3 3 2-4 5-1zM105 241c0-3 7-7 4-2-2 1 0 4 0 6-2 1-4-1-4-4zM98 66c3 0 3 2 1 3-3 0-3 1-3 3-5 1-2-6 2-6zM73 21c-1-2-7-7-1-6 0 2 2 2 3 3 0 2 0 8-2 3zM163 116c-1 2 1 3 2 4 0 2 0 2-2 2-7-7-1-10 0-6zM187 110c2 0 9 5 7 7-2 0-13-7-7-7zM69 195c1-1 1-6 4-5 1 3-3 4 0 7 0 3-5 0-4-2zM31 166c1 1-1 2-2 3 1-4-2-4-5-6 1-2 8 0 7 3zM197 163c5 2 0 5 1 7 1 3-5 0-3-3 1-1 0-4 2-4zM99 266c-4 0-1 6-6 3 2-7 10-6 6-3zM146 75c-4 1-10-9-4-6 0 4 7 4 4 6zM69 123l7 4c0 5-6-3-8-1-2 0-1-3 1-3zM39 171c-1 0-5-3-5-5 1-2 4 1 6 2l2 1c-1 1-2 3-3 2zm46 41c-4 0-3-3-3-5l8 1c1 2-4 3-5 4zm20 62c0-1-7-4-4-5 2 0 4 2 6 1 4 1 0 4-2 4zM216 51c1 2-2 4-1 5-1 2-4-1-3-2 2-3 1-10 4-3zM53 46c1 2-3 7-5 4 2-3 5-14 5-4zm163 203c1 3-2 2-1 5l-1 1c-5-1 1-5-1-8 2-2 2 0 3 2zM84 14c-2 0-4-5 0-4 1 2 1 1 2 0 7-3 2 4-2 4zM110 89c-1 2-6 9-8 6 3-1 4-9 8-6zM62 91c-2-1 0-5-2-8 2-3 4 1 4 3 3 2-1 4-2 5zM163 31c-2 0-7 2-8-2 2-2 14-1 8 2zm0 197c-3 1-8 2-8-2 3 1 7-2 9 1 2 2 0 1-1 1zM195 207c0-3 3-3 4-5h2c2 3-3 3-3 6-1 2-3 1-3-1zM45 110c-5 0-6-9-2-3h5c3 2-2 3-3 3zM98 255c-4 1-11-1-4-4 1 1 9 3 4 4zM98 57c-1 0-6 1-6-2 0-2 12 1 6 2zm47 216c-7 0-6-11-3-6 1 2 8 5 3 6zM106 75c-2 0-7 0-6-4l3 1h5c2 2 0 3-2 3zm-41-9c1-1 3-1 3 1-3 1-5 3-6-1s3-4 3 0zm32 46-2-7c1-3 3 2 4 3 3 2-1 3-2 4zM120 137c-4-1 0-4 3-3l4-2c1 3-5 4-7 5zM108 120c-1 1-3 6-5 6 0-2 3-12 5-6zM26 171c-1 2-1 2-2 0 0-2-5-4-4-6 4 0 6 2 6 6zM195 9l4-5c2-2 4 3 0 4-1 2-4 5-4 1zM30 175c3 2-4 2-1 4 0 2 3 1 1 3-5 2-6-8 0-7zm27 21c-1 2-1 2-3 1-2 0-6-1-5-4 1-1 2 0 2 1 2 0 6-1 6 2zm20-82c0 2-1 7-3 5-3-3 1-4 0-6 1-3 2-1 3 1zm47 134c5-1 8 7 4 5 0-4-12-3-4-5zM77 146c-1-1-3-1-1-2s1-4 1-6c3-1 5 9 0 8zM98 42c-1 2-1 2-3 1 0-3-4-2-5-4 2-2 7 0 8 3zM141 117c0-3 1-3 3-1-1 2 1 3 1 5 1 6-4-2-4-4zM46 142c-4 4-13 7-5-1 1 0 6-1 5 1zM154 22c0 4 0 0 4 1 1 2-1 2-1 2-4 3-4 1-6-2 2-1 1-4 3-1zM13 102c1 2 10 5 6 8-1-2-9-5-6-8zM178 114c0 1-3 6-5 3 0-2 3-2 1-5-5-3 3-2 4 2zm-24 106c-1 2 2 1 3 1 3 1-2 2-3 3-5 1-2-9 0-4zM93 236c2 1 6 2 5 5-3 1-4-3-6-3-3-1-1-2 1-2zM170 158l1 2c3 1 0 6-2 3-3-5 1-9 1-5zM72 241c0 2-6 1-7 1-1-1 1-2 2-3 0-3 6 0 5 2zM11 138c-7-4 3-2 5-4 0 1 4 3 1 2l-6 2zM90 166c0-4 4-4 3-1-1 1 1 2 1 4 1 2-1 3-2 1l-2-4zm-56-46c0-2 0-7 3-7 3 2-1 12-3 7zm90-70c4-1 8 8 3 5-2-1-9-4-3-5zM164 163c5 2 8 6 0 3l-3 1c-2-2 2-3 3-4zM79 209l-1 6c-3 0-3-2-4-4 2-1 4-6 5-2zM69 40c7 4 0 5-4 4 1-2 2-5 4-4zM67 102c-3-1-3-3 0-4l2-2c1 1 3 1 1 2l-3 4zm-37 30c-3 0-3-1-5-3 2 0 12-1 8 3h-3zM138 92c1 1 7 3 6 5-1 0-11-4-6-5zM162 43l2 1c-2 3 5 1 3 4-2 4-9-3-5-5zM204 230c2 0 5 6 3 7-3-1-1-3-3-4-3-1-1-1 0-3zM35 158c2-1 8 3 5 4-2-1-13-3-5-4zM13 187c0 2-5 4-5 0 1-2-2-6 2-3 0 2 3 0 3 3zM35 34c-7 0-1-11 0-4-1 1-1 1 1 2s0 1-1 2zm121 113 1-5c4 0 3 3 2 6s-2 1-3-1zM117 212l-2-1c1-1 4-1 2-3v-2c5 1 4 4 0 6zM161 243c0-3 2-4 3-1-2 3 5 1 3 4-1 3-7-1-6-3zm14-203c-1 2-4 3-6 3-1-1-3-1-1-2 2 0 7-5 7-1zM79 11l-1 6c-3 0-3-2-4-4 2-1 4-6 5-2zM204 32c2 1 3 4 4 6s-2 0-3 0l-1-3c-3-1-1-1 0-3zM12 119l3-4c2 2 0 5-1 6h-3c-1-2-1-2 1-2zM10 62c2 0 5 6 3 7-1 1-2-1-2-2 0-3-4-4-1-5zM35 232c-4 0-5-6 0-6 0 2-2 3 1 3 1 2 1 2-1 3zM183 172c-4 2-4-6-2-7l1 1c-3 4 6 4 1 6zM81 169c2 0 8 1 7 4-2 0-11-1-7-4zM121 12c-1 2-9 3-5 0 3 0 0-2 1-4 2-1 3 3 4 4zM60 145c3-2 6 1 1 2-7 1 0-10-1-2zM111 135c1 4-2 7-4 2 0-5 1-6 4-2zm-69 28c3 0 8 4 5 5-1-2-10-4-5-5zM70 115c-1 1-1 3-2 1-1 1-4-1-5-2-1-4 7-1 7 1zM40 77c1-1 1-4 3-3 0 1 1 8-1 7l-2-4zM168 241c-4-3 5-3 7-5v3l-7 2zM63 194c-3-2-6-5 0-3 5 0 4 2 0 3zm47-18c3-5 3 2 5 4-3 3-4-2-5-4zM103 6c4 0 8 5 3 6-1-4-6-3-3-6zM10 260c2-2 5 6 3 7l-2-3c-1-1-4-4-1-4zM103 203c7 2 5 10 2 5-2-3-5-1-2-5zM110 189c-3 3-5-5-6-7 2 0 6 5 6 7zM103 175c-3 1-1-2 0-3l4 4c-1 4-2 0-4-1zM158 107v5c1 3-2 2-3 0 0-2 0-8 3-5zM77 151c1-2 3-4 5-4l-2 5c0 3-2 0-3-1zM168 141c-2 0-7-1-8-4 2 0 7 1 8 4zm-36 58c-1-1-4-3-2-5l6 1c1 4-4 2-4 4zM56 82c-6 0 0-10 1-6v4c2 1 0 1-1 2zM115 276c-3 0-3-1-3-3 1 0 11-1 6 2l-3 1zM209 186c-2 0-4-2-4-4 2-1 4 2 5 1l2 1c0 2-1 2-3 2zM90 78c4 0 5 5 1 4-1-1-1-2-2 0-4 0 0-3 1-4zm3-69c-2-1-4-2-2-4 4 0 9 2 2 4zM93 206c-4 1-5-4-1-3l3 1c4-1 1 3-2 2zM214 65c1 4 5 2 6 6-3 0-10-1-6-6zm-15 62s-7-3-6-4c1-2 7 2 8 2 1 1-1 2-2 2zM67 156l4 2c0 2 0 2-2 1l-4 1c-2-2 1-3 2-4zM34 85c-1 0-3 4-4 3 0-5 0-12 4-3zM52 104c2 2 5 5 1 6 2-5-7-3-1-6zM79 103c-4 1 0-2 1-3l4 2c3 4-3 1-5 1zm-64 71c0-5 8-2 5 1-4-5-3 4-5-1zM156 133c5 2-1 1 0 6-5 0-3-4 0-6zM115 78c-3 2-3-1-3-3 2 0 3 3 5 0 5-1 0 5-2 3zM111 82c1-5 8 5 3 5-1 1-2-4-3-5zM98 192l5 6c-3 1-8-2-5-6zM84 52c0 4-4 4-4 1 2 0 1-1 0-1-1-4 3-2 4 0zm-43 80c0-2 4-3 3 0-1 1 2 2 2 4-3 1-4-2-5-4zm96 129c-2 0-8-6-3-5 2 3 7 1 3 5zM164 147c2-5 0 0 6-1-2 5-3 6-6 1zm-27-84c-2 0-7-4-4-5 3 2 9 1 4 5zM164 156c-3-1-6-3-2-5 2-2 2 2 2 3 2 1 2 1 0 2zM81 253c-2-1 0-1 0-3-2-1-1-2 1-3 3 2 4 6-1 6zm68-70c0 1 0 7-2 6s1-12 2-6zM61 108c-7-3 1-5 4-3 0 2-2 3-4 3zm22 83c2 1 6 6 3 7-1-1-5-5-3-7zM104 33c-5-1 1-4 3-4 1 1 5 2 2 3l-5 1zM66 163c0 3-5-1-7-1-1-4 6-1 7 1zm148 100 6 5c-3 2-10 0-6-5zM161 100c0 3-1 3-3 3 0-3 1-10 3-3zM160 88c-3 2-1 4-3 6-3-2-2-4 1-6h2zM138 73l1 1c-1 3 1 4 2 6-4 1-7-5-3-7zm-35 29-6-2c0-4 6 0 8 0 1 2-3 0-2 2zM105 137c-1 3-4 2-3-1-1 0-2-1-1-2 0-3 5 1 4 3zM5 42c2 0 4 1 4 3H1c0-2 3-3 4-3zM136 274c4-7 1 2 5 2 1 5-4 0-5-2zM107 230c-7 1-6-2 0-3l3 1c0 2-1 2-3 2zm48-41c-3 0-3 0-3-3 3-3 9 3 3 3zM200 74c2 2 0 5-1 7-3-1-2-6 1-7zM5 240c7 3 3 4-2 3-4-1-1-4 2-3zM124 166c2 1 5 0 4 3l-8-1 4-2zM147 151c2 1 6 3 5 6-1 1-9-7-5-6zm-97-28c2 0 7 3 4 5-2-1-10-3-4-5zm6 124c2-7 4 0 3 3-2 1-2-1-3-3zM200 272c3 2-1 3 0 5-1 2-1 2-3 1 0-2 1-6 3-6zM146 66c1 1-1 2-2 3l-1-2c0-2-3-2-2-4 3 0 5 1 5 3zM69 72l5 4c-3 2-4-2-7-2l2-2zM26 154c-4 0-3-2 0-3 1-1 1-2 2-1 2 3 2 5-2 4zM146 264c0 2-2 3-3 1 2-2-4-2-2-4 2 0 5 0 5 3zM126 243c-1 4-3-2-6-1 1-4 5-2 6 1zM212 36c-1 0-3-2-3-4 5-1 9 2 3 4zM123 42c2-1 5 7 1 4-1-1-2-2-3-1-3-2 1-2 2-3zM56 49c2-7 4 0 3 3-2 1-2-1-3-3zm11 223c1-5 6 0 7 2-2 1-5-1-7-2zm145-38c-2-1-3-2-3-4 4-1 9 1 3 4zM170 36c1 4-5 4-3 1l-1-4c2-1 5 1 4 3zM57 209c1-2 2-6 5-4 1 1-3 4-3 5-1 2-1 0-2-1zm1-196c-3-2 3-9 4-5-1 2-2 5-4 5zM158 201c-1-1-6-2-6-4 2 0 11 3 6 4zM52 133l-5-2c-2-5 11 0 5 2zM3 187c1-1 1-3 2-1 0 3 4 5 2 6-3 0-4-3-4-5zM150 166h-2c-1-1-6-6-1-5 0 1 4 4 3 5zM32 214c-1 5-6-3-4-5s3 4 4 5zM44 150c-2 3-2 7-6 3 1-1 4-5 6-3zM136 135c-3 2-5 0-5-3 0-5 4 2 5 3zM170 234l-2 3c-3 0 0-4-2-6 2-1 5 1 4 3zM27 13c1-5 4 2 5 3-1 5-4-1-5-3zm94 82c2-5 5 3 3 5-2 0-3-3-3-5zM84 59c4 2 1 4-2 3-1 1-1 2-2 1-1-2 3-3 4-4zM27 85c-2-1-7-2-4-5l4 3c2 1 2 1 0 2zM120 164c-2 3-3-3-3-5 2-2 3 4 3 5zM168 267l5 4-2 1c-1-1-6-3-3-5zM168 69c2 2 7 4 3 6-1-1-6-4-3-6zM109 258l-1 3-3-5c-1-4 5-1 4 2zm13-101c1-1 3 4 4 4l-1 3c-2 0-5-6-3-7zM24 115c-1 4-4-1-6-2 0-5 6 1 6 2zM75 176c2 1 7 3 2 4-3-1-5-1-2-4zm85-47c1-1 2 0 3 1 2 0 1 1 0 2-3 0-11-3-3-3zM207 125c-4-1 2-4 4-4 2 2-3 3-4 4zM69 226c-1 0-6-1-3-3 3 0 10-1 3 3zM162 190c1 4-3 6-3 2l1-3c2-1 2-1 2 1zM146 180c-3 4-6-4-4-6 2 0 3 5 4 6zM69 28c0-1-6-2-3-3 3 0 10-1 3 3zm40 32c0 7-6-2-3-4l3 4zM136 87l1-2c1-1 5-2 4 0-1 1-4 7-5 2zm67-42c2 1 4 1 3 3-3 0-10 1-3-3zM49 178c-2 0-4-3-4-5 3 0 2 2 5 3 2 1 0 1-1 2zm161 15-3-4c3 0 9 2 3 4zM168 110c-2 3-5 0-7-1-3-4 6 0 7 1zM7 107c-1 5-6-1-5-4 2-1 5 3 5 4zm76-70c-3 1-1-5 1-5 0 2 3 5-1 5zM185 243l-2 4c-2-2 0-11 2-4zM84 257l2 2-6 2c0-2 1-4 4-4zM150 248c2 2 4 3 2 6-1 1-3-4-4-5l2-1zM183 146c-1 1-2 5-4 4l2-5c-1-2 2 0 2 1zM203 243c2 1 4 1 3 3-3 0-10 1-3-3zM54 166c1 6-4 5-3 1 1-2 2-4 3-1zM17 143l2-4c2 0 2 0 2 2-1 3-2 8-4 2zM25 122c1 3-3 0-4 0-3 0-1-5 1-3 1 2 4 2 3 3zm160-77-2 4c-3-2 0-10 2-4zM8 110l4 3c4 5-9 0-4-3zm75 125c-3 1-1-5 1-5-2 3 4 3-1 5zM162 65c0 1 0 3-2 3v-6c2-2 2 2 2 3zm1 198c0 2 0 3-2 3l-1-6 2-1c0 1-1 5 1 4zM139 177l-2 2c-4-5-2-10 2-2zM28 124c0-2 1-3 2-3l2 5c-2 1-4 1-4-2zM201 239c-4-1-4-1-3-5 1 2 5 4 3 5z"/><path d="M141 125c-1-1-5-3-4-5 2 0 10 4 4 5zM114 162c1 4-3 0-3-2-1-1 0-2 1-2 1-1 1 0 1 1s2 2 1 3zM210 171c-2 1-3-1-3-3 3 0 11 3 3 3zM153 54c-2 6-3 1-4-2-2-1 0-1 1-1l3 3zM103 190c3 0 8 5 3 5-1-1-5-4-3-5zM66 172l4 4c-2 4-8-4-4-4zM77 200l1 1c-1 10-8 0-1-1zM200 41c-3 0-5-3-2-5 1 1 7 6 2 5zM51 139c0 7-3 0-3-3 2 0 3 2 3 3zM131 181c-2 0-2 0-1-2h3c3 3 2 4-2 2zm-4-68-1 4c-2 0-2-2-2-4 1-3 2-1 3 0zM120 184l1 5c-3 3-3-3-1-5zm68-157c5 2-1 3-3 4-1 1-1-1-1-2l4-2zM74 5c0-3 2-3 4-2 0 3-3 8-4 2zM148 174l-2 1c0-3-3-2-2-5 2-1 3 3 4 4zm4-80c-1 1-2 4-4 3 0-2 3-7 4-3zM48 6c0-2 4-3 5-1-1 1-5 5-5 1zm110 120c-1-1-6-1-5-4 2 0 8 2 5 4zm-42 63c-4 5-5-8-2-5l2 5zM127 125c2 0 2 0 2 2-2-1-2 3-4 2 0-2 0-4 2-4zM174 119c4 3 2 5-2 3-4 1 0-3 2-3zM114 196c-4-3 1-4 4-4 1 2-2 4-4 4zM99 273c2 0 3 3 4 4 0 4-6-2-4-4zm1-198c-1 1 3 3 3 4-1 5-7-2-3-4zM205 256c-6-2 4-6 4-2l-4 2zM85 180l4 5c-3 0-6-2-4-5zM52 119l4 2c-1 2-10 0-4-2zM28 89l5 4-2 1c-1-1-6-3-3-5zM205 58c-7-2 4-5 4-2l-4 2zM101 244c2 0 4 3 2 5-2-2-8-4-2-5zM147 131c1 1 5 8 1 5-1-1-3-3-1-5zM187 225c6 0 0 4-3 4-1-2 2-3 3-4zM104 50c-1 2-2-1-4-1-5-2 5-4 4 1zM23 210c-1 2-2 5-3 1-1-2-2-5 1-3l2 2zm56-19c-2 5-4 2-3-2 2-2 3 0 3 2zM166 123c1 1 4 5 1 5 0-1-3-4-1-5zm17 111-2 4c-4 1 0-4 0-5 1-2 1 0 2 1zM51 201c4 1 0 4-2 5-3-2-1-5 2-5zM119 255c1 1-2 7-4 3 1 0 4-7 4-3zm64-219-2 4c-4 1 0-4 0-5 1-2 1 0 2 1zM218 94c-1 5-7-3-4-3s3 3 4 3zM101 116c-3 1-2-3 1-3 2 2 2 3-1 3zM86 26c3 1 2 4 0 5-1-2-3-4 0-5zM70 165c0 1 0 7-2 4-3-1 2-8 2-4zM189 258c1 2 7 4 2 5 0-1-4-4-2-5zM82 131c-4-1 0-3 1-5 1 0 3 1 2 2 0 1-2 4-3 3zM23 12c-2 5-3 3-4-1s3 0 4 1zM115 60l3-4c3-1-1 8-3 4zM95 126c-5-1 2-4 4-4 1 2-3 3-4 4zM85 225c0-2 2 0 3-1 0 2 0 4-2 5l-1-4zM178 51c-1 4-3-1-4-2 1-2 1-2 3-1l1 3zM215 2c3 1-1 4-1 6-3 0 0-5 1-6zM178 249c-2 3-3-2-4-3 2-3 3 1 4 3zm15-184c-1 1-4-3-5-3 1-3 5 0 5 3zm-62-51c2-2 2-4 4-1 0 2-3 5-4 1zM55 151l2-2 2 6c-2-1-4-1-4-4zM132 214c-2-3 1-7 3-3l-3 3zm80-10c1-1 2-4 4-3 0 2-3 7-4 3zM187 132l-2 1c-1-1-5-5-1-5l3 4zM143 166c0 1-3 4-5 4-1-2 4-8 5-4zM167 94c0 3-3-1-4-2 0-5 4 0 4 2zM33 61c-1 5-3-2-3-4 3-1 3 3 3 4zM209 213l3 3c-3 1-9-2-3-3zM197 93c-5-2 1-5 4-4 0 2-3 3-4 4zM208 178c-3 1 1-3 1-4 4-1 2 4-1 4zM164 36c-2 5-3 1-4-2 2-3 3 0 4 2zM134 76c0 6-2 1-3-2 1-4 2 0 3 2zM45 122l-2 1c-4-4 2-7 2-1zM163 234c-1 4-2 0-3-2 1-4 4 0 3 2zM205 107c-2-1 0-4 1-5 4-1 1 5-1 5zM134 274c-1 4-2 0-3-2 1-4 2 0 3 2zM158 76c-2-1-2-1 0-2l3-2c3 3-1 3-3 4zM136 232c-2 0-3-1-3-3 1-2 8 2 3 3zM13 171c-2-1-3-5 0-5 0 1 2 4 0 5zM195 99c-2-1-5-6-1-5 0 1 3 4 1 5zm-59-65c-2 0-3-1-3-3 1-2 8 2 3 3zM193 256c-2 2-4-1-5-2l1-2c1 2 4 2 4 4zM158 274c-4-1 1-1 1-4 3-1 3 4-1 4zM172 78c1 1 5 2 2 4-2 0-6-3-2-4zM164 276c0-1 1-2 3-2 0 4 0 7-3 2zM33 259c-2 3-3-3-3-4 3-1 3 3 3 4zM53 155c-2 2-4-1-5-2 1-4 4-1 5 2zM120 84l-1 4c-2-2-1-9 1-4zM144 78c1 1 7 5 2 5-1-1-4-3-2-5zM29 241c-1 0-4-2-3-3 2-1 8 4 3 3zM209 15l3 2c-2 4-9-2-3-2zM118 68l-2 3c-4 2-1-7 2-3zM38 11c-1 2-4-1-5-1 0-4 4 0 5 1zM189 54c1 2 7 4 2 5-1-1-4-3-2-5zm-37 74c-2 2-4-1-6-2 1-5 5 2 6 2zM208 5c-2 3-4-2-4-4 2 0 4 2 4 4zm-57 196c-1 3-4-1-5-2 0-3 4 1 5 2zm13-122c1-4 4-4 3 0 2 3-3 2-3 0zm44 123c-1 1-1 3-2 1-1-1-4-4-1-4l3 3zM60 98c3 2-2 4-4 2-2-1 3-1 4-2zm68-82c1 1 5 2 4 4-2 0-7-2-4-4zM36 192c-1 1-1-1-1-2l5-1c0 2-2 3-4 3zM128 214c1 1 6 3 2 4-1-1-5-2-2-4zM40 127c0 5-3-1-3-3 2-3 3 2 3 3zM134 127l3 4c-2 1-6-2-3-4zM118 266c0 1-2 4-3 3-3-1 3-6 3-3zM30 43c-2 1-6-3-3-3 1 0 7 3 3 3zM38 209c-1 2-4-1-5-1 1-4 3 0 5 1zM107 82c1-5 4 2 2 3l-2-3zM33 182c2-3 3 1 4 2-1 4-3-1-4-2zM62 200c1 4-3 0-3-2 1-2 5 0 3 2zM52 185c0 7-3 0-1-3l1 3zM211 267c-1 1-2 3-2 0l-1-4c3-1 3 3 3 4zM120 114c-6 0-1-7 0-2v2zM201 52c-2 2-3-3 0-2 4-1 4 4 0 2zM75 160c0-1 1-4 2-3 4 0-3 7-2 3zM191 129s1 2-1 2c-5-1 0-9 1-2zM116 115c0 3-7-5-2-4l2 4zM211 69c-2 3-2 0-3-2 0-2 3-1 3 2zM96 25c-1-1-3-4 0-5 2 1 2 3 0 5zM128 41c-3 0-5-3-1-3 1 1 3 2 1 3zM128 239c-1 0-4-1-3-3l3 1c2 0 1 1 0 2zM214 88c-4 0-3-3-1-5 0 1 3 4 1 5zM114 128c2 1 4 1 3 3-2 0-9-2-3-3zM44 214c-2-1 0-3 1-4 4 1 1 3-1 4zM29 185s2-1 2 1l-4 1c-4-1 0-2 2-2zm29 2c2 1 0 2-1 3-4 0-2-3 1-3zM87 269c5 1-3 5-3 2-2-2 2-2 3-2zM86 71c5 1 1 4-2 3-1-1 1-3 2-3zM98 221c-1 1-2 3-3 0-3-5 2-3 3 0zM89 263c3-1 3 4-1 2-3-1-2-3 1-2zM139 184c0-4 3 0 3 2-2 2-2 0-3-2zM4 266c-3-1 3-2 3-3l1 1-4 2zM27 103c3 2-2 3-4 3 0-2 3-3 4-3zM4 68c-2-1 1-2 2-3l2 1-4 2zM175 129c-3 3-5-2-3-4 2 1 3 2 3 4zM95 181l-1 1c0-1-4-3-2-4l3 3zM76 135c-3 2-3-1-3-3 1-1 3 2 3 3zM89 67c-2 0-4-1-1-2 2-1 4 2 1 2zM66 256c1-3 2-1 3 0 0 4-2 3-3 0zM47 13c0 3-3 4-4 2 1 0 3-4 4-2zM133 4c2 1 5 1 2 3-2-1-6-2-2-3zm-25 198c-1 0-4-1-3-3 1 0 5 2 3 3zM201 250c-4-1 1-2 3-2 1 1-2 2-3 2zM108 4c-3 0-5-3-1-3 1 1 3 4 1 3zM58 94l-4-2c1-2 4 1 5 1l-1 1zM76 184c-1 1-1 4-3 2 0-3 0-5 3-2zM33 98l1 1c-3 7-5-1-1-1zM66 58c1-3 4-2 3 1l-1 2-2-3zM133 202c2 1 5 1 2 3-2-1-6-2-2-3zM55 145c-1 5-4 3-3-1 1-1 3-1 3 1zM82 197c1 2-2 1-3 1-4-3 1-3 3-1zm41-131c-1 3-2-1-3-2l1-1 2 3zM123 264c-1 3-2-1-3-2 1-2 3-1 3 2zM134 98c1 3-4 4-3 2 1-1 2-4 3-2zM58 123c1 1 4 3 2 4-1 1-4-3-2-4zm-34 56c-1 3-2-1-3-2l1-1 2 3zM189 218c0 4-5-2-2-3l2 3zM38 110c-1-1-4-2-2-4 1 1 6 4 2 4zM144 103c-1 4-3 0-3-2 2-2 2 0 3 2zM99 139c-1 2-3-1-4-1-1-4 3-1 4 1zM133 115c-1 5-2-1-4-2 1-2 3 2 4 2zM63 150l4 2c-1 2-4-1-5-1l1-1zM48 158l-1 2c0-1-4-3-2-4l3 2zM25 141c3 2 2 4-1 3-1-1-2-3 1-3zM190 20c-2 3-5 0-4-3l4 3zM134 122c1 1-1 2-2 2-1-1-2-4 0-5 1 1 3 2 2 3zm16-7 3 2-5-2c1 0 3-2 2 0zM76 105l3 3c-1 2-7-2-3-3zM126 11c-2 0-4-1-1-2 2 0 4 1 1 2zM135 151c3 1 1 2 0 3-2 0-2-3 0-3zM19 222c-1 4-2 0-2-2 1-1 2 1 2 2zM104 149c-2-1-2-3-2-5 3 1 4 3 2 5zM51 254c5 1-3 3-2 1l2-1zM132 164c0 4-3 3-3 0 1-1 4-3 3 0zM81 182c4 2-1 2-3 2-1-1 2-2 3-2zM183 201l-3 3c-3-1 2-6 3-3zM36 214c2-1 4 3 2 3-1 0-5-3-2-3zM210 107c0-3 3-1 3 1-2 3-2 2-3-1zM163 85c3 0 4 2 2 3-1-1-4-2-2-3zM39 19c-1 3-3-1-4-2 2-2 4 1 4 2zm-20 5c-1 4-2 0-2-2l2 2zM93 88l-3-3c2 0 7 2 3 3zM125 209c-3-1-1-3 1-3 3 2 2 2-1 3zM50 162c0-3 2-3 4-2-1 1-3 4-4 2zM135 166c2-4 2-2 2 1-2 1-2 1-2-1zM89 116c-2-1 1-3 1-4l2 1-3 3zM99 202c-1 0-4-1-3-2l2-1c1 1 3 2 1 3zM183 3l-3 3-1-1c1 0 3-4 4-2zM45 192c-1 1-3 2-3-1 2-1 3-3 3 1zm61-167c-2 2-3 0-4-2 1-2 4 0 4 2zM89 135c-2 1-4-2-1-2s4 0 1 2zM102 220c3 0 5 2 2 4l-2-4zM86 175c3 1 1 2 0 3-1-1-4-3 0-3zM123 195l-4 3c-1-2 3-5 4-3zM99 4c-2 0-3 0-3-2 1 0 6 0 3 2zM51 56c2 1 2 1 0 2s-2 1-2-1l2-1zM89 55l-2 3c-2-2 1-6 2-3zM183 191c-1 4-2 0-4-1 2-1 3 0 4 1zM148 209c-1 4-2 0-3-1 1-2 2 0 3 1zM60 166c5 1-1 3-3 1l3-1zM148 11c-1 4-2 0-3-1 1-2 2 0 3 1zM136 192c-4-1 0-5 2-2l-2 2zM169 113c4 2 0 2-1 3-2-1 0-2 1-3zM89 253c-3 4-3 1-2-2l2 2zM201 229c-1 1-4 4-4 1 1 0 3-3 4-1zM130 90c-1-3 2-2 2 0s-3 3-2 0zM200 31c3 1-1 2-2 3-2-2 0-2 2-3zM83 217c-1 4-4 0-2-2 2 0 2 1 2 2zM122 124c-1 0-3-3-1-2 1-1 3 2 1 2zM88 218c1 2 3 2 0 3 0-1-3-3 0-3zM127 87l-3 3c-3-2 1-5 3-3zM87 21c1-2 2 0 3 1l-1 2c-2-1-2-2-2-3zM127 176c-3 1 0-4 1-3 2 1 1 4-1 3zM138 244c-1 2-2 0-3-1 0-3 2 0 3 1zM83 19c-1 4-2 1-3-1 2-1 2-1 3 1zM167 136c0-3 2-4 3-1-1 1-2 3-3 1zM69 108c1-4 4 0 3 2l-3-2zM96 77c-1 2-3-1-4-1 2-1 3 0 4 1zM95 94c3 1 1 2 0 3-2 0-2-3 0-3zm7 142c-1 4-4 0-2-2 2 0 2 1 2 2zM137 112c-1 4-2 1-3-1 1-2 2 0 3 1zM56 85l2 2c-2 3-6-1-2-2zM112 10c-1-2 0-3 1-4 2 1-1 3-1 4zM113 204c2 1-1 3-1 4-1-2 0-3 1-4zM97 257c4 1 0 5-2 2l2-2zM78 85c-1 4-4 0-2-2 2 0 2 1 2 2zM94 272c0 1 3 3 1 4-1-2-5-3-1-4zM96 62c-2-1 0-2 1-3 3 1 3 3-1 3zM83 5c2-1 1 2-1 2-2-1 0-1 1-2zM3 112c2 1-1 3-1 4l-2-1 3-3zM86 243c-1-2 0-3 1-4 4 1 0 2-1 4zM127 98c0-2 3-3 2 0-1 2-1 2-2 0zM138 46c-1 2-2 0-3-1 1-2 2 0 3 1zm-52-1c-2-1 2-3 2-4 2 2 0 3-2 4zM79 277l-2-1c1-2 4 0 2 1zM204 81c4 3 2 4-2 2l2-2zM102 38c-1 4-4 0-2-2 2 0 2 1 2 2zM108 96c1 1 4 4 1 4-1-1-2-2-1-4zM79 80c-1-1-3-2-1-3 2 1 2 1 1 3zM194 151c-1 4-4 0-2-2 2 0 2 1 2 2zM67 181l3 1c-1 1-5 1-3-1zM97 32c-3-1 4-5 2-2 0 1 0 2-2 2zM36 173l-2 3c-2-2-1-6 2-3zM149 120c-1 2-2 0-3-1 1-2 4-1 3 1zM134 68c-2-1 0-2 1-3 2 1 0 2-1 3zM127 192c1 2-2 3-3 1 1-1 2-3 3-1zM117 34l-2-4c2 0 2 3 2 4zM191 169c-1-2 0-3 1-4 2 1 0 3-1 4zM155 119c0-2 3-2 3 0 0 3-3 2-3 0zM30 118c-2-1-2-1-1-3 1 1 5 2 1 3zM134 159l2-2c1 3 1 6-2 2zM187 154l-2-2c2-2 5 1 2 2zM82 205v-3c3 1 1 2 0 3zM110 52l-2 2c-2-1 0-4 2-2zM135 263c2 0 0 3-1 3-2-1-1-3 1-3zM127 272c-2-1-2-1-1-3 1 1 3 2 1 3zM51 116c-2-1-2-1-1-3 1 1 3 2 1 3zM67 233c-2-1-2-1 0-2 2 1 2 1 0 2zm62-32c-1 2-4 1-4-1 2-1 3 0 4 1zM99 228c1 2-2 3-3 1 1-1 2-3 3-1zM69 35c-2 1-3 0-4-1 2-1 3 0 4 1zM7 118l-2 2c-2-2 1-4 2-2zm98-31c-1 3-4 0-2-2l2 2zM110 250c-1 1-2 3-3 1 1-1 2-3 3-1zM116 227v4c-1-2-3-3 0-4zM112 172c-2-1 0-2 1-3 1 1 2 3-1 3zM128 74c-1 2-4-2-2-3l2 3zM33 137l-3 2c0-2 1-4 3-2zm95-111c-2-1-2-1 0-2 2 1 2 1 0 2zM126 1c1 1 5 2 2 3-2-1-4-1-2-3zM126 223c0-3 3-1 4 0h-4zM10 72c-1 1-3 2-3-1l3 1zM35 242c-2 0-3-3 0-2 2 1 2 1 0 2zM196 200c-2 0-1-1 0-2 2 1 2 1 0 2zM210 198c0-4 6 0 1 1l-1-1zM10 270c-1 3-4 0-2-2l2 2zM35 44c-2-1-2-1 0-2 2 1 2 1 0 2zM92 215c-2-1 0-2 1-3 2 1 0 2-1 3zM22 147c2-2 5 1 2 2l-2-2zM77 97h-2c0-2 3-3 2 0zM142 160c-2-1 0-2 1-3 2 1 0 2-1 3zM170 249c-2-1 0-4 2-2l-2 2zM60 256c2 1 0 2-1 3-2-1 0-2 1-3zm-36-56v-3c1 2 3 2 0 3zM58 220c2 1 0 2-1 3-2-1 0-2 1-3zM59 24c-1 1-2 3-3 0 2-1 2-3 3 0zM170 51v-3c3 1 1 2 0 3zM42 220c-1-1-3-2 0-3v3zm24-101v4-4zM3 202v-3c3 1 1 2 0 3zM39 132c-1 3-1 1-3 0h3zM110 171c-2 2-4 0-2-2l2 2zM213 116c2-1 2-3 3 0h-3zM5 3C2 5 1 4 3 1l2 2zM18 93c-1 2-2 0-3-1 1-2 2 0 3 1zM113 68c-1 2-3-1-1-2l1 2zM43 21c-1 2-2 0-3-1 2-1 2-1 3 1zM59 61c-2-1 0-2 1-3 2 1 0 2-1 3zM148 268l-2-2c2 0 4 1 2 2zM99 188c-1 2-2 0-3-1 1-1 3 0 3 1zM206 261h-2c1-2 1-2 2 0zM53 26c4 1 0 3-2 1 1 0 3-4 2-1zM206 63c-1 2-1 2-2 0 1-2 1-2 2 0zM184 165v-3c2 0 1 2 0 3zM62 253c-2-1 0-2 1-3 2 1 0 2-1 3zM53 226c-1-1-3-2 0-3 1 2 3 2 0 3zM58 137c-1 1-2 3-3 1 1-1 2-3 3-1zM63 52c2 1 0 2-1 3-2-1 0-2 1-3zM202 61c-1 2-2 0-3-1 1-2 2 0 3 1zM48 149v-2c2 1 2 1 0 2zM13 179c3 0 2 2 1 3l-1-3zM201 260c-1-1-3-2-1-3 1 1 3 2 1 3zM94 16h-3 3zM147 70v-2c2 1 2 1 0 2zM17 191c-2 2-4 0-2-2l2 2zM80 26c-6-5 5-2-1 0h1zM38 138c-1 3-1 1-3 0h3zM65 49h-3 3zm48 216c-1 2-1 2-2 0h2zM64 248l-2-1c1-2 4 0 2 1zm25-138c-4 1-2-4 2 0h-2zM81 223c-1 2-2 0-3-1 1-2 2 0 3 1zM178 34h-3c2-1 2-3 3 0zM3 174v3-3zM187 171c1 2 3 2 0 3v-3zM177 230c2 1 0 2-1 3-2-1 0-2 1-3zM93 196l-1 2c-2-1 0-4 1-2zM173 88c-1 1-2 3-3 1 1-1 2-3 3-1zM110 16h-3 3zM184 158h-3 3zM110 214c-1 1-4 1-2-1l2 1zM17 20c-2-1-2-1 0-2v2zM29 54c-1 2-3-1-1-2l1 2zM202 179l-1 1c-2 2 0-4 1-1zM44 259h-2c1-2 1-2 2 0zM213 271l-1 2c-2-1 0-4 1-2zM29 251c-1 2-1 2-2 0h2zM61 223v2-2zm146-5c2 1-1 3-2 1l2-1h-1 1zM65 211h-3c1-2 2-1 3 0zM17 215v3c-1-1-3-2 0-3zM212 72v3-3zM44 61h-2 2zM63 177h-2 2zM97 119c-1 2-2 1-3 0h3zM17 247v2-2zM49 218h-2c1-2 1-2 2 0zM61 28v-3 3zM206 22c-2-1 1-3 2-1l-2 1zM98 88v-3 3zM198 176v-2 2zM17 49v3-3zM49 20h-2 2zM75 93v-3 3zM65 13h-3 3zM77 163v2c-2-1-2-1 0-2zM191 121v-3 3zM30 158c-2-1 1-3 2-1l-2 1zM110 224h-2 2zM56 174h-3 3zM188 37c-1 2-3-1-1-2l1 2zM13 225v-3 3zM187 235l-1-2c1 1 3 1 1 2z"/></svg>