<?xml version="1.0" encoding="UTF-8"?><svg id="a" xmlns="http://www.w3.org/2000/svg" viewBox="0 0 662.79 18"><defs><style>.b{fill:#66ce69;}</style></defs><path class="b" d="M657.79,18c-8.41,0-12.79-2.47-16.65-4.64-3.33-1.88-5.95-3.36-11.74-3.36s-8.41,1.48-11.74,3.36c-3.86,2.18-8.24,4.64-16.65,4.64s-12.79-2.47-16.65-4.64c-3.33-1.88-5.95-3.36-11.74-3.36s-8.41,1.48-11.74,3.36c-3.86,2.18-8.24,4.64-16.65,4.64s-12.79-2.47-16.65-4.64c-3.33-1.88-5.95-3.36-11.74-3.36s-8.41,1.48-11.74,3.36c-3.86,2.18-8.24,4.64-16.65,4.64s-12.78-2.47-16.65-4.64c-3.33-1.88-5.95-3.36-11.74-3.36s-8.41,1.48-11.73,3.36c-3.86,2.18-8.24,4.64-16.65,4.64s-12.78-2.47-16.65-4.64c-3.32-1.88-5.95-3.36-11.73-3.36s-8.41,1.48-11.74,3.36c-3.86,2.18-8.24,4.64-16.65,4.64s-12.78-2.47-16.65-4.64c-3.33-1.88-5.95-3.36-11.74-3.36s-8.41,1.48-11.74,3.36c-3.86,2.18-8.24,4.64-16.65,4.64s-12.78-2.47-16.65-4.64c-3.33-1.88-5.95-3.36-11.73-3.36s-8.41,1.48-11.74,3.36c-3.86,2.18-8.24,4.64-16.65,4.64s-12.78-2.47-16.65-4.64c-3.33-1.88-5.95-3.36-11.73-3.36s-8.41,1.48-11.74,3.36c-3.86,2.18-8.24,4.64-16.65,4.64s-12.78-2.47-16.65-4.64c-3.33-1.88-5.95-3.36-11.73-3.36s-8.41,1.48-11.73,3.36c-3.86,2.18-8.24,4.64-16.65,4.64s-12.78-2.47-16.65-4.64c-3.33-1.88-5.95-3.36-11.73-3.36s-8.41,1.48-11.73,3.36c-3.86,2.18-8.24,4.64-16.64,4.64s-12.78-2.47-16.65-4.64c-3.33-1.88-5.95-3.36-11.73-3.36s-8.41,1.48-11.73,3.36c-3.86,2.18-8.24,4.64-16.65,4.64s-12.78-2.47-16.65-4.64c-3.33-1.88-5.95-3.36-11.73-3.36C2.24,10,0,7.76,0,5S2.24,0,5,0c8.41,0,12.78,2.47,16.64,4.65,3.33,1.87,5.95,3.36,11.73,3.36s8.41-1.48,11.74-3.36c3.86-2.18,8.24-4.64,16.65-4.64s12.78,2.47,16.65,4.65c3.33,1.87,5.95,3.36,11.73,3.36s8.41-1.48,11.73-3.36c3.86-2.18,8.24-4.65,16.65-4.65s12.78,2.47,16.64,4.65c3.33,1.87,5.95,3.36,11.73,3.36s8.41-1.48,11.73-3.36c3.86-2.18,8.24-4.65,16.65-4.65s12.78,2.47,16.65,4.64c3.33,1.88,5.95,3.36,11.73,3.36s8.41-1.48,11.74-3.36c3.86-2.18,8.24-4.64,16.65-4.64s12.78,2.47,16.65,4.64c3.33,1.88,5.95,3.36,11.73,3.36s8.41-1.48,11.74-3.36c3.86-2.18,8.24-4.64,16.65-4.64s12.78,2.47,16.65,4.64c3.33,1.88,5.95,3.36,11.73,3.36s8.41-1.48,11.74-3.36c3.86-2.18,8.24-4.64,16.65-4.64s12.79,2.47,16.65,4.65c3.33,1.87,5.95,3.36,11.73,3.36s8.41-1.48,11.74-3.36c3.86-2.18,8.24-4.64,16.65-4.64s12.78,2.47,16.64,4.64c3.32,1.88,5.95,3.36,11.73,3.36s8.41-1.48,11.73-3.36c3.86-2.18,8.24-4.64,16.65-4.64s12.79,2.47,16.65,4.65c3.33,1.87,5.95,3.36,11.74,3.36s8.41-1.48,11.74-3.36c3.86-2.18,8.24-4.64,16.65-4.64s12.79,2.47,16.65,4.64c3.33,1.88,5.95,3.36,11.74,3.36s8.41-1.48,11.74-3.36c3.86-2.18,8.24-4.64,16.65-4.64s12.79,2.47,16.65,4.64c3.33,1.88,5.95,3.36,11.74,3.36s8.41-1.48,11.74-3.36c3.86-2.18,8.24-4.64,16.65-4.64s12.79,2.47,16.65,4.64c3.33,1.88,5.95,3.36,11.74,3.36,2.76,0,5,2.24,5,5s-2.24,5-5,5Z"/></svg>