<?xml version="1.0" encoding="UTF-8"?><svg id="a" xmlns="http://www.w3.org/2000/svg" viewBox="0 0 200.2 400.4"><g><rect x="-7.5" y="197.7" width="400.4" height="5" transform="translate(392.9 7.5) rotate(90)"/><rect x="-12.5" y="197.7" width="400.4" height="5" transform="translate(387.9 12.5) rotate(90)" style="fill:#fff;"/><rect x="-17.5" y="197.7" width="400.4" height="5" transform="translate(382.9 17.5) rotate(90)"/><rect x="-22.5" y="197.7" width="400.4" height="5" transform="translate(377.9 22.5) rotate(90)" style="fill:#fff;"/><rect x="-27.5" y="197.7" width="400.4" height="5" transform="translate(372.9 27.5) rotate(90)"/><rect x="-32.5" y="197.7" width="400.4" height="5" transform="translate(367.9 32.5) rotate(90)" style="fill:#fff;"/><rect x="-37.5" y="197.7" width="400.4" height="5" transform="translate(362.9 37.5) rotate(90)"/><rect x="-42.5" y="197.7" width="400.4" height="5" transform="translate(357.9 42.5) rotate(90)" style="fill:#fff;"/><rect x="-47.5" y="197.7" width="400.4" height="5" transform="translate(352.9 47.5) rotate(90)"/><rect x="-52.5" y="197.7" width="400.4" height="5" transform="translate(347.9 52.5) rotate(90)" style="fill:#fff;"/><rect x="-57.5" y="197.7" width="400.4" height="5" transform="translate(342.9 57.5) rotate(90)"/><rect x="-62.5" y="197.7" width="400.4" height="5" transform="translate(337.9 62.5) rotate(90)" style="fill:#fff;"/><rect x="-67.5" y="197.7" width="400.4" height="5" transform="translate(332.9 67.5) rotate(90)"/><rect x="-72.5" y="197.7" width="400.4" height="5" transform="translate(327.9 72.5) rotate(90)" style="fill:#fff;"/><rect x="-77.5" y="197.7" width="400.4" height="5" transform="translate(322.9 77.5) rotate(90)"/><rect x="-82.5" y="197.7" width="400.4" height="5" transform="translate(317.9 82.5) rotate(90)" style="fill:#fff;"/><rect x="-87.5" y="197.7" width="400.4" height="5" transform="translate(312.9 87.5) rotate(90)"/><g><rect x="-2.5" y="197.7" width="400.4" height="5" transform="translate(397.9 2.5) rotate(90)" style="fill:#fff;"/><rect x="-92.5" y="197.7" width="400.4" height="5" transform="translate(307.9 92.5) rotate(90)" style="fill:#fff;"/><rect x="-97.5" y="197.7" width="400.4" height="5" transform="translate(302.9 97.5) rotate(90)"/></g></g><g><rect x="-107.7" y="197.7" width="400.4" height="5" transform="translate(292.7 107.7) rotate(90)"/><rect x="-112.7" y="197.7" width="400.4" height="5" transform="translate(287.7 112.7) rotate(90)" style="fill:#fff;"/><rect x="-117.7" y="197.7" width="400.4" height="5" transform="translate(282.7 117.7) rotate(90)"/><rect x="-122.7" y="197.7" width="400.4" height="5" transform="translate(277.7 122.7) rotate(90)" style="fill:#fff;"/><rect x="-127.7" y="197.7" width="400.4" height="5" transform="translate(272.7 127.7) rotate(90)"/><rect x="-132.7" y="197.7" width="400.4" height="5" transform="translate(267.7 132.7) rotate(90)" style="fill:#fff;"/><rect x="-137.7" y="197.7" width="400.4" height="5" transform="translate(262.7 137.7) rotate(90)"/><rect x="-142.7" y="197.7" width="400.4" height="5" transform="translate(257.7 142.7) rotate(90)" style="fill:#fff;"/><rect x="-147.7" y="197.7" width="400.4" height="5" transform="translate(252.7 147.7) rotate(90)"/><rect x="-152.7" y="197.7" width="400.4" height="5" transform="translate(247.7 152.7) rotate(90)" style="fill:#fff;"/><rect x="-157.7" y="197.7" width="400.4" height="5" transform="translate(242.7 157.7) rotate(90)"/><rect x="-162.7" y="197.7" width="400.4" height="5" transform="translate(237.7 162.7) rotate(90)" style="fill:#fff;"/><rect x="-167.7" y="197.7" width="400.4" height="5" transform="translate(232.7 167.7) rotate(90)"/><rect x="-172.7" y="197.7" width="400.4" height="5" transform="translate(227.7 172.7) rotate(90)" style="fill:#fff;"/><rect x="-177.7" y="197.7" width="400.4" height="5" transform="translate(222.7 177.7) rotate(90)"/><rect x="-182.7" y="197.7" width="400.4" height="5" transform="translate(217.7 182.7) rotate(90)" style="fill:#fff;"/><rect x="-187.7" y="197.7" width="400.4" height="5" transform="translate(212.7 187.7) rotate(90)"/><g><rect x="-102.7" y="197.7" width="400.4" height="5" transform="translate(297.7 102.7) rotate(90)" style="fill:#fff;"/><rect x="-192.7" y="197.7" width="400.4" height="5" transform="translate(207.7 192.7) rotate(90)" style="fill:#fff;"/><rect x="-197.7" y="197.7" width="400.4" height="5" transform="translate(202.7 197.7) rotate(90)"/></g></g></svg>